Alkalami-Light.ufo
<glyph name="space" format="1">
  <advance width="230"/>
  <unicode hex="0020"/>
  <outline>
    <contour>
      <point x="102" y="-60" type="move" name="bottom"/>
    </contour>
    <contour>
      <point x="99" y="305" type="move" name="top"/>
    </contour>
  </outline>
</glyph>
<glyph name="exclam" format="2">
  <advance width="232"/>
  <unicode hex="0021"/>
  <outline>
    <contour>
      <point x="77" y="733" type="curve"/>
      <point x="47" y="709" type="line"/>
      <point x="73" y="490"/>
      <point x="81" y="330"/>
      <point x="89" y="151" type="curve"/>
      <point x="141" y="151" type="line"/>
      <point x="144" y="330"/>
      <point x="144" y="489"/>
      <point x="160" y="709" type="curve"/>
      <point x="136" y="721"/>
      <point x="104" y="729"/>
    </contour>
    <contour>
      <point x="110" y="100" type="curve" smooth="yes"/>
      <point x="97" y="100"/>
      <point x="83" y="97"/>
      <point x="66" y="93" type="curve"/>
      <point x="63" y="77"/>
      <point x="60" y="63"/>
      <point x="60" y="47" type="curve" smooth="yes"/>
      <point x="60" y="32"/>
      <point x="63" y="17"/>
      <point x="66" y="2" type="curve"/>
      <point x="83" y="-1"/>
      <point x="97" y="-5"/>
      <point x="110" y="-5" type="curve" smooth="yes"/>
      <point x="126" y="-5"/>
      <point x="141" y="-1"/>
      <point x="157" y="2" type="curve"/>
      <point x="160" y="17"/>
      <point x="162" y="32"/>
      <point x="162" y="47" type="curve" smooth="yes"/>
      <point x="162" y="63"/>
      <point x="160" y="77"/>
      <point x="157" y="93" type="curve"/>
      <point x="141" y="97"/>
      <point x="126" y="100"/>
    </contour>
  </outline>
</glyph>
<glyph name="numbersign" format="2">
  <advance width="728"/>
  <unicode hex="0023"/>
  <outline>
    <contour>
      <point x="408" y="584" type="line"/>
      <point x="331" y="584" type="line"/>
      <point x="93" y="-138" type="line"/>
      <point x="169" y="-138" type="line"/>
    </contour>
    <contour>
      <point x="628" y="584" type="line"/>
      <point x="552" y="584" type="line"/>
      <point x="313" y="-138" type="line"/>
      <point x="389" y="-138" type="line"/>
    </contour>
    <contour>
      <point x="662" y="149" type="line"/>
      <point x="13" y="149" type="line"/>
      <point x="13" y="85" type="line"/>
      <point x="662" y="85" type="line"/>
    </contour>
    <contour>
      <point x="715" y="359" type="line"/>
      <point x="65" y="359" type="line"/>
      <point x="65" y="295" type="line"/>
      <point x="715" y="295" type="line"/>
    </contour>
  </outline>
</glyph>
<glyph name="dollar" format="2">
  <advance width="542"/>
  <unicode hex="0024"/>
  <outline>
    <contour>
      <point x="249" y="-65" type="line"/>
      <point x="243" y="172"/>
      <point x="243" y="489"/>
      <point x="249" y="726" type="curve"/>
      <point x="196" y="726" type="line"/>
      <point x="202" y="489"/>
      <point x="202" y="172"/>
      <point x="196" y="-65" type="curve"/>
    </contour>
    <contour>
      <point x="340" y="-65" type="line"/>
      <point x="334" y="172"/>
      <point x="334" y="489"/>
      <point x="340" y="726" type="curve"/>
      <point x="287" y="726" type="line"/>
      <point x="293" y="489"/>
      <point x="293" y="172"/>
      <point x="287" y="-65" type="curve"/>
    </contour>
    <component base="S"/>
  </outline>
</glyph>
<glyph name="percent" format="1">
  <advance width="719"/>
  <unicode hex="0025"/>
  <outline>
    <contour>
      <point x="321" y="508" type="curve" smooth="yes"/>
      <point x="321" y="613"/>
      <point x="257" y="671"/>
      <point x="171" y="671" type="curve" smooth="yes"/>
      <point x="84" y="671"/>
      <point x="20" y="613"/>
      <point x="20" y="508" type="curve" smooth="yes"/>
      <point x="20" y="403"/>
      <point x="84" y="345"/>
      <point x="171" y="345" type="curve" smooth="yes"/>
      <point x="257" y="345"/>
      <point x="321" y="403"/>
    </contour>
    <contour>
      <point x="91" y="508" type="curve" smooth="yes"/>
      <point x="91" y="586"/>
      <point x="125" y="629"/>
      <point x="171" y="629" type="curve" smooth="yes"/>
      <point x="216" y="629"/>
      <point x="250" y="586"/>
      <point x="250" y="508" type="curve" smooth="yes"/>
      <point x="250" y="430"/>
      <point x="216" y="387"/>
      <point x="171" y="387" type="curve" smooth="yes"/>
      <point x="125" y="387"/>
      <point x="91" y="430"/>
    </contour>
    <contour>
      <point x="612" y="683" type="line"/>
      <point x="541" y="683" type="line"/>
      <point x="102" y="-18" type="line"/>
      <point x="172" y="-18" type="line"/>
    </contour>
    <contour>
      <point x="699" y="264"/>
      <point x="635" y="322"/>
      <point x="549" y="322" type="curve" smooth="yes"/>
      <point x="462" y="322"/>
      <point x="398" y="264"/>
      <point x="398" y="159" type="curve" smooth="yes"/>
      <point x="398" y="54"/>
      <point x="462" y="-4"/>
      <point x="549" y="-4" type="curve" smooth="yes"/>
      <point x="635" y="-4"/>
      <point x="699" y="54"/>
      <point x="699" y="159" type="curve" smooth="yes"/>
    </contour>
    <contour>
      <point x="469" y="237"/>
      <point x="503" y="280"/>
      <point x="549" y="280" type="curve" smooth="yes"/>
      <point x="594" y="280"/>
      <point x="628" y="237"/>
      <point x="628" y="159" type="curve" smooth="yes"/>
      <point x="628" y="81"/>
      <point x="594" y="38"/>
      <point x="549" y="38" type="curve" smooth="yes"/>
      <point x="503" y="38"/>
      <point x="469" y="81"/>
      <point x="469" y="159" type="curve" smooth="yes"/>
    </contour>
  </outline>
</glyph>
<glyph name="ampersand" format="2">
  <advance width="682"/>
  <unicode hex="0026"/>
  <outline>
    <contour>
      <point x="542" y="74" type="curve"/>
      <point x="477" y="104"/>
      <point x="411" y="183"/>
      <point x="341" y="270" type="curve" smooth="yes"/>
      <point x="250" y="383"/>
      <point x="189" y="462"/>
      <point x="189" y="532" type="curve" smooth="yes"/>
      <point x="189" y="574"/>
      <point x="200" y="603"/>
      <point x="228" y="621" type="curve"/>
      <point x="275" y="621"/>
      <point x="304" y="617"/>
      <point x="358" y="579" type="curve"/>
      <point x="371" y="495" type="line"/>
      <point x="414" y="495" type="line"/>
      <point x="423" y="544"/>
      <point x="429" y="573"/>
      <point x="439" y="625" type="curve"/>
      <point x="384" y="654"/>
      <point x="342" y="664"/>
      <point x="274" y="664" type="curve" smooth="yes"/>
      <point x="159" y="664"/>
      <point x="107" y="593"/>
      <point x="107" y="517" type="curve" smooth="yes"/>
      <point x="107" y="435"/>
      <point x="166" y="357"/>
      <point x="222" y="288" type="curve" smooth="yes"/>
      <point x="355" y="124"/>
      <point x="450" y="6"/>
      <point x="521" y="-24" type="curve"/>
      <point x="553" y="13"/>
      <point x="596" y="55"/>
      <point x="646" y="98" type="curve"/>
      <point x="629" y="123" type="line"/>
      <point x="602" y="106"/>
      <point x="575" y="89"/>
    </contour>
    <contour>
      <point x="207" y="350" type="curve"/>
      <point x="186" y="384" type="line"/>
      <point x="85" y="333"/>
      <point x="40" y="252"/>
      <point x="40" y="177" type="curve" smooth="yes"/>
      <point x="40" y="80"/>
      <point x="107" y="-6"/>
      <point x="244" y="-6" type="curve" smooth="yes"/>
      <point x="386" y="-6"/>
      <point x="549" y="119"/>
      <point x="558" y="398" type="curve"/>
      <point x="477" y="409" type="line"/>
      <point x="478" y="391"/>
      <point x="479" y="374"/>
      <point x="479" y="358" type="curve" smooth="yes"/>
      <point x="479" y="140"/>
      <point x="382" y="46"/>
      <point x="269" y="46" type="curve" smooth="yes"/>
      <point x="173" y="46"/>
      <point x="126" y="122"/>
      <point x="126" y="202" type="curve" smooth="yes"/>
      <point x="126" y="256"/>
      <point x="150" y="313"/>
    </contour>
    <contour>
      <point x="661" y="360" type="curve"/>
      <point x="653" y="418" type="line"/>
      <point x="396" y="418" type="line"/>
      <point x="384" y="382" type="line"/>
      <point x="505" y="378"/>
      <point x="572" y="372"/>
    </contour>
  </outline>
</glyph>
<glyph name="four" format="1">
  <advance width="528"/>
  <unicode hex="0034"/>
  <outline>
    <contour>
      <point x="398" y="628" type="curve"/>
      <point x="349" y="628" type="line"/>
      <point x="248" y="468"/>
      <point x="127" y="308"/>
      <point x="20" y="178" type="curve"/>
      <point x="20" y="146" type="line"/>
      <point x="127" y="147"/>
      <point x="206" y="147"/>
      <point x="279" y="147" type="curve" smooth="yes"/>
      <point x="352" y="147"/>
      <point x="419" y="147"/>
      <point x="500" y="146" type="curve"/>
      <point x="500" y="203" type="line"/>
      <point x="424" y="201"/>
      <point x="348" y="200"/>
      <point x="278" y="200" type="curve" smooth="yes"/>
      <point x="215" y="200"/>
      <point x="161" y="201"/>
      <point x="133" y="203" type="curve"/>
      <point x="171" y="281"/>
      <point x="236" y="368"/>
      <point x="307" y="458" type="curve"/>
      <point x="307" y="370"/>
      <point x="309" y="289"/>
      <point x="309" y="193" type="curve" smooth="yes"/>
      <point x="309" y="125"/>
      <point x="308" y="85"/>
      <point x="305" y="10" type="curve"/>
      <point x="399" y="10" type="line"/>
      <point x="397" y="95"/>
      <point x="397" y="194"/>
      <point x="397" y="289" type="curve" smooth="yes"/>
      <point x="397" y="394"/>
      <point x="397" y="503"/>
    </contour>
    <contour>
      <point x="394" y="58" type="line"/>
      <point x="308" y="58" type="line"/>
      <point x="182" y="35" type="line"/>
      <point x="195" y="0" type="line"/>
      <point x="239" y="1"/>
      <point x="307" y="3"/>
      <point x="351" y="3" type="curve" smooth="yes"/>
      <point x="401" y="3"/>
      <point x="453" y="2"/>
      <point x="491" y="0" type="curve"/>
      <point x="503" y="35" type="line"/>
    </contour>
  </outline>
</glyph>
<glyph name="five" format="2">
  <advance width="446"/>
  <unicode hex="0035"/>
  <outline>
    <contour>
      <point x="26" y="341" type="curve"/>
      <point x="46" y="314" type="line"/>
      <point x="72" y="319"/>
      <point x="97" y="321"/>
      <point x="129" y="321" type="curve" smooth="yes"/>
      <point x="227" y="321"/>
      <point x="317" y="277"/>
      <point x="317" y="172" type="curve" smooth="yes"/>
      <point x="317" y="90"/>
      <point x="237" y="33"/>
      <point x="148" y="33" type="curve" smooth="yes"/>
      <point x="99" y="33"/>
      <point x="60" y="39"/>
      <point x="21" y="51" type="curve"/>
      <point x="15" y="18" type="line"/>
      <point x="61" y="-2"/>
      <point x="108" y="-8"/>
      <point x="152" y="-8" type="curve" smooth="yes"/>
      <point x="277" y="-8"/>
      <point x="409" y="68"/>
      <point x="409" y="207" type="curve" smooth="yes"/>
      <point x="409" y="330"/>
      <point x="302" y="410"/>
      <point x="142" y="410" type="curve" smooth="yes"/>
      <point x="123" y="410"/>
      <point x="103" y="409"/>
      <point x="82" y="407" type="curve"/>
      <point x="85" y="443"/>
      <point x="90" y="501"/>
      <point x="99" y="542" type="curve"/>
      <point x="167" y="542"/>
      <point x="305" y="542"/>
      <point x="386" y="517" type="curve"/>
      <point x="390" y="620" type="line"/>
      <point x="350" y="619"/>
      <point x="278" y="618"/>
      <point x="231" y="618" type="curve" smooth="yes"/>
      <point x="142" y="618"/>
      <point x="107" y="619"/>
      <point x="49" y="620" type="curve"/>
      <point x="48" y="543"/>
      <point x="41" y="434"/>
    </contour>
  </outline>
</glyph>
<glyph name="six" format="1">
  <advance width="484"/>
  <unicode hex="0036"/>
  <outline>
    <contour>
      <point x="114" y="335" type="curve"/>
      <point x="119" y="302" type="line"/>
      <point x="155" y="326"/>
      <point x="186" y="341"/>
      <point x="235" y="341" type="curve" smooth="yes"/>
      <point x="317" y="341"/>
      <point x="358" y="256"/>
      <point x="358" y="176" type="curve" smooth="yes"/>
      <point x="358" y="104"/>
      <point x="325" y="35"/>
      <point x="257" y="35" type="curve" smooth="yes"/>
      <point x="193" y="35"/>
      <point x="130" y="110"/>
      <point x="130" y="235" type="curve" smooth="yes"/>
      <point x="130" y="357"/>
      <point x="183" y="504"/>
      <point x="400" y="594" type="curve"/>
      <point x="387" y="627" type="line"/>
      <point x="133" y="537"/>
      <point x="35" y="359"/>
      <point x="35" y="219" type="curve" smooth="yes"/>
      <point x="35" y="104"/>
      <point x="112" y="-10"/>
      <point x="237" y="-10" type="curve" smooth="yes"/>
      <point x="378" y="-10"/>
      <point x="449" y="101"/>
      <point x="449" y="211" type="curve" smooth="yes"/>
      <point x="449" y="296"/>
      <point x="384" y="401"/>
      <point x="269" y="401" type="curve" smooth="yes"/>
      <point x="220" y="401"/>
      <point x="159" y="381"/>
    </contour>
  </outline>
</glyph>
<glyph name="eight" format="2">
  <advance width="480"/>
  <unicode hex="0038"/>
  <outline>
    <contour>
      <point x="378" y="358"/>
      <point x="417" y="430"/>
      <point x="417" y="485" type="curve" smooth="yes"/>
      <point x="417" y="582"/>
      <point x="328" y="629"/>
      <point x="233" y="629" type="curve" smooth="yes"/>
      <point x="139" y="629"/>
      <point x="48" y="579"/>
      <point x="48" y="475" type="curve" smooth="yes"/>
      <point x="48" y="304"/>
      <point x="356" y="300"/>
      <point x="356" y="131" type="curve" smooth="yes"/>
      <point x="356" y="61"/>
      <point x="301" y="26"/>
      <point x="245" y="26" type="curve" smooth="yes"/>
      <point x="166" y="26"/>
      <point x="127" y="85"/>
      <point x="127" y="155" type="curve" smooth="yes"/>
      <point x="127" y="218"/>
      <point x="162" y="290"/>
      <point x="232" y="327" type="curve"/>
      <point x="190" y="338" type="line"/>
      <point x="85" y="300"/>
      <point x="35" y="224"/>
      <point x="35" y="153" type="curve" smooth="yes"/>
      <point x="35" y="69"/>
      <point x="104" y="-7"/>
      <point x="239" y="-7" type="curve" smooth="yes"/>
      <point x="340" y="-7"/>
      <point x="445" y="50"/>
      <point x="445" y="157" type="curve" smooth="yes"/>
      <point x="445" y="365"/>
      <point x="128" y="377"/>
      <point x="128" y="511" type="curve" smooth="yes"/>
      <point x="128" y="567"/>
      <point x="173" y="596"/>
      <point x="220" y="596" type="curve" smooth="yes"/>
      <point x="287" y="596"/>
      <point x="330" y="544"/>
      <point x="330" y="487" type="curve" smooth="yes"/>
      <point x="330" y="438"/>
      <point x="307" y="379"/>
      <point x="233" y="351" type="curve"/>
      <point x="258" y="332" type="line"/>
    </contour>
  </outline>
</glyph>
<glyph name="question" format="1">
  <advance width="464"/>
  <unicode hex="003F"/>
  <outline>
    <contour>
      <point x="171" y="721" type="curve" smooth="yes"/>
      <point x="105" y="721"/>
      <point x="56" y="709"/>
      <point x="16" y="694" type="curve"/>
      <point x="27" y="647"/>
      <point x="36" y="622"/>
      <point x="45" y="564" type="curve"/>
      <point x="87" y="564" type="line"/>
      <point x="103" y="646" type="line"/>
      <point x="137" y="662"/>
      <point x="172" y="671"/>
      <point x="214" y="671" type="curve" smooth="yes"/>
      <point x="221" y="671"/>
      <point x="228" y="670"/>
      <point x="235" y="670" type="curve"/>
      <point x="285" y="649"/>
      <point x="315" y="604"/>
      <point x="315" y="533" type="curve" smooth="yes"/>
      <point x="315" y="425"/>
      <point x="258" y="356"/>
      <point x="136" y="356" type="curve" smooth="yes"/>
      <point x="123" y="356"/>
      <point x="109" y="356"/>
      <point x="94" y="358" type="curve"/>
      <point x="97" y="299"/>
      <point x="105" y="208"/>
      <point x="109" y="151" type="curve"/>
      <point x="161" y="151" type="line"/>
      <point x="161" y="175"/>
      <point x="164" y="242"/>
      <point x="166" y="278" type="curve"/>
      <point x="322" y="278"/>
      <point x="399" y="398"/>
      <point x="399" y="512" type="curve" smooth="yes"/>
      <point x="399" y="618"/>
      <point x="326" y="721"/>
    </contour>
    <contour>
      <point x="135" y="92" type="curve" smooth="yes"/>
      <point x="119" y="92"/>
      <point x="104" y="88"/>
      <point x="89" y="84" type="curve"/>
      <point x="86" y="69"/>
      <point x="84" y="55"/>
      <point x="84" y="40" type="curve" smooth="yes"/>
      <point x="84" y="24"/>
      <point x="86" y="10"/>
      <point x="89" y="-6" type="curve"/>
      <point x="104" y="-10"/>
      <point x="119" y="-14"/>
      <point x="135" y="-14" type="curve" smooth="yes"/>
      <point x="150" y="-14"/>
      <point x="164" y="-10"/>
      <point x="180" y="-6" type="curve"/>
      <point x="183" y="10"/>
      <point x="186" y="24"/>
      <point x="186" y="40" type="curve" smooth="yes"/>
      <point x="186" y="55"/>
      <point x="183" y="69"/>
      <point x="180" y="84" type="curve"/>
      <point x="164" y="88"/>
      <point x="150" y="92"/>
    </contour>
  </outline>
</glyph>
<glyph name="at" format="2">
  <advance width="733"/>
  <unicode hex="0040"/>
  <outline>
    <contour>
      <point x="33" y="3"/>
      <point x="195" y="-116"/>
      <point x="374" y="-116" type="curve" smooth="yes"/>
      <point x="458" y="-116"/>
      <point x="545" y="-90"/>
      <point x="622" y="-35" type="curve"/>
      <point x="609" y="-10" type="line"/>
      <point x="536" y="-55"/>
      <point x="455" y="-78"/>
      <point x="379" y="-78" type="curve" smooth="yes"/>
      <point x="218" y="-78"/>
      <point x="78" y="23"/>
      <point x="78" y="215" type="curve" smooth="yes"/>
      <point x="78" y="365"/>
      <point x="177" y="513"/>
      <point x="375" y="513" type="curve" smooth="yes"/>
      <point x="567" y="513"/>
      <point x="663" y="365"/>
      <point x="663" y="234" type="curve" smooth="yes"/>
      <point x="663" y="144"/>
      <point x="604" y="62"/>
      <point x="522" y="51" type="curve"/>
      <point x="495" y="70"/>
      <point x="488" y="98"/>
      <point x="488" y="135" type="curve" smooth="yes"/>
      <point x="488" y="206"/>
      <point x="524" y="321"/>
      <point x="553" y="397" type="curve"/>
      <point x="526" y="409"/>
      <point x="487" y="424"/>
      <point x="465" y="424" type="curve"/>
      <point x="456" y="374"/>
      <point x="407" y="176"/>
      <point x="407" y="135" type="curve" smooth="yes"/>
      <point x="407" y="86"/>
      <point x="429" y="22"/>
      <point x="491" y="12" type="curve"/>
      <point x="616" y="21"/>
      <point x="700" y="123"/>
      <point x="700" y="243" type="curve" smooth="yes"/>
      <point x="700" y="390"/>
      <point x="596" y="549"/>
      <point x="376" y="549" type="curve" smooth="yes"/>
      <point x="147" y="549"/>
      <point x="33" y="382"/>
      <point x="33" y="215" type="curve" smooth="yes"/>
    </contour>
    <contour>
      <point x="290" y="16" type="curve" smooth="yes"/>
      <point x="372" y="16"/>
      <point x="422" y="101"/>
      <point x="439" y="196" type="curve"/>
      <point x="435" y="287" type="line"/>
      <point x="409" y="158"/>
      <point x="368" y="68"/>
      <point x="314" y="68" type="curve" smooth="yes"/>
      <point x="274" y="68"/>
      <point x="256" y="118"/>
      <point x="256" y="179" type="curve" smooth="yes"/>
      <point x="256" y="263"/>
      <point x="291" y="368"/>
      <point x="353" y="394" type="curve"/>
      <point x="378" y="394"/>
      <point x="409" y="368"/>
      <point x="428" y="345" type="curve"/>
      <point x="439" y="386" type="line"/>
      <point x="419" y="410"/>
      <point x="387" y="432"/>
      <point x="348" y="432" type="curve" smooth="yes"/>
      <point x="232" y="432"/>
      <point x="166" y="299"/>
      <point x="166" y="183" type="curve" smooth="yes"/>
      <point x="166" y="94"/>
      <point x="205" y="16"/>
    </contour>
  </outline>
</glyph>
<glyph name="A" format="1">
  <advance width="683"/>
  <unicode hex="0041"/>
  <outline>
    <contour>
      <point x="357" y="666" type="curve"/>
      <point x="335" y="666"/>
      <point x="302" y="567"/>
      <point x="307" y="541" type="curve"/>
      <point x="376" y="376"/>
      <point x="462" y="152"/>
      <point x="495" y="50" type="curve"/>
      <point x="416" y="30" type="line"/>
      <point x="427" y="0" type="line"/>
      <point x="463" y="2"/>
      <point x="523" y="3"/>
      <point x="552" y="3" type="curve" smooth="yes"/>
      <point x="593" y="3"/>
      <point x="630" y="2"/>
      <point x="671" y="0" type="curve"/>
      <point x="681" y="30" type="line"/>
      <point x="604" y="50" type="line"/>
      <point x="528" y="227"/>
      <point x="436" y="446"/>
    </contour>
    <contour>
      <point x="357" y="666" type="curve"/>
      <point x="320" y="666" type="line"/>
      <point x="253" y="469"/>
      <point x="125" y="166"/>
      <point x="73" y="50" type="curve"/>
      <point x="-5" y="30" type="line"/>
      <point x="5" y="0" type="line"/>
      <point x="41" y="2"/>
      <point x="70" y="3"/>
      <point x="105" y="3" type="curve" smooth="yes"/>
      <point x="141" y="3"/>
      <point x="165" y="2"/>
      <point x="208" y="0" type="curve"/>
      <point x="218" y="30" type="line"/>
      <point x="145" y="50" type="line"/>
      <point x="164" y="125"/>
      <point x="266" y="398"/>
      <point x="323" y="538" type="curve"/>
      <point x="339" y="610"/>
      <point x="343" y="630"/>
    </contour>
    <contour>
      <point x="467" y="230" type="line"/>
      <point x="410" y="224"/>
      <point x="358" y="224"/>
      <point x="315" y="224" type="curve" smooth="yes"/>
      <point x="270" y="224"/>
      <point x="229" y="224"/>
      <point x="177" y="229" type="curve"/>
      <point x="177" y="168" type="line"/>
      <point x="229" y="173"/>
      <point x="270" y="173"/>
      <point x="315" y="173" type="curve" smooth="yes"/>
      <point x="358" y="173"/>
      <point x="410" y="173"/>
      <point x="467" y="168" type="curve"/>
    </contour>
    <contour>
      <point x="552" y="3" type="move" name="ogonek"/>
    </contour>
    <contour>
      <point x="342" y="660" type="move" name="top"/>
    </contour>
  </outline>
</glyph>
<glyph name="B" format="2">
  <advance width="579"/>
  <unicode hex="0042"/>
  <anchor x="269" y="0" name="bottom"/>
  <anchor x="269" y="660" name="top"/>
  <outline>
    <contour>
      <point x="33" y="0" type="line"/>
      <point x="78" y="1"/>
      <point x="129" y="3"/>
      <point x="158" y="3" type="curve" smooth="yes"/>
      <point x="205" y="3"/>
      <point x="191" y="22"/>
      <point x="201" y="32" type="curve"/>
      <point x="204" y="51" type="line"/>
      <point x="202" y="121"/>
      <point x="202" y="183"/>
      <point x="202" y="348" type="curve" smooth="yes"/>
      <point x="202" y="348"/>
      <point x="203" y="453"/>
      <point x="204" y="602" type="curve"/>
      <point x="223" y="607"/>
      <point x="249" y="611"/>
      <point x="276" y="611" type="curve" smooth="yes"/>
      <point x="348" y="611"/>
      <point x="388" y="560"/>
      <point x="388" y="501" type="curve" smooth="yes"/>
      <point x="388" y="433"/>
      <point x="355" y="398"/>
      <point x="318" y="381" type="curve"/>
      <point x="306" y="379"/>
      <point x="291" y="379"/>
      <point x="276" y="379" type="curve" smooth="yes"/>
      <point x="244" y="379"/>
      <point x="208" y="382"/>
      <point x="175" y="389" type="curve"/>
      <point x="175" y="345" type="line"/>
      <point x="185" y="340"/>
      <point x="198" y="339"/>
      <point x="215" y="339" type="curve" smooth="yes"/>
      <point x="236" y="339"/>
      <point x="263" y="341"/>
      <point x="295" y="341" type="curve" smooth="yes"/>
      <point x="406" y="341"/>
      <point x="486" y="426"/>
      <point x="486" y="518" type="curve" smooth="yes"/>
      <point x="486" y="587"/>
      <point x="436" y="660"/>
      <point x="302" y="660" type="curve" smooth="yes"/>
      <point x="249" y="660"/>
      <point x="207" y="656"/>
      <point x="155" y="656" type="curve" smooth="yes"/>
      <point x="124" y="656"/>
      <point x="74" y="659"/>
      <point x="33" y="660" type="curve"/>
      <point x="23" y="629" type="line"/>
      <point x="111" y="608" type="line"/>
      <point x="115" y="539"/>
      <point x="116" y="462"/>
      <point x="116" y="339" type="curve" smooth="yes"/>
      <point x="116" y="236"/>
      <point x="114" y="165"/>
      <point x="111" y="51" type="curve"/>
      <point x="23" y="30" type="line"/>
    </contour>
    <contour>
      <point x="298" y="-1" type="curve" smooth="yes"/>
      <point x="486" y="-1"/>
      <point x="544" y="97"/>
      <point x="544" y="190" type="curve" smooth="yes"/>
      <point x="544" y="282"/>
      <point x="482" y="366"/>
      <point x="337" y="366" type="curve" smooth="yes"/>
      <point x="328" y="366"/>
      <point x="286" y="369"/>
      <point x="247" y="369" type="curve" smooth="yes"/>
      <point x="220" y="369"/>
      <point x="193" y="367"/>
      <point x="178" y="363" type="curve"/>
      <point x="173" y="323" type="line"/>
      <point x="206" y="327"/>
      <point x="235" y="329"/>
      <point x="270" y="329" type="curve" smooth="yes"/>
      <point x="385" y="329"/>
      <point x="443" y="273"/>
      <point x="443" y="191" type="curve" smooth="yes"/>
      <point x="443" y="115"/>
      <point x="416" y="67"/>
      <point x="349" y="49" type="curve"/>
      <point x="310" y="49"/>
      <point x="238" y="52"/>
      <point x="192" y="66" type="curve"/>
      <point x="185" y="47"/>
      <point x="146" y="3"/>
      <point x="151" y="3" type="curve" smooth="yes"/>
      <point x="206" y="3"/>
      <point x="241" y="-1"/>
    </contour>
  </outline>
</glyph>
<glyph name="D" format="1">
  <advance width="699"/>
  <unicode hex="0044"/>
  <outline>
    <contour>
      <point x="160" y="656" type="line"/>
      <point x="121" y="656"/>
      <point x="92" y="657"/>
      <point x="33" y="660" type="curve"/>
      <point x="23" y="629" type="line"/>
      <point x="111" y="608" type="line"/>
      <point x="115" y="539"/>
      <point x="116" y="424"/>
      <point x="116" y="343" type="curve" smooth="yes"/>
      <point x="116" y="242"/>
      <point x="114" y="171"/>
      <point x="111" y="51" type="curve"/>
      <point x="23" y="30" type="line"/>
      <point x="33" y="0" type="line"/>
      <point x="74" y="1"/>
      <point x="120" y="4"/>
      <point x="155" y="3" type="curve" smooth="yes"/>
      <point x="208" y="1"/>
      <point x="225" y="2"/>
      <point x="260" y="0" type="curve"/>
      <point x="271" y="30" type="line"/>
      <point x="204" y="51" type="line"/>
      <point x="202" y="132"/>
      <point x="202" y="249"/>
      <point x="202" y="342" type="curve" smooth="yes"/>
      <point x="202" y="420"/>
      <point x="203" y="469"/>
      <point x="204" y="613" type="curve"/>
      <point x="271" y="629" type="line"/>
    </contour>
    <contour>
      <point x="160" y="656" type="curve"/>
      <point x="171" y="634" type="line"/>
      <point x="203" y="595" type="line"/>
      <point x="243" y="606"/>
      <point x="260" y="611"/>
      <point x="311" y="611" type="curve" smooth="yes"/>
      <point x="467" y="611"/>
      <point x="549" y="458"/>
      <point x="549" y="326" type="curve" smooth="yes"/>
      <point x="549" y="213"/>
      <point x="498" y="92"/>
      <point x="388" y="51" type="curve"/>
      <point x="308" y="48"/>
      <point x="256" y="57"/>
      <point x="203" y="72" type="curve"/>
      <point x="155" y="3" type="line"/>
      <point x="222" y="3"/>
      <point x="277" y="-4"/>
      <point x="312" y="-4" type="curve" smooth="yes"/>
      <point x="495" y="-4"/>
      <point x="649" y="99"/>
      <point x="649" y="334" type="curve" smooth="yes"/>
      <point x="649" y="536"/>
      <point x="514" y="664"/>
      <point x="329" y="660" type="curve" smooth="yes"/>
      <point x="159" y="656"/>
      <point x="237" y="656"/>
    </contour>
  </outline>
</glyph>
<glyph name="E" format="2">
  <advance width="564"/>
  <unicode hex="0045"/>
  <anchor x="282" y="0" name="bottom"/>
  <anchor x="492" y="-4" name="ogonek"/>
  <anchor x="282" y="660" name="top"/>
  <outline>
    <contour>
      <point x="370" y="371" type="line"/>
      <point x="324" y="369"/>
      <point x="292" y="367"/>
      <point x="260" y="367" type="curve" smooth="yes"/>
      <point x="228" y="367"/>
      <point x="197" y="369"/>
      <point x="150" y="371" type="curve"/>
      <point x="150" y="310" type="line"/>
      <point x="194" y="312"/>
      <point x="226" y="313"/>
      <point x="258" y="313" type="curve" smooth="yes"/>
      <point x="290" y="313"/>
      <point x="323" y="312"/>
      <point x="370" y="310" type="curve"/>
    </contour>
    <contour>
      <point x="404" y="460" type="curve"/>
      <point x="357" y="460" type="line"/>
      <point x="337" y="362" type="line"/>
      <point x="337" y="320" type="line"/>
      <point x="357" y="222" type="line"/>
      <point x="404" y="222" type="line"/>
      <point x="402" y="250"/>
      <point x="401" y="287"/>
      <point x="401" y="331" type="curve" smooth="yes"/>
      <point x="401" y="374"/>
      <point x="402" y="420"/>
    </contour>
    <contour>
      <point x="528" y="0" type="curve"/>
      <point x="523" y="68"/>
      <point x="519" y="124"/>
      <point x="519" y="185" type="curve"/>
      <point x="472" y="185" type="line"/>
      <point x="452" y="70" type="line"/>
      <point x="407" y="56"/>
      <point x="355" y="50"/>
      <point x="301" y="50" type="curve" smooth="yes"/>
      <point x="269" y="50"/>
      <point x="236" y="52"/>
      <point x="204" y="55" type="curve"/>
      <point x="202" y="124"/>
      <point x="202" y="202"/>
      <point x="202" y="263" type="curve" smooth="yes"/>
      <point x="202" y="362"/>
      <point x="203" y="471"/>
      <point x="204" y="601" type="curve"/>
      <point x="236" y="604"/>
      <point x="267" y="606"/>
      <point x="297" y="606" type="curve" smooth="yes"/>
      <point x="348" y="606"/>
      <point x="396" y="600"/>
      <point x="441" y="586" type="curve"/>
      <point x="461" y="474" type="line"/>
      <point x="508" y="474" type="line"/>
      <point x="509" y="525"/>
      <point x="512" y="596"/>
      <point x="516" y="660" type="curve"/>
      <point x="466" y="657"/>
      <point x="373" y="656"/>
      <point x="275" y="656" type="curve" smooth="yes"/>
      <point x="186" y="656"/>
      <point x="99" y="657"/>
      <point x="33" y="660" type="curve"/>
      <point x="23" y="629" type="line"/>
      <point x="111" y="608" type="line"/>
      <point x="115" y="539"/>
      <point x="116" y="460"/>
      <point x="116" y="376" type="curve" smooth="yes"/>
      <point x="116" y="271"/>
      <point x="114" y="159"/>
      <point x="111" y="51" type="curve"/>
      <point x="23" y="30" type="line"/>
      <point x="33" y="0" type="line"/>
      <point x="106" y="2"/>
      <point x="201" y="3"/>
      <point x="298" y="3" type="curve" smooth="yes"/>
      <point x="385" y="3"/>
      <point x="469" y="2"/>
    </contour>
  </outline>
</glyph>
<glyph name="G" format="2">
  <advance width="704"/>
  <unicode hex="0047"/>
  <outline>
    <contour>
      <point x="505" y="99" type="curve"/>
      <point x="465" y="57"/>
      <point x="427" y="47"/>
      <point x="366" y="47" type="curve" smooth="yes"/>
      <point x="221" y="47"/>
      <point x="145" y="194"/>
      <point x="145" y="339" type="curve" smooth="yes"/>
      <point x="145" y="453"/>
      <point x="193" y="567"/>
      <point x="289" y="607" type="curve"/>
      <point x="366" y="607"/>
      <point x="426" y="593"/>
      <point x="500" y="556" type="curve"/>
      <point x="520" y="442" type="line"/>
      <point x="567" y="442" type="line"/>
      <point x="576" y="504"/>
      <point x="588" y="549"/>
      <point x="602" y="610" type="curve"/>
      <point x="522" y="647"/>
      <point x="442" y="665"/>
      <point x="365" y="665" type="curve" smooth="yes"/>
      <point x="153" y="665"/>
      <point x="45" y="490"/>
      <point x="45" y="318" type="curve" smooth="yes"/>
      <point x="45" y="154"/>
      <point x="145" y="-7"/>
      <point x="348" y="-7" type="curve" smooth="yes"/>
      <point x="449" y="-7"/>
      <point x="535" y="23"/>
      <point x="600" y="48" type="curve"/>
      <point x="598" y="96"/>
      <point x="597" y="137"/>
      <point x="597" y="175" type="curve" smooth="yes"/>
      <point x="596" y="214"/>
      <point x="596" y="250"/>
      <point x="596" y="286" type="curve"/>
      <point x="683" y="306" type="line"/>
      <point x="673" y="337" type="line"/>
      <point x="618" y="334"/>
      <point x="591" y="333"/>
      <point x="547" y="333" type="curve" smooth="yes"/>
      <point x="510" y="333"/>
      <point x="483" y="334"/>
      <point x="422" y="337" type="curve"/>
      <point x="412" y="306" type="line"/>
      <point x="504" y="286" type="line"/>
      <point x="507" y="251"/>
      <point x="508" y="219"/>
      <point x="508" y="182" type="curve" smooth="yes"/>
      <point x="508" y="153"/>
      <point x="507" y="118"/>
    </contour>
  </outline>
</glyph>
<glyph name="J" format="2">
  <advance width="325"/>
  <unicode hex="004A"/>
  <outline>
    <contour>
      <point x="198" y="-11"/>
      <point x="207" y="25"/>
      <point x="207" y="197" type="curve" smooth="yes"/>
      <point x="207" y="338"/>
      <point x="205" y="497"/>
      <point x="205" y="608" type="curve"/>
      <point x="294" y="629" type="line"/>
      <point x="282" y="660" type="line"/>
      <point x="247" y="658"/>
      <point x="210" y="656"/>
      <point x="162" y="656" type="curve" smooth="yes"/>
      <point x="110" y="656"/>
      <point x="73" y="658"/>
      <point x="27" y="660" type="curve"/>
      <point x="17" y="629" type="line"/>
      <point x="113" y="608" type="line"/>
      <point x="116" y="524"/>
      <point x="121" y="368"/>
      <point x="120" y="185" type="curve" smooth="yes"/>
      <point x="119" y="53"/>
      <point x="105" y="-18"/>
      <point x="5" y="-150" type="curve"/>
      <point x="30" y="-172" type="line"/>
    </contour>
  </outline>
</glyph>
<glyph name="L" format="2">
  <advance width="564"/>
  <unicode hex="004C"/>
  <outline>
    <contour>
      <point x="528" y="0" type="curve"/>
      <point x="524" y="58"/>
      <point x="520" y="124"/>
      <point x="519" y="185" type="curve"/>
      <point x="472" y="185" type="line"/>
      <point x="452" y="70" type="line"/>
      <point x="411" y="56"/>
      <point x="353" y="50"/>
      <point x="294" y="50" type="curve" smooth="yes"/>
      <point x="263" y="50"/>
      <point x="232" y="52"/>
      <point x="204" y="55" type="curve"/>
      <point x="203" y="192"/>
      <point x="201" y="300"/>
      <point x="201" y="404" type="curve" smooth="yes"/>
      <point x="201" y="464"/>
      <point x="201" y="529"/>
      <point x="203" y="607" type="curve"/>
      <point x="318" y="629" type="line"/>
      <point x="306" y="660" type="line"/>
      <point x="239" y="658"/>
      <point x="207" y="657"/>
      <point x="150" y="657" type="curve" smooth="yes"/>
      <point x="100" y="657"/>
      <point x="74" y="658"/>
      <point x="33" y="660" type="curve"/>
      <point x="23" y="629" type="line"/>
      <point x="111" y="608" type="line"/>
      <point x="114" y="496"/>
      <point x="115" y="405"/>
      <point x="115" y="314" type="curve" smooth="yes"/>
      <point x="115" y="232"/>
      <point x="114" y="149"/>
      <point x="111" y="51" type="curve"/>
      <point x="23" y="30" type="line"/>
      <point x="33" y="0" type="line"/>
      <point x="74" y="1"/>
      <point x="118" y="3"/>
      <point x="157" y="3" type="curve" smooth="yes"/>
      <point x="353" y="3"/>
      <point x="424" y="2"/>
    </contour>
  </outline>
</glyph>
<glyph name="M" format="2">
  <advance width="942"/>
  <unicode hex="004D"/>
  <outline>
    <contour>
      <point x="708" y="660" type="line"/>
      <point x="617" y="429"/>
      <point x="547" y="266"/>
      <point x="468" y="108" type="curve"/>
      <point x="449" y="-9" type="line"/>
      <point x="478" y="-9" type="line"/>
      <point x="572" y="215"/>
      <point x="658" y="390"/>
      <point x="759" y="602" type="curve"/>
    </contour>
    <contour>
      <point x="249" y="660" type="curve"/>
      <point x="217" y="658"/>
      <point x="201" y="657"/>
      <point x="166" y="657" type="curve" smooth="yes"/>
      <point x="117" y="657"/>
      <point x="92" y="658"/>
      <point x="59" y="660" type="curve"/>
      <point x="47" y="629" type="line"/>
      <point x="142" y="608" type="line"/>
      <point x="140" y="449"/>
      <point x="126" y="228"/>
      <point x="105" y="51" type="curve"/>
      <point x="5" y="30" type="line"/>
      <point x="16" y="0" type="line"/>
      <point x="51" y="2"/>
      <point x="89" y="3"/>
      <point x="136" y="3" type="curve" smooth="yes"/>
      <point x="188" y="3"/>
      <point x="220" y="2"/>
      <point x="270" y="0" type="curve"/>
      <point x="281" y="30" type="line"/>
      <point x="180" y="51" type="line"/>
      <point x="179" y="224"/>
      <point x="192" y="454"/>
      <point x="204" y="608" type="curve"/>
      <point x="173" y="590" type="line"/>
      <point x="270" y="380"/>
      <point x="337" y="240"/>
      <point x="449" y="-9" type="curve"/>
      <point x="478" y="-9" type="line"/>
      <point x="491" y="137" type="line"/>
      <point x="404" y="302"/>
      <point x="322" y="494"/>
    </contour>
    <contour>
      <point x="880" y="660" type="line"/>
      <point x="850" y="659"/>
      <point x="821" y="658"/>
      <point x="793" y="658" type="curve" smooth="yes"/>
      <point x="765" y="658"/>
      <point x="737" y="659"/>
      <point x="708" y="660" type="curve"/>
      <point x="711" y="608" type="line"/>
      <point x="731" y="417"/>
      <point x="740" y="267"/>
      <point x="749" y="51" type="curve"/>
      <point x="660" y="30" type="line"/>
      <point x="670" y="0" type="line"/>
      <point x="710" y="1"/>
      <point x="751" y="3"/>
      <point x="797" y="3" type="curve" smooth="yes"/>
      <point x="845" y="3"/>
      <point x="883" y="2"/>
      <point x="918" y="0" type="curve"/>
      <point x="930" y="30" type="line"/>
      <point x="841" y="51" type="line"/>
      <point x="825" y="271"/>
      <point x="819" y="380"/>
      <point x="803" y="608" type="curve"/>
      <point x="891" y="629" type="line"/>
    </contour>
  </outline>
</glyph>
<glyph name="O" format="2">
  <advance width="673"/>
  <unicode hex="004F"/>
  <anchor x="337" y="660" name="top"/>
  <outline>
    <contour>
      <point x="329" y="-6" type="curve" smooth="yes"/>
      <point x="532" y="-6"/>
      <point x="633" y="169"/>
      <point x="633" y="339" type="curve" smooth="yes"/>
      <point x="633" y="505"/>
      <point x="540" y="665"/>
      <point x="347" y="665" type="curve" smooth="yes"/>
      <point x="137" y="665"/>
      <point x="40" y="500"/>
      <point x="40" y="332" type="curve" smooth="yes"/>
      <point x="40" y="164"/>
      <point x="139" y="-6"/>
    </contour>
    <contour>
      <point x="353" y="47" type="curve" smooth="yes"/>
      <point x="208" y="47"/>
      <point x="137" y="205"/>
      <point x="137" y="355" type="curve" smooth="yes"/>
      <point x="137" y="487"/>
      <point x="191" y="614"/>
      <point x="322" y="614" type="curve" smooth="yes"/>
      <point x="467" y="614"/>
      <point x="537" y="457"/>
      <point x="537" y="307" type="curve" smooth="yes"/>
      <point x="537" y="175"/>
      <point x="482" y="47"/>
    </contour>
  </outline>
</glyph>
<glyph name="Q" format="2">
  <advance width="688"/>
  <unicode hex="0051"/>
  <outline>
    <contour>
      <point x="231" y="-15" type="curve" smooth="yes"/>
      <point x="188" y="-15"/>
      <point x="131" y="-39"/>
      <point x="75" y="-78" type="curve"/>
      <point x="94" y="-105" type="line"/>
      <point x="141" y="-80"/>
      <point x="175" y="-71"/>
      <point x="209" y="-71" type="curve" smooth="yes"/>
      <point x="293" y="-71"/>
      <point x="391" y="-204"/>
      <point x="497" y="-204" type="curve" smooth="yes"/>
      <point x="554" y="-204"/>
      <point x="612" y="-167"/>
      <point x="673" y="-50" type="curve"/>
      <point x="648" y="-33" type="line"/>
      <point x="609" y="-74"/>
      <point x="597" y="-89"/>
      <point x="556" y="-111" type="curve"/>
      <point x="441" y="-111"/>
      <point x="335" y="-15"/>
    </contour>
    <component base="O"/>
  </outline>
</glyph>
<glyph name="R" format="1">
  <advance width="637"/>
  <unicode hex="0052"/>
  <outline>
    <contour>
      <point x="298" y="660" type="curve" smooth="yes"/>
      <point x="244" y="660"/>
      <point x="217" y="656"/>
      <point x="155" y="656" type="curve" smooth="yes"/>
      <point x="124" y="656"/>
      <point x="74" y="659"/>
      <point x="33" y="660" type="curve"/>
      <point x="23" y="629" type="line"/>
      <point x="111" y="608" type="line"/>
      <point x="116" y="541"/>
      <point x="117" y="461"/>
      <point x="117" y="400" type="curve" smooth="yes"/>
      <point x="117" y="290"/>
      <point x="115" y="168"/>
      <point x="111" y="51" type="curve"/>
      <point x="23" y="30" type="line"/>
      <point x="33" y="0" type="line"/>
      <point x="68" y="1"/>
      <point x="108" y="3"/>
      <point x="155" y="3" type="curve" smooth="yes"/>
      <point x="202" y="3"/>
      <point x="242" y="2"/>
      <point x="281" y="0" type="curve"/>
      <point x="292" y="30" type="line"/>
      <point x="204" y="51" type="line"/>
      <point x="202" y="128"/>
      <point x="202" y="181"/>
      <point x="202" y="246" type="curve" smooth="yes"/>
      <point x="202" y="359"/>
      <point x="203" y="457"/>
      <point x="204" y="601" type="curve"/>
      <point x="220" y="607"/>
      <point x="252" y="612"/>
      <point x="279" y="612" type="curve" smooth="yes"/>
      <point x="361" y="612"/>
      <point x="409" y="544"/>
      <point x="409" y="477" type="curve" smooth="yes"/>
      <point x="409" y="406"/>
      <point x="381" y="357"/>
      <point x="334" y="336" type="curve"/>
      <point x="318" y="334"/>
      <point x="303" y="333"/>
      <point x="289" y="333" type="curve" smooth="yes"/>
      <point x="254" y="333"/>
      <point x="223" y="339"/>
      <point x="185" y="350" type="curve"/>
      <point x="185" y="299" type="line"/>
      <point x="230" y="290"/>
      <point x="253" y="287"/>
      <point x="288" y="287" type="curve" smooth="yes"/>
      <point x="435" y="287"/>
      <point x="506" y="379"/>
      <point x="506" y="484" type="curve" smooth="yes"/>
      <point x="506" y="573"/>
      <point x="438" y="660"/>
    </contour>
    <contour>
      <point x="352" y="311" type="curve"/>
      <point x="342" y="311"/>
      <point x="287" y="315"/>
      <point x="263" y="290" type="curve"/>
      <point x="294" y="243"/>
      <point x="393" y="100"/>
      <point x="448" y="0" type="curve"/>
      <point x="475" y="2"/>
      <point x="495" y="2"/>
      <point x="528" y="2" type="curve" smooth="yes"/>
      <point x="563" y="2"/>
      <point x="595" y="2"/>
      <point x="619" y="0" type="curve"/>
      <point x="635" y="30" type="line"/>
      <point x="542" y="51" type="line"/>
      <point x="475" y="134"/>
      <point x="381" y="258"/>
    </contour>
  </outline>
</glyph>
<glyph name="T" format="2">
  <advance width="628"/>
  <unicode hex="0054"/>
  <anchor x="311" y="0" name="bottom"/>
  <anchor x="315" y="330" name="center"/>
  <anchor x="315" y="660" name="top"/>
  <outline>
    <contour>
      <point x="362" y="625" type="curve"/>
      <point x="264" y="625" type="line"/>
      <point x="267" y="559"/>
      <point x="269" y="387"/>
      <point x="269" y="311" type="curve" smooth="yes"/>
      <point x="269" y="207"/>
      <point x="266" y="130"/>
      <point x="264" y="55" type="curve"/>
      <point x="152" y="30" type="line"/>
      <point x="162" y="0" type="line"/>
      <point x="203" y="1"/>
      <point x="252" y="4"/>
      <point x="309" y="4" type="curve" smooth="yes"/>
      <point x="366" y="4"/>
      <point x="427" y="2"/>
      <point x="463" y="0" type="curve"/>
      <point x="474" y="30" type="line"/>
      <point x="362" y="55" type="line"/>
      <point x="360" y="130"/>
      <point x="360" y="205"/>
      <point x="360" y="309" type="curve" smooth="yes"/>
      <point x="360" y="414"/>
      <point x="361" y="542"/>
    </contour>
    <contour>
      <point x="592" y="660" type="curve"/>
      <point x="534" y="657"/>
      <point x="419" y="656"/>
      <point x="314" y="656" type="curve"/>
      <point x="208" y="656"/>
      <point x="106" y="657"/>
      <point x="38" y="660" type="curve"/>
      <point x="44" y="587"/>
      <point x="47" y="536"/>
      <point x="48" y="475" type="curve"/>
      <point x="94" y="475" type="line"/>
      <point x="114" y="604" type="line"/>
      <point x="136" y="605"/>
      <point x="162" y="606"/>
      <point x="189" y="606" type="curve" smooth="yes"/>
      <point x="235" y="606"/>
      <point x="281" y="604"/>
      <point x="315" y="599" type="curve"/>
      <point x="347" y="605"/>
      <point x="389" y="607"/>
      <point x="432" y="607" type="curve" smooth="yes"/>
      <point x="463" y="607"/>
      <point x="492" y="606"/>
      <point x="516" y="604" type="curve"/>
      <point x="536" y="475" type="line"/>
      <point x="583" y="475" type="line"/>
      <point x="583" y="536"/>
      <point x="587" y="591"/>
    </contour>
  </outline>
</glyph>
<glyph name="U" format="2">
  <advance width="721"/>
  <unicode hex="0055"/>
  <anchor x="362" y="-6" name="bottom"/>
  <anchor x="393" y="10" name="ogonek"/>
  <anchor x="361" y="660" name="top"/>
  <anchor x="701" y="660" name="topright"/>
  <outline>
    <contour>
      <point x="203" y="608" type="curve"/>
      <point x="291" y="629" type="line"/>
      <point x="280" y="660" type="line"/>
      <point x="240" y="657"/>
      <point x="205" y="656"/>
      <point x="157" y="656" type="curve" smooth="yes"/>
      <point x="112" y="656"/>
      <point x="74" y="658"/>
      <point x="33" y="660" type="curve"/>
      <point x="23" y="629" type="line"/>
      <point x="111" y="608" type="line"/>
      <point x="113" y="460"/>
      <point x="108" y="296"/>
      <point x="118" y="203" type="curve" smooth="yes"/>
      <point x="135" y="47"/>
      <point x="246" y="-6"/>
      <point x="362" y="-6" type="curve" smooth="yes"/>
      <point x="470" y="-6"/>
      <point x="591" y="52"/>
      <point x="610" y="219" type="curve" smooth="yes"/>
      <point x="621" y="317"/>
      <point x="618" y="460"/>
      <point x="624" y="608" type="curve"/>
      <point x="700" y="629" type="line"/>
      <point x="689" y="660" type="line"/>
      <point x="653" y="658"/>
      <point x="617" y="656"/>
      <point x="586" y="656" type="curve" smooth="yes"/>
      <point x="555" y="656"/>
      <point x="521" y="657"/>
      <point x="480" y="660" type="curve"/>
      <point x="472" y="629" type="line"/>
      <point x="551" y="608" type="line"/>
      <point x="561" y="458"/>
      <point x="561" y="273"/>
      <point x="550" y="209" type="curve" smooth="yes"/>
      <point x="531" y="98"/>
      <point x="450" y="51"/>
      <point x="381" y="51" type="curve" smooth="yes"/>
      <point x="308" y="51"/>
      <point x="226" y="90"/>
      <point x="209" y="202" type="curve" smooth="yes"/>
      <point x="200" y="264"/>
      <point x="199" y="447"/>
    </contour>
  </outline>
</glyph>
<glyph name="V" format="2">
  <advance width="701"/>
  <unicode hex="0056"/>
  <outline>
    <contour>
      <point x="339" y="-9" type="curve"/>
      <point x="371" y="-9"/>
      <point x="406" y="92"/>
      <point x="393" y="119" type="curve"/>
      <point x="312" y="284"/>
      <point x="222" y="507"/>
      <point x="185" y="610" type="curve"/>
      <point x="261" y="629" type="line"/>
      <point x="249" y="660" type="line"/>
      <point x="214" y="658"/>
      <point x="154" y="657"/>
      <point x="129" y="657" type="curve" smooth="yes"/>
      <point x="88" y="657"/>
      <point x="51" y="658"/>
      <point x="11" y="660" type="curve"/>
      <point x="0" y="629" type="line"/>
      <point x="75" y="610" type="line"/>
      <point x="159" y="433"/>
      <point x="253" y="210"/>
    </contour>
    <contour>
      <point x="339" y="-9" type="curve"/>
      <point x="381" y="-9" type="line"/>
      <point x="448" y="183"/>
      <point x="550" y="444"/>
      <point x="617" y="610" type="curve"/>
      <point x="694" y="629" type="line"/>
      <point x="683" y="660" type="line"/>
      <point x="647" y="658"/>
      <point x="621" y="657"/>
      <point x="585" y="657" type="curve" smooth="yes"/>
      <point x="544" y="657"/>
      <point x="518" y="658"/>
      <point x="475" y="660" type="curve"/>
      <point x="465" y="629" type="line"/>
      <point x="541" y="610" type="line"/>
      <point x="482" y="407"/>
      <point x="428" y="250"/>
      <point x="362" y="109" type="curve"/>
      <point x="352" y="37"/>
      <point x="352" y="26"/>
    </contour>
  </outline>
</glyph>
<glyph name="X" format="2">
  <advance width="684"/>
  <unicode hex="0058"/>
  <outline>
    <contour>
      <point x="282" y="660" type="line"/>
      <point x="246" y="659"/>
      <point x="199" y="657"/>
      <point x="154" y="657" type="curve" smooth="yes"/>
      <point x="111" y="657"/>
      <point x="74" y="659"/>
      <point x="34" y="660" type="curve"/>
      <point x="23" y="629" type="line"/>
      <point x="101" y="611" type="line"/>
      <point x="208" y="460"/>
      <point x="356" y="233"/>
      <point x="471" y="46" type="curve"/>
      <point x="394" y="30" type="line"/>
      <point x="406" y="0" type="line"/>
      <point x="441" y="2"/>
      <point x="491" y="3"/>
      <point x="531" y="3" type="curve" smooth="yes"/>
      <point x="569" y="3"/>
      <point x="612" y="1"/>
      <point x="652" y="0" type="curve"/>
      <point x="663" y="30" type="line"/>
      <point x="584" y="50" type="line"/>
      <point x="436" y="255"/>
      <point x="275" y="505"/>
      <point x="215" y="613" type="curve"/>
      <point x="293" y="629" type="line"/>
    </contour>
    <contour>
      <point x="352" y="300" type="curve"/>
      <point x="320" y="344" type="line"/>
      <point x="247" y="235"/>
      <point x="169" y="124"/>
      <point x="113" y="50" type="curve"/>
      <point x="24" y="30" type="line"/>
      <point x="35" y="0" type="line"/>
      <point x="71" y="2"/>
      <point x="99" y="3"/>
      <point x="142" y="3" type="curve" smooth="yes"/>
      <point x="181" y="3"/>
      <point x="222" y="2"/>
      <point x="265" y="0" type="curve"/>
      <point x="275" y="30" type="line"/>
      <point x="187" y="48" type="line"/>
      <point x="230" y="116"/>
      <point x="289" y="206"/>
    </contour>
    <contour>
      <point x="328" y="344" type="curve"/>
      <point x="360" y="300" type="line"/>
      <point x="432" y="406"/>
      <point x="508" y="518"/>
      <point x="571" y="608" type="curve"/>
      <point x="648" y="629" type="line"/>
      <point x="637" y="660" type="line"/>
      <point x="601" y="658"/>
      <point x="570" y="657"/>
      <point x="534" y="657" type="curve" smooth="yes"/>
      <point x="498" y="657"/>
      <point x="468" y="658"/>
      <point x="426" y="660" type="curve"/>
      <point x="415" y="629" type="line"/>
      <point x="495" y="610" type="line"/>
      <point x="458" y="543"/>
      <point x="396" y="444"/>
    </contour>
  </outline>
</glyph>
<glyph name="Y" format="2">
  <advance width="657"/>
  <unicode hex="0059"/>
  <outline>
    <contour>
      <point x="272" y="660" type="line"/>
      <point x="236" y="659"/>
      <point x="193" y="657"/>
      <point x="149" y="657" type="curve" smooth="yes"/>
      <point x="111" y="657"/>
      <point x="74" y="659"/>
      <point x="33" y="660" type="curve"/>
      <point x="23" y="629" type="line"/>
      <point x="101" y="611" type="line"/>
      <point x="156" y="513"/>
      <point x="247" y="343"/>
      <point x="308" y="218" type="curve"/>
      <point x="381" y="282" type="line"/>
      <point x="307" y="402"/>
      <point x="237" y="543"/>
      <point x="205" y="613" type="curve"/>
      <point x="284" y="629" type="line"/>
    </contour>
    <contour>
      <point x="379" y="275" type="curve"/>
      <point x="289" y="275" type="line"/>
      <point x="293" y="180"/>
      <point x="289" y="129"/>
      <point x="287" y="51" type="curve"/>
      <point x="198" y="30" type="line"/>
      <point x="208" y="0" type="line"/>
      <point x="248" y="2"/>
      <point x="276" y="3"/>
      <point x="329" y="3" type="curve" smooth="yes"/>
      <point x="383" y="3"/>
      <point x="421" y="2"/>
      <point x="456" y="0" type="curve"/>
      <point x="467" y="30" type="line"/>
      <point x="379" y="51" type="line"/>
      <point x="376" y="126"/>
      <point x="376" y="189"/>
    </contour>
    <contour>
      <point x="624" y="660" type="line"/>
      <point x="589" y="658"/>
      <point x="557" y="657"/>
      <point x="522" y="657" type="curve" smooth="yes"/>
      <point x="487" y="657"/>
      <point x="456" y="658"/>
      <point x="415" y="660" type="curve"/>
      <point x="404" y="629" type="line"/>
      <point x="479" y="610" type="line"/>
      <point x="430" y="488"/>
      <point x="368" y="358"/>
      <point x="315" y="261" type="curve"/>
      <point x="345" y="207" type="line"/>
      <point x="408" y="331"/>
      <point x="483" y="485"/>
      <point x="555" y="608" type="curve"/>
      <point x="636" y="629" type="line"/>
    </contour>
  </outline>
</glyph>
<glyph name="bracketleft" format="2">
  <advance width="309"/>
  <unicode hex="005B"/>
  <outline>
    <contour>
      <point x="261" y="10" type="line"/>
      <point x="47" y="10" type="line"/>
      <point x="26" y="-30" type="line"/>
      <point x="261" y="-30" type="line"/>
    </contour>
    <contour>
      <point x="261" y="763" type="line"/>
      <point x="26" y="763" type="line"/>
      <point x="47" y="725" type="line"/>
      <point x="261" y="725" type="line"/>
    </contour>
    <contour>
      <point x="26" y="763" type="line"/>
      <point x="29" y="631"/>
      <point x="31" y="499"/>
      <point x="31" y="367" type="curve" smooth="yes"/>
      <point x="31" y="235"/>
      <point x="29" y="103"/>
      <point x="26" y="-30" type="curve"/>
      <point x="114" y="-11" type="line"/>
      <point x="112" y="114"/>
      <point x="110" y="240"/>
      <point x="110" y="366" type="curve" smooth="yes"/>
      <point x="110" y="491"/>
      <point x="112" y="617"/>
      <point x="114" y="742" type="curve"/>
    </contour>
  </outline>
</glyph>
<glyph name="backslash" format="1">
  <advance width="365"/>
  <unicode hex="005C"/>
  <outline>
    <contour>
      <point x="0" y="763" type="line"/>
      <point x="300" y="-138" type="line"/>
      <point x="365" y="-138" type="line"/>
      <point x="65" y="763" type="line"/>
    </contour>
  </outline>
</glyph>
<glyph name="a" format="2">
  <advance width="464"/>
  <unicode hex="0061"/>
  <anchor x="418" y="40" name="ogonek"/>
  <anchor x="225" y="430" name="top"/>
  <outline>
    <contour>
      <point x="257" y="435" type="curve" smooth="yes"/>
      <point x="198" y="435"/>
      <point x="121" y="405"/>
      <point x="54" y="351" type="curve"/>
      <point x="74" y="318" type="line"/>
      <point x="130" y="349"/>
      <point x="180" y="371"/>
      <point x="232" y="376" type="curve"/>
      <point x="277" y="365"/>
      <point x="292" y="321"/>
      <point x="292" y="267" type="curve" smooth="yes"/>
      <point x="292" y="232"/>
      <point x="289" y="176"/>
      <point x="289" y="115" type="curve" smooth="yes"/>
      <point x="289" y="55"/>
      <point x="298" y="-4"/>
      <point x="348" y="-4" type="curve"/>
      <point x="379" y="-4"/>
      <point x="434" y="28"/>
      <point x="458" y="47" type="curve"/>
      <point x="445" y="74" type="line"/>
      <point x="426" y="67"/>
      <point x="412" y="62"/>
      <point x="401" y="62" type="curve" smooth="yes"/>
      <point x="379" y="62"/>
      <point x="374" y="84"/>
      <point x="374" y="146" type="curve" smooth="yes"/>
      <point x="374" y="196"/>
      <point x="379" y="250"/>
      <point x="379" y="297" type="curve" smooth="yes"/>
      <point x="379" y="374"/>
      <point x="332" y="435"/>
    </contour>
    <contour>
      <point x="330" y="249" type="line"/>
      <point x="248" y="231"/>
      <point x="187" y="219"/>
      <point x="148" y="208" type="curve" smooth="yes"/>
      <point x="70" y="185"/>
      <point x="44" y="162"/>
      <point x="44" y="103" type="curve" smooth="yes"/>
      <point x="44" y="48"/>
      <point x="84" y="-4"/>
      <point x="143" y="-4" type="curve" smooth="yes"/>
      <point x="193" y="-4"/>
      <point x="269" y="37"/>
      <point x="312" y="86" type="curve"/>
      <point x="321" y="142" type="line"/>
      <point x="274" y="94"/>
      <point x="225" y="63"/>
      <point x="181" y="63" type="curve" smooth="yes"/>
      <point x="152" y="63"/>
      <point x="132" y="84"/>
      <point x="132" y="116" type="curve" smooth="yes"/>
      <point x="132" y="153"/>
      <point x="156" y="163"/>
      <point x="198" y="174" type="curve" smooth="yes"/>
      <point x="225" y="181"/>
      <point x="260" y="188"/>
      <point x="303" y="198" type="curve"/>
    </contour>
  </outline>
</glyph>
<glyph name="b" format="2">
  <advance width="533"/>
  <unicode hex="0062"/>
  <outline>
    <contour>
      <point x="176" y="745" type="curve"/>
      <point x="115" y="733"/>
      <point x="50" y="728"/>
      <point x="4" y="725" type="curve"/>
      <point x="15" y="696" type="line"/>
      <point x="87" y="683" type="line"/>
      <point x="91" y="583"/>
      <point x="94" y="483"/>
      <point x="94" y="428" type="curve" smooth="yes"/>
      <point x="94" y="337"/>
      <point x="93" y="74"/>
      <point x="91" y="0" type="curve"/>
      <point x="130" y="0" type="line"/>
      <point x="143" y="19"/>
      <point x="155" y="38"/>
      <point x="171" y="63" type="curve"/>
      <point x="179" y="82" type="line"/>
      <point x="177" y="177"/>
      <point x="177" y="239"/>
      <point x="177" y="347" type="curve" smooth="yes"/>
      <point x="177" y="450"/>
      <point x="175" y="525"/>
      <point x="175" y="629" type="curve" smooth="yes"/>
      <point x="175" y="668"/>
      <point x="175" y="707"/>
    </contour>
    <contour>
      <point x="322" y="436" type="curve" smooth="yes"/>
      <point x="233" y="436"/>
      <point x="158" y="356"/>
      <point x="150" y="278" type="curve"/>
      <point x="177" y="224" type="line"/>
      <point x="176" y="306"/>
      <point x="232" y="368"/>
      <point x="285" y="383" type="curve"/>
      <point x="374" y="372"/>
      <point x="408" y="299"/>
      <point x="408" y="207" type="curve" smooth="yes"/>
      <point x="408" y="128"/>
      <point x="369" y="51"/>
      <point x="293" y="51" type="curve" smooth="yes"/>
      <point x="241" y="51"/>
      <point x="186" y="78"/>
      <point x="149" y="155" type="curve"/>
      <point x="132" y="114" type="line"/>
      <point x="170" y="36"/>
      <point x="239" y="-6"/>
      <point x="309" y="-6" type="curve" smooth="yes"/>
      <point x="405" y="-6"/>
      <point x="498" y="68"/>
      <point x="498" y="224" type="curve" smooth="yes"/>
      <point x="498" y="364"/>
      <point x="422" y="436"/>
    </contour>
  </outline>
</glyph>
<glyph name="d" format="2">
  <advance width="534"/>
  <unicode hex="0064"/>
  <anchor x="242" y="222" name="center"/>
  <anchor x="500" y="575" name="topright"/>
  <outline>
    <contour>
      <point x="441" y="745" type="curve"/>
      <point x="381" y="732"/>
      <point x="315" y="728"/>
      <point x="269" y="726" type="curve"/>
      <point x="280" y="696" type="line"/>
      <point x="352" y="683" type="line"/>
      <point x="357" y="542"/>
      <point x="355" y="457"/>
      <point x="356" y="366" type="curve" smooth="yes"/>
      <point x="356" y="338"/>
      <point x="357" y="312"/>
      <point x="357" y="288" type="curve" smooth="yes"/>
      <point x="357" y="221"/>
      <point x="357" y="156"/>
      <point x="355" y="88" type="curve"/>
      <point x="358" y="58"/>
      <point x="364" y="30"/>
      <point x="368" y="-1" type="curve"/>
      <point x="386" y="0"/>
      <point x="404" y="2"/>
      <point x="423" y="2" type="curve" smooth="yes"/>
      <point x="450" y="2"/>
      <point x="476" y="2"/>
      <point x="512" y="0" type="curve"/>
      <point x="523" y="27" type="line"/>
      <point x="444" y="48" type="line"/>
      <point x="440" y="128"/>
      <point x="438" y="274"/>
      <point x="438" y="429" type="curve" smooth="yes"/>
      <point x="438" y="545"/>
      <point x="439" y="645"/>
    </contour>
    <contour>
      <point x="364" y="395"/>
      <point x="296" y="435"/>
      <point x="227" y="435" type="curve" smooth="yes"/>
      <point x="133" y="435"/>
      <point x="35" y="360"/>
      <point x="35" y="216" type="curve" smooth="yes"/>
      <point x="35" y="62"/>
      <point x="129" y="-7"/>
      <point x="223" y="-7" type="curve" smooth="yes"/>
      <point x="322" y="-7"/>
      <point x="390" y="69"/>
      <point x="419" y="181" type="curve"/>
      <point x="398" y="228" type="line"/>
      <point x="375" y="120"/>
      <point x="322" y="49"/>
      <point x="249" y="49" type="curve" smooth="yes"/>
      <point x="172" y="49"/>
      <point x="133" y="139"/>
      <point x="133" y="227" type="curve" smooth="yes"/>
      <point x="133" y="294"/>
      <point x="155" y="360"/>
      <point x="203" y="386" type="curve"/>
      <point x="277" y="391"/>
      <point x="350" y="332"/>
      <point x="357" y="276" type="curve"/>
      <point x="389" y="311" type="line"/>
    </contour>
  </outline>
</glyph>
<glyph name="e" format="1">
  <advance width="446"/>
  <unicode hex="0065"/>
  <outline>
    <contour>
      <point x="230" y="436" type="curve" smooth="yes"/>
      <point x="99" y="436"/>
      <point x="33" y="323"/>
      <point x="33" y="211" type="curve" smooth="yes"/>
      <point x="33" y="100"/>
      <point x="98" y="-11"/>
      <point x="240" y="-11" type="curve" smooth="yes"/>
      <point x="313" y="-11"/>
      <point x="363" y="21"/>
      <point x="402" y="58" type="curve"/>
      <point x="386" y="90" type="line"/>
      <point x="349" y="62"/>
      <point x="310" y="49"/>
      <point x="275" y="49" type="curve" smooth="yes"/>
      <point x="192" y="49"/>
      <point x="124" y="120"/>
      <point x="124" y="235" type="curve" smooth="yes"/>
      <point x="124" y="301"/>
      <point x="148" y="365"/>
      <point x="201" y="393" type="curve"/>
      <point x="288" y="393"/>
      <point x="311" y="323"/>
      <point x="312" y="293" type="curve"/>
      <point x="237" y="284"/>
      <point x="110" y="284"/>
      <point x="97" y="285" type="curve"/>
      <point x="97" y="244" type="line"/>
      <point x="96" y="244"/>
      <point x="150" y="243"/>
      <point x="214" y="243" type="curve" smooth="yes"/>
      <point x="286" y="243"/>
      <point x="371" y="244"/>
      <point x="413" y="250" type="curve"/>
      <point x="413" y="355"/>
      <point x="347" y="436"/>
    </contour>
    <contour>
      <point x="230" y="0" type="move" name="bottom"/>
    </contour>
    <contour>
      <point x="363" y="51" type="move" name="ogonek"/>
    </contour>
    <contour>
      <point x="238" y="430" type="move" name="top"/>
    </contour>
  </outline>
</glyph>
<glyph name="f" format="1">
  <advance width="279"/>
  <unicode hex="0066"/>
  <outline>
    <contour>
      <point x="97" y="464" type="curve" smooth="yes"/>
      <point x="90" y="320"/>
      <point x="96" y="182"/>
      <point x="93" y="48" type="curve"/>
      <point x="14" y="27" type="line"/>
      <point x="24" y="0" type="line"/>
      <point x="65" y="1"/>
      <point x="98" y="2"/>
      <point x="138" y="3" type="curve" smooth="yes"/>
      <point x="186" y="2"/>
      <point x="241" y="2"/>
      <point x="276" y="0" type="curve"/>
      <point x="287" y="27" type="line"/>
      <point x="182" y="51" type="line"/>
      <point x="179" y="185"/>
      <point x="179" y="429"/>
      <point x="179" y="465" type="curve" smooth="yes"/>
      <point x="179" y="579"/>
      <point x="201" y="667"/>
      <point x="265" y="693" type="curve"/>
      <point x="303" y="685"/>
      <point x="329" y="659"/>
      <point x="341" y="616" type="curve"/>
      <point x="370" y="616" type="line"/>
      <point x="390" y="643"/>
      <point x="403" y="674"/>
      <point x="403" y="698" type="curve"/>
      <point x="395" y="721"/>
      <point x="357" y="745"/>
      <point x="317" y="745" type="curve" smooth="yes"/>
      <point x="186" y="745"/>
      <point x="105" y="615"/>
    </contour>
    <contour>
      <point x="21" y="418" type="line"/>
      <point x="9" y="382" type="line"/>
      <point x="130" y="378"/>
      <point x="197" y="372"/>
      <point x="286" y="360" type="curve"/>
      <point x="278" y="418" type="line"/>
    </contour>
  </outline>
</glyph>
<glyph name="g" format="1">
  <advance width="455"/>
  <unicode hex="0067"/>
  <outline>
    <contour>
      <point x="135" y="183" type="curve"/>
      <point x="177" y="171" type="line"/>
      <point x="149" y="137"/>
      <point x="149" y="108"/>
      <point x="149" y="95" type="curve" smooth="yes"/>
      <point x="149" y="56"/>
      <point x="191" y="50"/>
      <point x="241" y="50" type="curve" smooth="yes"/>
      <point x="383" y="50"/>
      <point x="428" y="4"/>
      <point x="428" y="-75" type="curve" smooth="yes"/>
      <point x="428" y="-199"/>
      <point x="300" y="-264"/>
      <point x="186" y="-264" type="curve" smooth="yes"/>
      <point x="96" y="-264"/>
      <point x="15" y="-224"/>
      <point x="15" y="-135" type="curve" smooth="yes"/>
      <point x="15" y="-57"/>
      <point x="97" y="1"/>
      <point x="119" y="17" type="curve"/>
      <point x="129" y="17"/>
      <point x="143" y="12"/>
      <point x="154" y="4" type="curve"/>
      <point x="140" y="-15"/>
      <point x="94" y="-36"/>
      <point x="94" y="-93" type="curve" smooth="yes"/>
      <point x="94" y="-169"/>
      <point x="168" y="-207"/>
      <point x="240" y="-207" type="curve" smooth="yes"/>
      <point x="306" y="-207"/>
      <point x="369" y="-174"/>
      <point x="369" y="-109" type="curve" smooth="yes"/>
      <point x="369" y="-59"/>
      <point x="321" y="-22"/>
      <point x="208" y="-22" type="curve" smooth="yes"/>
      <point x="80" y="-22"/>
      <point x="61" y="17"/>
      <point x="61" y="56" type="curve"/>
      <point x="102" y="124"/>
      <point x="115" y="145"/>
    </contour>
    <contour>
      <point x="178" y="398" type="curve"/>
      <point x="141" y="378"/>
      <point x="127" y="338"/>
      <point x="127" y="299" type="curve" smooth="yes"/>
      <point x="127" y="238"/>
      <point x="164" y="177"/>
      <point x="234" y="178" type="curve" smooth="yes"/>
      <point x="277" y="189"/>
      <point x="296" y="233"/>
      <point x="296" y="277" type="curve" smooth="yes"/>
      <point x="296" y="338"/>
      <point x="257" y="400"/>
    </contour>
    <contour>
      <point x="207" y="436" type="curve" smooth="yes"/>
      <point x="319" y="436"/>
      <point x="382" y="364"/>
      <point x="382" y="289" type="curve" smooth="yes"/>
      <point x="382" y="214"/>
      <point x="322" y="139"/>
      <point x="202" y="139" type="curve" smooth="yes"/>
      <point x="102" y="139"/>
      <point x="42" y="209"/>
      <point x="42" y="283" type="curve" smooth="yes"/>
      <point x="42" y="357"/>
      <point x="99" y="436"/>
    </contour>
    <contour>
      <point x="454" y="421" type="curve"/>
      <point x="455" y="410"/>
      <point x="455" y="372"/>
      <point x="455" y="353" type="curve"/>
      <point x="390" y="372"/>
      <point x="370" y="376"/>
      <point x="324" y="382" type="curve"/>
      <point x="288" y="413" type="line"/>
      <point x="352" y="420"/>
      <point x="419" y="421"/>
    </contour>
    <contour>
      <point x="208" y="430" type="move" name="top"/>
    </contour>
  </outline>
</glyph>
<glyph name="h" format="2">
  <advance width="548"/>
  <unicode hex="0068"/>
  <anchor x="277" y="191" name="center"/>
  <anchor x="275" y="430" name="top"/>
  <outline>
    <contour>
      <point x="176" y="745" type="curve"/>
      <point x="115" y="733"/>
      <point x="50" y="728"/>
      <point x="4" y="725" type="curve"/>
      <point x="15" y="696" type="line"/>
      <point x="87" y="683" type="line"/>
      <point x="91" y="583"/>
      <point x="94" y="446"/>
      <point x="94" y="290" type="curve" smooth="yes"/>
      <point x="94" y="206"/>
      <point x="93" y="123"/>
      <point x="91" y="48" type="curve"/>
      <point x="11" y="27" type="line"/>
      <point x="22" y="0" type="line"/>
      <point x="62" y="1"/>
      <point x="96" y="2"/>
      <point x="136" y="3" type="curve" smooth="yes"/>
      <point x="183" y="2"/>
      <point x="210" y="2"/>
      <point x="243" y="0" type="curve"/>
      <point x="255" y="27" type="line"/>
      <point x="179" y="48" type="line"/>
      <point x="174" y="264" type="line"/>
      <point x="175" y="426"/>
      <point x="176" y="677"/>
    </contour>
    <contour>
      <point x="325" y="436" type="curve" smooth="yes"/>
      <point x="234" y="436"/>
      <point x="144" y="305"/>
      <point x="140" y="216" type="curve"/>
      <point x="175" y="172" type="line"/>
      <point x="175" y="307"/>
      <point x="264" y="368"/>
      <point x="282" y="368" type="curve"/>
      <point x="337" y="368"/>
      <point x="375" y="326"/>
      <point x="375" y="265" type="curve" smooth="yes"/>
      <point x="375" y="179"/>
      <point x="375" y="136"/>
      <point x="370" y="48" type="curve"/>
      <point x="293" y="27" type="line"/>
      <point x="304" y="0" type="line"/>
      <point x="344" y="1"/>
      <point x="375" y="2"/>
      <point x="414" y="3" type="curve" smooth="yes"/>
      <point x="462" y="2"/>
      <point x="491" y="2"/>
      <point x="526" y="0" type="curve"/>
      <point x="537" y="27" type="line"/>
      <point x="458" y="48" type="line"/>
      <point x="458" y="133"/>
      <point x="459" y="193"/>
      <point x="459" y="279" type="curve" smooth="yes"/>
      <point x="459" y="374"/>
      <point x="406" y="436"/>
    </contour>
  </outline>
</glyph>
<glyph name="j" format="2">
  <advance width="249"/>
  <unicode hex="006A"/>
  <outline>
    <contour>
      <point x="184" y="434" type="curve"/>
      <point x="123" y="422"/>
      <point x="55" y="418"/>
      <point x="9" y="417" type="curve"/>
      <point x="20" y="386" type="line"/>
      <point x="92" y="372" type="line"/>
      <point x="97" y="304"/>
      <point x="98" y="193"/>
      <point x="98" y="149" type="curve" smooth="yes"/>
      <point x="98" y="-43"/>
      <point x="95" y="-105"/>
      <point x="81" y="-142" type="curve" smooth="yes"/>
      <point x="70" y="-173"/>
      <point x="51" y="-204"/>
      <point x="14" y="-237" type="curve"/>
      <point x="35" y="-260" type="line"/>
      <point x="132" y="-193"/>
      <point x="174" y="-127"/>
      <point x="178" y="-32" type="curve" smooth="yes"/>
      <point x="180" y="17"/>
      <point x="180" y="179"/>
      <point x="180" y="228" type="curve" smooth="yes"/>
      <point x="180" y="296"/>
      <point x="184" y="395"/>
    </contour>
    <contour>
      <point x="135" y="539" type="curve" smooth="yes"/>
      <point x="165" y="539"/>
      <point x="191" y="566"/>
      <point x="191" y="600" type="curve" smooth="yes"/>
      <point x="191" y="632"/>
      <point x="165" y="659"/>
      <point x="135" y="659" type="curve" smooth="yes"/>
      <point x="103" y="659"/>
      <point x="79" y="632"/>
      <point x="79" y="600" type="curve" smooth="yes"/>
      <point x="79" y="566"/>
      <point x="103" y="539"/>
    </contour>
  </outline>
</glyph>
<glyph name="k" format="2">
  <advance width="504"/>
  <unicode hex="006B"/>
  <anchor x="229" y="0" name="bottom"/>
  <outline>
    <contour>
      <point x="176" y="745" type="curve"/>
      <point x="115" y="733"/>
      <point x="50" y="728"/>
      <point x="4" y="725" type="curve"/>
      <point x="15" y="696" type="line"/>
      <point x="87" y="683" type="line"/>
      <point x="91" y="583"/>
      <point x="94" y="446"/>
      <point x="94" y="290" type="curve" smooth="yes"/>
      <point x="94" y="206"/>
      <point x="93" y="123"/>
      <point x="91" y="48" type="curve"/>
      <point x="11" y="27" type="line"/>
      <point x="22" y="0" type="line"/>
      <point x="62" y="1"/>
      <point x="93" y="3"/>
      <point x="134" y="3" type="curve" smooth="yes"/>
      <point x="181" y="3"/>
      <point x="210" y="2"/>
      <point x="243" y="0" type="curve"/>
      <point x="255" y="27" type="line"/>
      <point x="179" y="48" type="line"/>
      <point x="174" y="264" type="line"/>
      <point x="175" y="426"/>
      <point x="176" y="677"/>
    </contour>
    <contour>
      <point x="181" y="231" type="curve"/>
      <point x="237" y="156"/>
      <point x="276" y="91"/>
      <point x="341" y="0" type="curve"/>
      <point x="370" y="2"/>
      <point x="389" y="3"/>
      <point x="410" y="3" type="curve" smooth="yes"/>
      <point x="432" y="3"/>
      <point x="453" y="1"/>
      <point x="488" y="0" type="curve"/>
      <point x="498" y="27" type="line"/>
      <point x="421" y="48" type="line"/>
      <point x="342" y="135"/>
      <point x="306" y="186"/>
      <point x="237" y="276" type="curve"/>
      <point x="233" y="229" type="line"/>
      <point x="297" y="286"/>
      <point x="323" y="306"/>
      <point x="399" y="371" type="curve"/>
      <point x="480" y="392" type="line"/>
      <point x="471" y="419" type="line"/>
      <point x="436" y="417"/>
      <point x="411" y="416"/>
      <point x="376" y="416" type="curve" smooth="yes"/>
      <point x="340" y="416"/>
      <point x="303" y="417"/>
      <point x="271" y="419" type="curve"/>
      <point x="261" y="392" type="line"/>
      <point x="328" y="371" type="line"/>
      <point x="270" y="311"/>
      <point x="241" y="286"/>
    </contour>
  </outline>
</glyph>
<glyph name="l" format="2">
  <advance width="269"/>
  <unicode hex="006C"/>
  <anchor x="112" y="0" name="bottom"/>
  <anchor x="132" y="365" name="top"/>
  <anchor x="229" y="605" name="topright"/>
  <outline>
    <contour>
      <point x="176" y="745" type="curve"/>
      <point x="115" y="733"/>
      <point x="50" y="728"/>
      <point x="4" y="725" type="curve"/>
      <point x="15" y="696" type="line"/>
      <point x="87" y="683" type="line"/>
      <point x="93" y="528"/>
      <point x="96" y="261"/>
      <point x="91" y="48" type="curve"/>
      <point x="11" y="27" type="line"/>
      <point x="22" y="0" type="line"/>
      <point x="52" y="1"/>
      <point x="96" y="2"/>
      <point x="136" y="2" type="curve" smooth="yes"/>
      <point x="178" y="2"/>
      <point x="217" y="1"/>
      <point x="247" y="0" type="curve"/>
      <point x="258" y="27" type="line"/>
      <point x="179" y="48" type="line"/>
      <point x="175" y="265"/>
      <point x="175" y="518"/>
    </contour>
  </outline>
</glyph>
<glyph name="m" format="2">
  <advance width="832"/>
  <unicode hex="006D"/>
  <outline>
    <contour>
      <point x="330" y="436" type="curve" smooth="yes"/>
      <point x="243" y="436"/>
      <point x="149" y="305"/>
      <point x="145" y="216" type="curve"/>
      <point x="180" y="172" type="line"/>
      <point x="180" y="307"/>
      <point x="270" y="368"/>
      <point x="287" y="368" type="curve"/>
      <point x="336" y="368"/>
      <point x="372" y="326"/>
      <point x="375" y="265" type="curve" smooth="yes"/>
      <point x="380" y="179"/>
      <point x="379" y="136"/>
      <point x="375" y="48" type="curve"/>
      <point x="298" y="27" type="line"/>
      <point x="309" y="0" type="line"/>
      <point x="349" y="1"/>
      <point x="380" y="2"/>
      <point x="419" y="3" type="curve" smooth="yes"/>
      <point x="468" y="2"/>
      <point x="496" y="2"/>
      <point x="531" y="0" type="curve"/>
      <point x="542" y="27" type="line"/>
      <point x="463" y="48" type="line"/>
      <point x="460" y="133"/>
      <point x="463" y="193"/>
      <point x="460" y="279" type="curve" smooth="yes"/>
      <point x="457" y="374"/>
      <point x="411" y="436"/>
    </contour>
    <contour>
      <point x="179" y="434" type="curve"/>
      <point x="119" y="421"/>
      <point x="55" y="417"/>
      <point x="9" y="415" type="curve"/>
      <point x="20" y="385" type="line"/>
      <point x="92" y="372" type="line"/>
      <point x="97" y="305"/>
      <point x="100" y="272"/>
      <point x="101" y="226" type="curve" smooth="yes"/>
      <point x="102" y="167"/>
      <point x="98" y="113"/>
      <point x="96" y="48" type="curve"/>
      <point x="17" y="27" type="line"/>
      <point x="28" y="0" type="line"/>
      <point x="67" y="1"/>
      <point x="101" y="2"/>
      <point x="142" y="3" type="curve" smooth="yes"/>
      <point x="189" y="2"/>
      <point x="215" y="2"/>
      <point x="249" y="0" type="curve"/>
      <point x="261" y="27" type="line"/>
      <point x="184" y="48" type="line"/>
      <point x="179" y="289" type="line"/>
      <point x="179" y="356"/>
      <point x="179" y="367"/>
    </contour>
    <contour>
      <point x="609" y="436" type="curve" smooth="yes"/>
      <point x="522" y="436"/>
      <point x="432" y="305"/>
      <point x="427" y="216" type="curve"/>
      <point x="461" y="172" type="line"/>
      <point x="461" y="307"/>
      <point x="548" y="368"/>
      <point x="564" y="368" type="curve"/>
      <point x="621" y="368"/>
      <point x="655" y="326"/>
      <point x="656" y="265" type="curve" smooth="yes"/>
      <point x="659" y="179"/>
      <point x="657" y="136"/>
      <point x="654" y="48" type="curve"/>
      <point x="574" y="27" type="line"/>
      <point x="584" y="0" type="line"/>
      <point x="624" y="1"/>
      <point x="657" y="2"/>
      <point x="698" y="3" type="curve" smooth="yes"/>
      <point x="745" y="2"/>
      <point x="775" y="2"/>
      <point x="810" y="0" type="curve"/>
      <point x="821" y="27" type="line"/>
      <point x="742" y="48" type="line"/>
      <point x="740" y="133"/>
      <point x="742" y="193"/>
      <point x="743" y="279" type="curve" smooth="yes"/>
      <point x="744" y="374"/>
      <point x="690" y="436"/>
    </contour>
  </outline>
</glyph>
<glyph name="o" format="2">
  <advance width="489"/>
  <unicode hex="006F"/>
  <anchor x="248" y="430" name="top"/>
  <outline>
    <contour>
      <point x="245" y="-11" type="curve" smooth="yes"/>
      <point x="385" y="-11"/>
      <point x="456" y="102"/>
      <point x="456" y="214" type="curve" smooth="yes"/>
      <point x="456" y="325"/>
      <point x="387" y="435"/>
      <point x="246" y="435" type="curve" smooth="yes"/>
      <point x="105" y="435"/>
      <point x="33" y="322"/>
      <point x="33" y="210" type="curve" smooth="yes"/>
      <point x="33" y="99"/>
      <point x="103" y="-11"/>
    </contour>
    <contour>
      <point x="258" y="31" type="curve" smooth="yes"/>
      <point x="174" y="31"/>
      <point x="131" y="133"/>
      <point x="131" y="228" type="curve" smooth="yes"/>
      <point x="131" y="313"/>
      <point x="164" y="392"/>
      <point x="232" y="392" type="curve" smooth="yes"/>
      <point x="316" y="392"/>
      <point x="359" y="290"/>
      <point x="359" y="195" type="curve" smooth="yes"/>
      <point x="359" y="110"/>
      <point x="326" y="31"/>
    </contour>
  </outline>
</glyph>
<glyph name="q" format="1">
  <advance width="491"/>
  <unicode hex="0071"/>
  <outline>
    <contour>
      <point x="445" y="430" type="curve"/>
      <point x="408" y="430" type="line"/>
      <point x="402" y="420"/>
      <point x="375" y="381"/>
      <point x="362" y="361" type="curve"/>
      <point x="355" y="345" type="line"/>
      <point x="356" y="256"/>
      <point x="358" y="130"/>
      <point x="358" y="4" type="curve" smooth="yes"/>
      <point x="358" y="-74"/>
      <point x="358" y="-134"/>
      <point x="357" y="-211" type="curve"/>
      <point x="257" y="-232" type="line"/>
      <point x="268" y="-260" type="line"/>
      <point x="311" y="-258"/>
      <point x="353" y="-257"/>
      <point x="394" y="-257" type="curve" smooth="yes"/>
      <point x="436" y="-257"/>
      <point x="476" y="-258"/>
      <point x="515" y="-260" type="curve"/>
      <point x="525" y="-232" type="line"/>
      <point x="446" y="-211" type="line"/>
      <point x="443" y="-101"/>
      <point x="441" y="-15"/>
      <point x="441" y="99" type="curve" smooth="yes"/>
      <point x="441" y="204"/>
      <point x="443" y="312"/>
    </contour>
    <contour>
      <point x="231" y="436" type="curve" smooth="yes"/>
      <point x="133" y="436"/>
      <point x="35" y="359"/>
      <point x="35" y="216" type="curve" smooth="yes"/>
      <point x="35" y="62"/>
      <point x="129" y="-7"/>
      <point x="223" y="-7" type="curve" smooth="yes"/>
      <point x="310" y="-7"/>
      <point x="390" y="52"/>
      <point x="419" y="164" type="curve"/>
      <point x="398" y="211" type="line"/>
      <point x="375" y="103"/>
      <point x="310" y="49"/>
      <point x="249" y="49" type="curve" smooth="yes"/>
      <point x="187" y="49"/>
      <point x="129" y="107"/>
      <point x="129" y="218" type="curve" smooth="yes"/>
      <point x="129" y="301"/>
      <point x="165" y="376"/>
      <point x="236" y="393" type="curve"/>
      <point x="300" y="388"/>
      <point x="350" y="332"/>
      <point x="357" y="276" type="curve"/>
      <point x="389" y="311" type="line"/>
      <point x="375" y="389"/>
      <point x="301" y="436"/>
    </contour>
  </outline>
</glyph>
<glyph name="s" format="2">
  <advance width="387"/>
  <unicode hex="0073"/>
  <anchor x="186" y="0" name="bottom"/>
  <anchor x="191" y="430" name="top"/>
  <outline>
    <contour>
      <point x="40" y="20" type="curve"/>
      <point x="80" y="2"/>
      <point x="135" y="-11"/>
      <point x="185" y="-11" type="curve" smooth="yes"/>
      <point x="274" y="-11"/>
      <point x="347" y="25"/>
      <point x="347" y="120" type="curve" smooth="yes"/>
      <point x="347" y="273"/>
      <point x="122" y="242"/>
      <point x="122" y="341" type="curve" smooth="yes"/>
      <point x="122" y="370"/>
      <point x="145" y="394"/>
      <point x="194" y="394" type="curve" smooth="yes"/>
      <point x="222" y="394"/>
      <point x="252" y="383"/>
      <point x="268" y="362" type="curve"/>
      <point x="276" y="295" type="line"/>
      <point x="310" y="295" type="line"/>
      <point x="314" y="333"/>
      <point x="320" y="364"/>
      <point x="328" y="410" type="curve"/>
      <point x="293" y="428"/>
      <point x="247" y="436"/>
      <point x="196" y="436" type="curve" smooth="yes"/>
      <point x="108" y="436"/>
      <point x="48" y="390"/>
      <point x="48" y="319" type="curve" smooth="yes"/>
      <point x="48" y="159"/>
      <point x="261" y="208"/>
      <point x="261" y="97" type="curve" smooth="yes"/>
      <point x="261" y="53"/>
      <point x="221" y="33"/>
      <point x="182" y="33" type="curve" smooth="yes"/>
      <point x="152" y="33"/>
      <point x="120" y="45"/>
      <point x="103" y="67" type="curve"/>
      <point x="90" y="140" type="line"/>
      <point x="58" y="140" type="line"/>
      <point x="53" y="100"/>
      <point x="50" y="70"/>
    </contour>
  </outline>
</glyph>
<glyph name="u" format="2">
  <advance width="548"/>
  <unicode hex="0075"/>
  <anchor x="489" y="-4" name="ogonek"/>
  <anchor x="264" y="430" name="top"/>
  <outline>
    <contour>
      <point x="217" y="-9" type="curve"/>
      <point x="309" y="-9"/>
      <point x="387" y="90"/>
      <point x="400" y="188" type="curve"/>
      <point x="374" y="231" type="line"/>
      <point x="374" y="131"/>
      <point x="292" y="69"/>
      <point x="261" y="61" type="curve"/>
      <point x="210" y="61"/>
      <point x="180" y="103"/>
      <point x="177" y="164" type="curve" smooth="yes"/>
      <point x="170" y="279"/>
      <point x="175" y="358"/>
      <point x="180" y="434" type="curve"/>
      <point x="123" y="425"/>
      <point x="55" y="418"/>
      <point x="9" y="417" type="curve"/>
      <point x="19" y="386" type="line"/>
      <point x="90" y="375" type="line"/>
      <point x="87" y="273"/>
      <point x="89" y="197"/>
      <point x="92" y="151" type="curve" smooth="yes"/>
      <point x="96" y="55"/>
      <point x="143" y="-9"/>
    </contour>
    <contour>
      <point x="372" y="0" type="curve"/>
      <point x="390" y="0"/>
      <point x="411" y="2"/>
      <point x="430" y="2" type="curve" smooth="yes"/>
      <point x="478" y="2"/>
      <point x="490" y="2"/>
      <point x="525" y="0" type="curve"/>
      <point x="537" y="27" type="line"/>
      <point x="463" y="48" type="line"/>
      <point x="457" y="119"/>
      <point x="453" y="162"/>
      <point x="453" y="207" type="curve" smooth="yes"/>
      <point x="453" y="281"/>
      <point x="455" y="359"/>
      <point x="458" y="434" type="curve"/>
      <point x="411" y="427"/>
      <point x="335" y="418"/>
      <point x="288" y="417" type="curve"/>
      <point x="297" y="386" type="line"/>
      <point x="369" y="374" type="line"/>
      <point x="375" y="145" type="line"/>
      <point x="369" y="78"/>
      <point x="372" y="68"/>
    </contour>
  </outline>
</glyph>
<glyph name="w" format="1">
  <advance width="753"/>
  <unicode hex="0077"/>
  <outline>
    <contour>
      <point x="223" y="419" type="line"/>
      <point x="185" y="417"/>
      <point x="153" y="416"/>
      <point x="117" y="416" type="curve" smooth="yes"/>
      <point x="77" y="416"/>
      <point x="43" y="417"/>
      <point x="10" y="419" type="curve"/>
      <point x="0" y="393" type="line"/>
      <point x="70" y="372" type="line"/>
      <point x="129" y="228"/>
      <point x="161" y="148"/>
      <point x="213" y="-9" type="curve"/>
      <point x="236" y="-9"/>
      <point x="277" y="67"/>
      <point x="272" y="94" type="curve"/>
      <point x="225" y="206"/>
      <point x="202" y="261"/>
      <point x="170" y="372" type="curve"/>
      <point x="235" y="393" type="line"/>
    </contour>
    <contour>
      <point x="366" y="425" type="line"/>
      <point x="317" y="276"/>
      <point x="262" y="112"/>
      <point x="213" y="-9" type="curve"/>
      <point x="267" y="-9" type="line"/>
      <point x="310" y="110"/>
      <point x="361" y="233"/>
      <point x="413" y="364" type="curve"/>
      <point x="413" y="425" type="line"/>
    </contour>
    <contour>
      <point x="413" y="425" type="curve"/>
      <point x="356" y="329" type="line"/>
      <point x="403" y="224"/>
      <point x="445" y="125"/>
      <point x="499" y="-9" type="curve"/>
      <point x="521" y="-9"/>
      <point x="559" y="57"/>
      <point x="554" y="84" type="curve"/>
      <point x="503" y="191"/>
      <point x="465" y="287"/>
    </contour>
    <contour>
      <point x="742" y="419" type="line"/>
      <point x="712" y="417"/>
      <point x="693" y="416"/>
      <point x="658" y="416" type="curve" smooth="yes"/>
      <point x="622" y="416"/>
      <point x="595" y="417"/>
      <point x="553" y="419" type="curve"/>
      <point x="543" y="393" type="line"/>
      <point x="617" y="372" type="line"/>
      <point x="580" y="237"/>
      <point x="546" y="105"/>
      <point x="499" y="-9" type="curve"/>
      <point x="553" y="-9" type="line"/>
      <point x="597" y="123"/>
      <point x="628" y="235"/>
      <point x="680" y="372" type="curve"/>
      <point x="753" y="393" type="line"/>
    </contour>
    <contour>
      <point x="400" y="430" type="move" name="top"/>
    </contour>
  </outline>
</glyph>
<glyph name="x" format="2">
  <advance width="474"/>
  <unicode hex="0078"/>
  <outline>
    <contour>
      <point x="220" y="420" type="line"/>
      <point x="184" y="418"/>
      <point x="164" y="417"/>
      <point x="118" y="417" type="curve" smooth="yes"/>
      <point x="87" y="417"/>
      <point x="56" y="418"/>
      <point x="17" y="420" type="curve"/>
      <point x="6" y="394" type="line"/>
      <point x="66" y="374" type="line"/>
      <point x="175" y="225"/>
      <point x="221" y="160"/>
      <point x="302" y="44" type="curve"/>
      <point x="234" y="27" type="line"/>
      <point x="246" y="0" type="line"/>
      <point x="281" y="2"/>
      <point x="322" y="3"/>
      <point x="357" y="3" type="curve" smooth="yes"/>
      <point x="398" y="3"/>
      <point x="424" y="1"/>
      <point x="464" y="0" type="curve"/>
      <point x="474" y="27" type="line"/>
      <point x="411" y="48" type="line"/>
      <point x="296" y="200"/>
      <point x="236" y="277"/>
      <point x="171" y="376" type="curve"/>
      <point x="231" y="394" type="line"/>
    </contour>
    <contour>
      <point x="235" y="174" type="curve"/>
      <point x="212" y="222" type="line"/>
      <point x="169" y="161"/>
      <point x="116" y="97"/>
      <point x="73" y="48" type="curve"/>
      <point x="0" y="27" type="line"/>
      <point x="11" y="0" type="line"/>
      <point x="46" y="2"/>
      <point x="64" y="3"/>
      <point x="99" y="3" type="curve" smooth="yes"/>
      <point x="134" y="3"/>
      <point x="150" y="2"/>
      <point x="186" y="0" type="curve"/>
      <point x="196" y="27" type="line"/>
      <point x="134" y="46" type="line"/>
      <point x="157" y="78"/>
      <point x="196" y="124"/>
    </contour>
    <contour>
      <point x="225" y="225" type="curve"/>
      <point x="249" y="177" type="line"/>
      <point x="298" y="245"/>
      <point x="351" y="319"/>
      <point x="392" y="373" type="curve"/>
      <point x="461" y="394" type="line"/>
      <point x="450" y="420" type="line"/>
      <point x="415" y="418"/>
      <point x="398" y="417"/>
      <point x="362" y="417" type="curve" smooth="yes"/>
      <point x="327" y="417"/>
      <point x="313" y="418"/>
      <point x="278" y="420" type="curve"/>
      <point x="267" y="394" type="line"/>
      <point x="331" y="375" type="line"/>
      <point x="310" y="342"/>
      <point x="271" y="286"/>
    </contour>
  </outline>
</glyph>
<glyph name="y" format="2">
  <advance width="539"/>
  <unicode hex="0079"/>
  <anchor x="285" y="430" name="top"/>
  <outline>
    <contour>
      <point x="527" y="419" type="line"/>
      <point x="492" y="417"/>
      <point x="470" y="416"/>
      <point x="435" y="416" type="curve" smooth="yes"/>
      <point x="399" y="416"/>
      <point x="375" y="417"/>
      <point x="333" y="419" type="curve"/>
      <point x="323" y="393" type="line"/>
      <point x="397" y="372" type="line"/>
      <point x="331" y="185"/>
      <point x="192" y="-128"/>
      <point x="149" y="-204" type="curve"/>
      <point x="41" y="-232" type="line"/>
      <point x="52" y="-260" type="line"/>
      <point x="104" y="-257"/>
      <point x="136" y="-257"/>
      <point x="181" y="-257" type="curve" smooth="yes"/>
      <point x="214" y="-257"/>
      <point x="242" y="-257"/>
      <point x="294" y="-260" type="curve"/>
      <point x="305" y="-232" type="line"/>
      <point x="221" y="-207" type="line"/>
      <point x="291" y="-2"/>
      <point x="378" y="166"/>
      <point x="459" y="372" type="curve"/>
      <point x="539" y="393" type="line"/>
    </contour>
    <contour>
      <point x="239" y="419" type="line"/>
      <point x="204" y="417"/>
      <point x="181" y="416"/>
      <point x="124" y="416" type="curve" smooth="yes"/>
      <point x="63" y="416"/>
      <point x="45" y="417"/>
      <point x="10" y="419" type="curve"/>
      <point x="0" y="393" type="line"/>
      <point x="77" y="372" type="line"/>
      <point x="138" y="228"/>
      <point x="181" y="127"/>
      <point x="244" y="-20" type="curve"/>
      <point x="291" y="90" type="line"/>
      <point x="237" y="208"/>
      <point x="212" y="261"/>
      <point x="179" y="372" type="curve"/>
      <point x="250" y="393" type="line"/>
    </contour>
  </outline>
</glyph>
<glyph name="z" format="2">
  <advance width="431"/>
  <unicode hex="007A"/>
  <anchor x="217" y="430" name="top"/>
  <outline>
    <contour>
      <point x="58" y="0" type="curve"/>
      <point x="93" y="1"/>
      <point x="150" y="2"/>
      <point x="208" y="2" type="curve" smooth="yes"/>
      <point x="266" y="2"/>
      <point x="326" y="1"/>
      <point x="367" y="0" type="curve"/>
      <point x="373" y="40"/>
      <point x="382" y="81"/>
      <point x="391" y="121" type="curve"/>
      <point x="362" y="129" type="line"/>
      <point x="346" y="98"/>
      <point x="336" y="80"/>
      <point x="321" y="59" type="curve"/>
      <point x="290" y="49"/>
      <point x="245" y="44"/>
      <point x="208" y="44" type="curve" smooth="yes"/>
      <point x="191" y="44"/>
      <point x="176" y="45"/>
      <point x="164" y="47" type="curve"/>
      <point x="173" y="87"/>
      <point x="323" y="319"/>
      <point x="383" y="391" type="curve"/>
      <point x="378" y="401"/>
      <point x="372" y="410"/>
      <point x="364" y="419" type="curve"/>
      <point x="310" y="418"/>
      <point x="261" y="417"/>
      <point x="213" y="417" type="curve" smooth="yes"/>
      <point x="169" y="417"/>
      <point x="120" y="418"/>
      <point x="65" y="419" type="curve"/>
      <point x="65" y="383"/>
      <point x="62" y="337"/>
      <point x="59" y="292" type="curve"/>
      <point x="88" y="292" type="line"/>
      <point x="98" y="321"/>
      <point x="102" y="336"/>
      <point x="116" y="364" type="curve"/>
      <point x="141" y="371"/>
      <point x="180" y="375"/>
      <point x="212" y="375" type="curve" smooth="yes"/>
      <point x="228" y="375"/>
      <point x="243" y="374"/>
      <point x="254" y="372" type="curve"/>
      <point x="216" y="299"/>
      <point x="125" y="144"/>
      <point x="40" y="31" type="curve"/>
      <point x="43" y="20"/>
      <point x="49" y="9"/>
    </contour>
  </outline>
</glyph>
<glyph name="bar" format="1">
  <advance width="221"/>
  <unicode hex="007C"/>
  <outline>
    <contour>
      <point x="146" y="763" type="curve"/>
      <point x="75" y="763" type="line"/>
      <point x="77" y="613"/>
      <point x="77" y="463"/>
      <point x="77" y="313" type="curve" smooth="yes"/>
      <point x="77" y="162"/>
      <point x="77" y="12"/>
      <point x="75" y="-138" type="curve"/>
      <point x="146" y="-138" type="line"/>
      <point x="145" y="12"/>
      <point x="144" y="162"/>
      <point x="144" y="313" type="curve" smooth="yes"/>
      <point x="144" y="463"/>
      <point x="145" y="613"/>
    </contour>
  </outline>
</glyph>
<glyph name="yen" format="2">
  <advance width="657"/>
  <unicode hex="00A5"/>
  <outline>
    <contour>
      <point x="544" y="237" type="line"/>
      <point x="398" y="231"/>
      <point x="289" y="231"/>
      <point x="143" y="237" type="curve"/>
      <point x="143" y="184" type="line"/>
      <point x="289" y="190"/>
      <point x="398" y="190"/>
      <point x="544" y="184" type="curve"/>
    </contour>
    <contour>
      <point x="544" y="327" type="line"/>
      <point x="398" y="321"/>
      <point x="289" y="321"/>
      <point x="143" y="327" type="curve"/>
      <point x="143" y="274" type="line"/>
      <point x="289" y="280"/>
      <point x="398" y="280"/>
      <point x="544" y="274" type="curve"/>
    </contour>
    <component base="Y"/>
  </outline>
</glyph>
<glyph name="brokenbar" format="1">
  <advance width="383"/>
  <unicode hex="00A6"/>
  <outline>
    <contour>
      <point x="223" y="430" type="line"/>
      <point x="221" y="536"/>
      <point x="221" y="635"/>
      <point x="223" y="741" type="curve"/>
      <point x="160" y="741" type="line"/>
      <point x="162" y="635"/>
      <point x="162" y="536"/>
      <point x="160" y="430" type="curve"/>
    </contour>
    <contour>
      <point x="223" y="-100" type="line"/>
      <point x="221" y="6"/>
      <point x="221" y="105"/>
      <point x="223" y="211" type="curve"/>
      <point x="160" y="211" type="line"/>
      <point x="162" y="105"/>
      <point x="162" y="6"/>
      <point x="160" y="-100" type="curve"/>
    </contour>
  </outline>
</glyph>
<glyph name="section" format="2">
  <advance width="516"/>
  <unicode hex="00A7"/>
  <outline>
    <contour>
      <point x="237" y="336" type="curve"/>
      <point x="226" y="380" type="line"/>
      <point x="116" y="360"/>
      <point x="56" y="304"/>
      <point x="56" y="221" type="curve" smooth="yes"/>
      <point x="56" y="18"/>
      <point x="360" y="40"/>
      <point x="359" y="-100" type="curve" smooth="yes"/>
      <point x="358" y="-220"/>
      <point x="216" y="-249"/>
      <point x="149" y="-167" type="curve"/>
      <point x="140" y="-63" type="line"/>
      <point x="93" y="-63" type="line"/>
      <point x="85" y="-114"/>
      <point x="76" y="-146"/>
      <point x="63" y="-206" type="curve"/>
      <point x="117" y="-242"/>
      <point x="190" y="-262"/>
      <point x="239" y="-262" type="curve" smooth="yes"/>
      <point x="327" y="-262"/>
      <point x="449" y="-217"/>
      <point x="450" y="-88" type="curve" smooth="yes"/>
      <point x="451" y="115"/>
      <point x="143" y="87"/>
      <point x="143" y="240" type="curve" smooth="yes"/>
      <point x="143" y="291"/>
      <point x="185" y="327"/>
    </contour>
    <contour>
      <point x="273" y="47" type="curve"/>
      <point x="294" y="11" type="line"/>
      <point x="397" y="35"/>
      <point x="461" y="85"/>
      <point x="461" y="174" type="curve" smooth="yes"/>
      <point x="461" y="395"/>
      <point x="143" y="367"/>
      <point x="143" y="518" type="curve" smooth="yes"/>
      <point x="143" y="626"/>
      <point x="269" y="647"/>
      <point x="347" y="572" type="curve"/>
      <point x="357" y="476" type="line"/>
      <point x="404" y="476" type="line"/>
      <point x="411" y="524"/>
      <point x="417" y="546"/>
      <point x="433" y="621" type="curve"/>
      <point x="380" y="649"/>
      <point x="313" y="665"/>
      <point x="253" y="665" type="curve" smooth="yes"/>
      <point x="142" y="665"/>
      <point x="54" y="603"/>
      <point x="55" y="499" type="curve" smooth="yes"/>
      <point x="56" y="298"/>
      <point x="370" y="320"/>
      <point x="370" y="162" type="curve" smooth="yes"/>
      <point x="370" y="99"/>
      <point x="326" y="61"/>
    </contour>
  </outline>
</glyph>
<glyph name="copyright" format="2">
  <advance width="698"/>
  <unicode hex="00A9"/>
  <outline>
    <contour>
      <point x="351" y="39" type="curve" smooth="yes"/>
      <point x="197" y="39"/>
      <point x="63" y="169"/>
      <point x="63" y="327" type="curve" smooth="yes"/>
      <point x="63" y="480"/>
      <point x="193" y="610"/>
      <point x="351" y="610" type="curve" smooth="yes"/>
      <point x="504" y="610"/>
      <point x="634" y="480"/>
      <point x="634" y="327" type="curve" smooth="yes"/>
      <point x="634" y="169"/>
      <point x="504" y="39"/>
    </contour>
    <contour>
      <point x="350" y="1" type="curve" smooth="yes"/>
      <point x="527" y="1"/>
      <point x="673" y="146"/>
      <point x="673" y="326" type="curve" smooth="yes"/>
      <point x="673" y="503"/>
      <point x="527" y="649"/>
      <point x="350" y="649" type="curve" smooth="yes"/>
      <point x="170" y="649"/>
      <point x="25" y="503"/>
      <point x="25" y="326" type="curve" smooth="yes"/>
      <point x="25" y="146"/>
      <point x="170" y="1"/>
    </contour>
    <contour>
      <point x="346.4" y="117" type="curve" smooth="yes"/>
      <point x="413.6" y="117"/>
      <point x="455.2" y="142.6"/>
      <point x="498.4" y="182.6" type="curve"/>
      <point x="477.6" y="210.6" type="line"/>
      <point x="444" y="175.4"/>
      <point x="410.4" y="155.4"/>
      <point x="362.4" y="155.4" type="curve" smooth="yes"/>
      <point x="287.2" y="155.4"/>
      <point x="232" y="231.4"/>
      <point x="232" y="336.2" type="curve" smooth="yes"/>
      <point x="232" y="414.6"/>
      <point x="253.6" y="467.4"/>
      <point x="297.6" y="503.4" type="curve"/>
      <point x="347.2" y="503.4"/>
      <point x="394.4" y="486.6"/>
      <point x="428.8" y="466.6" type="curve"/>
      <point x="442.4" y="393.8" type="line"/>
      <point x="472.8" y="393.8" type="line"/>
      <point x="479.2" y="433.8"/>
      <point x="484" y="455.4"/>
      <point x="492.8" y="501" type="curve"/>
      <point x="444.8" y="531.4"/>
      <point x="401.6" y="543.4"/>
      <point x="345.6" y="543.4" type="curve" smooth="yes"/>
      <point x="248" y="543.4"/>
      <point x="156" y="467.4"/>
      <point x="156" y="322.6" type="curve" smooth="yes"/>
      <point x="156" y="190.6"/>
      <point x="248" y="117"/>
    </contour>
  </outline>
</glyph>
<glyph name="logicalnot" format="1">
  <advance width="491"/>
  <unicode hex="00AC"/>
  <outline>
    <contour>
      <point x="466" y="451" type="line"/>
      <point x="316" y="448"/>
      <point x="175" y="448"/>
      <point x="25" y="451" type="curve"/>
      <point x="25" y="388" type="line"/>
      <point x="175" y="391"/>
      <point x="313" y="391"/>
      <point x="463" y="388" type="curve"/>
    </contour>
    <contour>
      <point x="403" y="445" type="line"/>
      <point x="406" y="305"/>
      <point x="406" y="290"/>
      <point x="403" y="150" type="curve"/>
      <point x="466" y="150" type="line"/>
      <point x="463" y="290"/>
      <point x="463" y="311"/>
      <point x="466" y="451" type="curve"/>
    </contour>
  </outline>
</glyph>
<glyph name="registered" format="2">
  <advance width="698"/>
  <unicode hex="00AE"/>
  <outline>
    <contour>
      <point x="351" y="39" type="curve" smooth="yes"/>
      <point x="197" y="39"/>
      <point x="63" y="169"/>
      <point x="63" y="327" type="curve" smooth="yes"/>
      <point x="63" y="480"/>
      <point x="193" y="610"/>
      <point x="351" y="610" type="curve" smooth="yes"/>
      <point x="504" y="610"/>
      <point x="634" y="480"/>
      <point x="634" y="327" type="curve" smooth="yes"/>
      <point x="634" y="169"/>
      <point x="504" y="39"/>
    </contour>
    <contour>
      <point x="350" y="1" type="curve" smooth="yes"/>
      <point x="527" y="1"/>
      <point x="673" y="146"/>
      <point x="673" y="326" type="curve" smooth="yes"/>
      <point x="673" y="503"/>
      <point x="527" y="649"/>
      <point x="350" y="649" type="curve" smooth="yes"/>
      <point x="170" y="649"/>
      <point x="25" y="503"/>
      <point x="25" y="326" type="curve" smooth="yes"/>
      <point x="25" y="146"/>
      <point x="170" y="1"/>
    </contour>
    <component base="r.sc" xScale="0.75" yScale="0.75" xOffset="140" yOffset="139"/>
  </outline>
</glyph>
<glyph name="macron" format="2">
  <advance width="263"/>
  <unicode hex="00AF"/>
  <anchor x="130" y="430" name="_top"/>
  <outline>
    <contour>
      <point x="0" y="578" type="curve"/>
      <point x="0" y="517" type="line"/>
      <point x="88" y="519"/>
      <point x="175" y="519"/>
      <point x="263" y="517" type="curve"/>
      <point x="263" y="578" type="line"/>
      <point x="175" y="574"/>
      <point x="88" y="574"/>
    </contour>
  </outline>
</glyph>
<glyph name="degree" format="1">
  <advance width="275"/>
  <unicode hex="00B0"/>
  <outline>
    <contour>
      <point x="138" y="480" type="curve" smooth="yes"/>
      <point x="96" y="480"/>
      <point x="60" y="515"/>
      <point x="60" y="558" type="curve" smooth="yes"/>
      <point x="60" y="600"/>
      <point x="95" y="635"/>
      <point x="138" y="635" type="curve" smooth="yes"/>
      <point x="180" y="635"/>
      <point x="215" y="600"/>
      <point x="215" y="558" type="curve" smooth="yes"/>
      <point x="215" y="515"/>
      <point x="180" y="480"/>
    </contour>
    <contour>
      <point x="138" y="440" type="curve" smooth="yes"/>
      <point x="203" y="440"/>
      <point x="255" y="493"/>
      <point x="255" y="558" type="curve" smooth="yes"/>
      <point x="255" y="623"/>
      <point x="203" y="675"/>
      <point x="138" y="675" type="curve" smooth="yes"/>
      <point x="73" y="675"/>
      <point x="20" y="623"/>
      <point x="20" y="558" type="curve" smooth="yes"/>
      <point x="20" y="493"/>
      <point x="73" y="440"/>
    </contour>
  </outline>
</glyph>
<glyph name="twosuperior" format="2">
  <advance width="359"/>
  <unicode hex="00B2"/>
  <outline>
    <contour>
      <point x="25" y="571" type="curve"/>
      <point x="43" y="540" type="line"/>
      <point x="86" y="584"/>
      <point x="126" y="601"/>
      <point x="157" y="601" type="curve" smooth="yes"/>
      <point x="198" y="601"/>
      <point x="224" y="573"/>
      <point x="224" y="538" type="curve" smooth="yes"/>
      <point x="224" y="461"/>
      <point x="166" y="404"/>
      <point x="32" y="274" type="curve"/>
      <point x="44" y="251" type="line"/>
      <point x="83" y="253"/>
      <point x="135" y="254"/>
      <point x="158" y="254" type="curve" smooth="yes"/>
      <point x="218" y="254"/>
      <point x="262" y="253"/>
      <point x="316" y="251" type="curve"/>
      <point x="317" y="278"/>
      <point x="318" y="310"/>
      <point x="319" y="330" type="curve"/>
      <point x="234" y="316"/>
      <point x="185" y="316"/>
      <point x="98" y="314" type="curve"/>
      <point x="84" y="283" type="line"/>
      <point x="237" y="408"/>
      <point x="309" y="466"/>
      <point x="309" y="558" type="curve" smooth="yes"/>
      <point x="309" y="620"/>
      <point x="258" y="668"/>
      <point x="190" y="668" type="curve" smooth="yes"/>
      <point x="140" y="668"/>
      <point x="81" y="641"/>
    </contour>
  </outline>
</glyph>
<glyph name="acute" format="1">
  <advance width="133"/>
  <unicode hex="00B4"/>
  <outline>
    <contour>
      <point x="120" y="689" type="curve"/>
      <point x="109" y="685"/>
      <point x="96" y="682"/>
      <point x="85" y="678" type="curve"/>
      <point x="63" y="616"/>
      <point x="44" y="567"/>
      <point x="-4" y="489" type="curve"/>
      <point x="26" y="468" type="line"/>
      <point x="85" y="533"/>
      <point x="124" y="588"/>
      <point x="162" y="644" type="curve"/>
      <point x="148" y="667"/>
      <point x="137" y="677"/>
    </contour>
    <contour>
      <point x="55" y="431" type="move" name="_top"/>
    </contour>
  </outline>
</glyph>
<glyph name="paragraph" format="1">
  <advance width="564"/>
  <unicode hex="00B6"/>
  <outline>
    <contour>
      <point x="276" y="-60" type="curve"/>
      <point x="337" y="-60" type="line"/>
      <point x="338" y="-48"/>
      <point x="341" y="600"/>
      <point x="340" y="600" type="curve"/>
      <point x="393" y="600" type="line"/>
      <point x="392" y="600"/>
      <point x="394" y="-48"/>
      <point x="395" y="-60" type="curve"/>
      <point x="456" y="-60" type="line"/>
      <point x="452" y="30"/>
      <point x="451" y="287"/>
      <point x="451" y="366" type="curve" smooth="yes"/>
      <point x="451" y="470"/>
      <point x="453" y="527"/>
      <point x="456" y="608" type="curve"/>
      <point x="543" y="629" type="line"/>
      <point x="534" y="660" type="line"/>
      <point x="473" y="657"/>
      <point x="440" y="656"/>
      <point x="386" y="656" type="curve" smooth="yes"/>
      <point x="344" y="656"/>
      <point x="304" y="657"/>
      <point x="267" y="657" type="curve" smooth="yes"/>
      <point x="111" y="657"/>
      <point x="40" y="580"/>
      <point x="40" y="468" type="curve" smooth="yes"/>
      <point x="40" y="319"/>
      <point x="154" y="266"/>
      <point x="281" y="266" type="curve"/>
      <point x="281" y="187"/>
      <point x="280" y="30"/>
    </contour>
  </outline>
</glyph>
<glyph name="periodcentered" format="1">
  <advance width="100"/>
  <unicode hex="00B7"/>
  <outline>
    <contour>
      <point x="50" y="390" type="curve" smooth="yes"/>
      <point x="36" y="390"/>
      <point x="21" y="386"/>
      <point x="6" y="382" type="curve"/>
      <point x="2" y="368"/>
      <point x="0" y="353"/>
      <point x="0" y="339" type="curve" smooth="yes"/>
      <point x="0" y="324"/>
      <point x="2" y="310"/>
      <point x="6" y="296" type="curve"/>
      <point x="21" y="291"/>
      <point x="36" y="288"/>
      <point x="50" y="288" type="curve" smooth="yes"/>
      <point x="64" y="288"/>
      <point x="78" y="291"/>
      <point x="93" y="296" type="curve"/>
      <point x="97" y="310"/>
      <point x="100" y="324"/>
      <point x="100" y="339" type="curve" smooth="yes"/>
      <point x="100" y="353"/>
      <point x="97" y="368"/>
      <point x="93" y="382" type="curve"/>
      <point x="78" y="386"/>
      <point x="64" y="390"/>
    </contour>
  </outline>
</glyph>
<glyph name="onesuperior" format="2">
  <advance width="303"/>
  <unicode hex="00B9"/>
  <outline>
    <contour>
      <point x="206" y="670" type="curve"/>
      <point x="181" y="670" type="line"/>
      <point x="121" y="630"/>
      <point x="84" y="620"/>
      <point x="23" y="613" type="curve"/>
      <point x="38" y="579" type="line"/>
      <point x="126" y="580" type="line"/>
      <point x="129" y="513"/>
      <point x="130" y="486"/>
      <point x="130" y="451" type="curve" smooth="yes"/>
      <point x="130" y="398"/>
      <point x="130" y="337"/>
      <point x="129" y="300" type="curve"/>
      <point x="44" y="278" type="line"/>
      <point x="53" y="251" type="line"/>
      <point x="84" y="251"/>
      <point x="130" y="253"/>
      <point x="167" y="253" type="curve" smooth="yes"/>
      <point x="203" y="253"/>
      <point x="242" y="252"/>
      <point x="273" y="251" type="curve"/>
      <point x="282" y="278" type="line"/>
      <point x="206" y="300" type="line"/>
      <point x="204" y="350"/>
      <point x="204" y="412"/>
      <point x="204" y="456" type="curve" smooth="yes"/>
      <point x="204" y="516"/>
      <point x="204" y="587"/>
    </contour>
  </outline>
</glyph>
<glyph name="onequarter" format="1">
  <advance width="786"/>
  <unicode hex="00BC"/>
  <outline>
    <contour>
      <point x="711" y="693" type="line"/>
      <point x="649" y="693" type="line"/>
      <point x="102" y="-48" type="line"/>
      <point x="163" y="-48" type="line"/>
    </contour>
    <contour>
      <point x="203" y="690" type="curve"/>
      <point x="178" y="690" type="line"/>
      <point x="118" y="650"/>
      <point x="81" y="640"/>
      <point x="20" y="633" type="curve"/>
      <point x="35" y="599" type="line"/>
      <point x="123" y="600" type="line"/>
      <point x="126" y="533"/>
      <point x="127" y="506"/>
      <point x="127" y="471" type="curve" smooth="yes"/>
      <point x="127" y="418"/>
      <point x="127" y="357"/>
      <point x="126" y="320" type="curve"/>
      <point x="41" y="298" type="line"/>
      <point x="50" y="271" type="line"/>
      <point x="81" y="271"/>
      <point x="127" y="273"/>
      <point x="164" y="273" type="curve" smooth="yes"/>
      <point x="200" y="273"/>
      <point x="239" y="272"/>
      <point x="270" y="271" type="curve"/>
      <point x="279" y="298" type="line"/>
      <point x="203" y="320" type="line"/>
      <point x="201" y="370"/>
      <point x="201" y="432"/>
      <point x="201" y="476" type="curve" smooth="yes"/>
      <point x="201" y="536"/>
      <point x="201" y="607"/>
    </contour>
    <contour>
      <point x="696" y="416" type="curve"/>
      <point x="673" y="416" type="line"/>
      <point x="589" y="314"/>
      <point x="521" y="221"/>
      <point x="436" y="125" type="curve"/>
      <point x="436" y="94" type="line"/>
      <point x="561" y="97"/>
      <point x="657" y="98"/>
      <point x="766" y="94" type="curve"/>
      <point x="766" y="139" type="line"/>
      <point x="692" y="135"/>
      <point x="605" y="134"/>
      <point x="528" y="139" type="curve"/>
      <point x="562" y="199"/>
      <point x="568" y="208"/>
      <point x="623" y="294" type="curve"/>
      <point x="623" y="85"/>
      <point x="626" y="220"/>
      <point x="618" y="0" type="curve"/>
      <point x="700" y="0" type="line"/>
      <point x="694" y="110"/>
      <point x="694" y="226"/>
    </contour>
  </outline>
</glyph>
<glyph name="questiondown" format="2">
  <advance width="474"/>
  <unicode hex="00BF"/>
  <outline>
    <contour>
      <point x="316" y="540" type="curve"/>
      <point x="263" y="540" type="line"/>
      <point x="263" y="517"/>
      <point x="262" y="443"/>
      <point x="258" y="406" type="curve"/>
      <point x="102" y="406"/>
      <point x="25" y="315"/>
      <point x="25" y="201" type="curve" smooth="yes"/>
      <point x="25" y="94"/>
      <point x="98" y="-10"/>
      <point x="253" y="-10" type="curve" smooth="yes"/>
      <point x="319" y="-10"/>
      <point x="369" y="2"/>
      <point x="409" y="17" type="curve"/>
      <point x="397" y="64"/>
      <point x="389" y="89"/>
      <point x="379" y="149" type="curve"/>
      <point x="337" y="149" type="line"/>
      <point x="322" y="65" type="line"/>
      <point x="283" y="46"/>
      <point x="273" y="39"/>
      <point x="221" y="42" type="curve"/>
      <point x="154" y="58"/>
      <point x="117" y="129"/>
      <point x="117" y="200" type="curve" smooth="yes"/>
      <point x="117" y="295"/>
      <point x="169" y="364"/>
      <point x="330" y="364" type="curve"/>
      <point x="327" y="424"/>
      <point x="319" y="483"/>
    </contour>
    <contour>
      <point x="288" y="698" type="curve" smooth="yes"/>
      <point x="273" y="698"/>
      <point x="259" y="694"/>
      <point x="243" y="690" type="curve"/>
      <point x="239" y="674"/>
      <point x="236" y="661"/>
      <point x="236" y="645" type="curve" smooth="yes"/>
      <point x="236" y="630"/>
      <point x="239" y="615"/>
      <point x="243" y="600" type="curve"/>
      <point x="259" y="596"/>
      <point x="273" y="592"/>
      <point x="288" y="592" type="curve" smooth="yes"/>
      <point x="303" y="592"/>
      <point x="318" y="596"/>
      <point x="334" y="600" type="curve"/>
      <point x="336" y="615"/>
      <point x="339" y="630"/>
      <point x="339" y="645" type="curve" smooth="yes"/>
      <point x="339" y="661"/>
      <point x="336" y="674"/>
      <point x="334" y="690" type="curve"/>
      <point x="318" y="694"/>
      <point x="303" y="698"/>
    </contour>
  </outline>
</glyph>
<glyph name="Aacute" format="1">
  <advance width="683"/>
  <unicode hex="00C1"/>
  <outline>
    <component base="A"/>
    <component base="acute" xOffset="287" yOffset="229"/>
    <contour>
      <point x="615" y="10" type="move" name="ogonek"/>
    </contour>
    <contour>
      <point x="338" y="942" type="move" name="top"/>
    </contour>
  </outline>
</glyph>
<glyph name="Adieresis" format="1">
  <advance width="683"/>
  <unicode hex="00C4"/>
  <outline>
    <component base="A"/>
    <component base="dieresis" xOffset="205" yOffset="230"/>
    <contour>
      <point x="615" y="10" type="move" name="ogonek"/>
    </contour>
    <contour>
      <point x="342" y="660" type="move" name="top"/>
    </contour>
  </outline>
</glyph>
<glyph name="Iacute" format="1">
  <advance width="329"/>
  <unicode hex="00CD"/>
  <outline>
    <component base="I"/>
    <component base="acute" xOffset="110" yOffset="229"/>
    <contour>
      <point x="247" y="9" type="move" name="ogonek"/>
    </contour>
    <contour>
      <point x="162" y="660" type="move" name="top"/>
    </contour>
  </outline>
</glyph>
<glyph name="Icircumflex" format="1">
  <advance width="329"/>
  <unicode hex="00CE"/>
  <outline>
    <component base="I"/>
    <component base="circumflex" xOffset="6" yOffset="230"/>
    <contour>
      <point x="247" y="9" type="move" name="ogonek"/>
    </contour>
    <contour>
      <point x="162" y="660" type="move" name="top"/>
    </contour>
  </outline>
</glyph>
<glyph name="Ocircumflex" format="1">
  <advance width="673"/>
  <unicode hex="00D4"/>
  <outline>
    <component base="O"/>
    <component base="circumflex" xOffset="178" yOffset="230"/>
    <contour>
      <point x="333" y="660" type="move" name="top"/>
    </contour>
  </outline>
</glyph>
<glyph name="Oslash" format="2">
  <advance width="673"/>
  <unicode hex="00D8"/>
  <anchor x="338" y="660" name="top"/>
  <outline>
    <contour>
      <point x="88" y="4" type="line"/>
      <point x="146" y="-30" type="line"/>
      <point x="596" y="654" type="line"/>
      <point x="537" y="688" type="line"/>
    </contour>
    <component base="O"/>
  </outline>
</glyph>
<glyph name="Udieresis" format="1">
  <advance width="721"/>
  <unicode hex="00DC"/>
  <outline>
    <component base="U"/>
    <component base="dieresis" xOffset="224" yOffset="230"/>
    <contour>
      <point x="559" y="9" type="move" name="ogonek"/>
    </contour>
    <contour>
      <point x="367" y="660" type="move" name="top"/>
    </contour>
  </outline>
</glyph>
<glyph name="Thorn" format="2">
  <advance width="541"/>
  <unicode hex="00DE"/>
  <outline>
    <contour>
      <point x="139" y="515" type="curve"/>
      <point x="185" y="474" type="line"/>
      <point x="331" y="496"/>
      <point x="403" y="437"/>
      <point x="403" y="330" type="curve" smooth="yes"/>
      <point x="403" y="284"/>
      <point x="379" y="220"/>
      <point x="317" y="192" type="curve"/>
      <point x="266" y="182"/>
      <point x="217" y="197"/>
      <point x="170" y="215" type="curve"/>
      <point x="170" y="150" type="line"/>
      <point x="209" y="142"/>
      <point x="245" y="138"/>
      <point x="269" y="138" type="curve" smooth="yes"/>
      <point x="402" y="138"/>
      <point x="501" y="224"/>
      <point x="501" y="343" type="curve" smooth="yes"/>
      <point x="501" y="445"/>
      <point x="420" y="527"/>
      <point x="290" y="527" type="curve" smooth="yes"/>
      <point x="236" y="527"/>
      <point x="201" y="524"/>
    </contour>
    <component base="I" xOffset="-10"/>
  </outline>
</glyph>
<glyph name="adieresis" format="1">
  <advance width="464"/>
  <unicode hex="00E4"/>
  <outline>
    <component base="a"/>
    <component base="dieresis" xOffset="88"/>
    <contour>
      <point x="356" y="9" type="move" name="ogonek"/>
    </contour>
    <contour>
      <point x="218" y="430" type="move" name="top"/>
    </contour>
  </outline>
</glyph>
<glyph name="ae" format="2">
  <advance width="695"/>
  <unicode hex="00E6"/>
  <anchor x="492" y="0" name="bottom"/>
  <anchor x="629" y="50" name="ogonek"/>
  <anchor x="368" y="430" name="top"/>
  <outline>
    <contour>
      <point x="479" y="436" type="curve" smooth="yes"/>
      <point x="353" y="436"/>
      <point x="287" y="324"/>
      <point x="287" y="214" type="curve" smooth="yes"/>
      <point x="287" y="103"/>
      <point x="347" y="-9"/>
      <point x="489" y="-9" type="curve" smooth="yes"/>
      <point x="566" y="-9"/>
      <point x="621" y="23"/>
      <point x="660" y="60" type="curve"/>
      <point x="643" y="92" type="line"/>
      <point x="609" y="63"/>
      <point x="563" y="51"/>
      <point x="527" y="51" type="curve" smooth="yes"/>
      <point x="427" y="51"/>
      <point x="371" y="144"/>
      <point x="371" y="235" type="curve" smooth="yes"/>
      <point x="371" y="300"/>
      <point x="395" y="364"/>
      <point x="444" y="392" type="curve"/>
      <point x="538" y="392"/>
      <point x="568" y="333"/>
      <point x="568" y="292" type="curve"/>
      <point x="489" y="285"/>
      <point x="358" y="284"/>
      <point x="345" y="286" type="curve"/>
      <point x="345" y="244" type="line"/>
      <point x="342" y="243"/>
      <point x="584" y="239"/>
      <point x="665" y="249" type="curve"/>
      <point x="665" y="358"/>
      <point x="609" y="436"/>
    </contour>
    <contour>
      <point x="290" y="255" type="curve"/>
      <point x="290" y="228"/>
      <point x="265" y="230"/>
      <point x="211" y="219" type="curve" smooth="yes"/>
      <point x="151" y="208"/>
      <point x="37" y="191"/>
      <point x="37" y="112" type="curve" smooth="yes"/>
      <point x="37" y="45"/>
      <point x="78" y="-7"/>
      <point x="136" y="-7" type="curve" smooth="yes"/>
      <point x="191" y="-7"/>
      <point x="285" y="41"/>
      <point x="328" y="91" type="curve"/>
      <point x="309" y="132" type="line"/>
      <point x="262" y="83"/>
      <point x="203" y="61"/>
      <point x="170" y="61" type="curve" smooth="yes"/>
      <point x="148" y="61"/>
      <point x="126" y="80"/>
      <point x="126" y="118" type="curve" smooth="yes"/>
      <point x="126" y="134"/>
      <point x="129" y="147"/>
      <point x="141" y="157" type="curve"/>
      <point x="181" y="174"/>
      <point x="257" y="180"/>
      <point x="289" y="193" type="curve"/>
      <point x="295" y="214"/>
      <point x="290" y="234"/>
    </contour>
    <contour>
      <point x="287" y="203" type="curve"/>
      <point x="368" y="141" type="line"/>
      <point x="368" y="141"/>
      <point x="368" y="141"/>
      <point x="368" y="143" type="curve" smooth="yes"/>
      <point x="368" y="195"/>
      <point x="375" y="260"/>
      <point x="375" y="307" type="curve" smooth="yes"/>
      <point x="375" y="388"/>
      <point x="331" y="436"/>
      <point x="257" y="436" type="curve" smooth="yes"/>
      <point x="186" y="436"/>
      <point x="114" y="403"/>
      <point x="47" y="342" type="curve"/>
      <point x="73" y="310" type="line"/>
      <point x="124" y="348"/>
      <point x="189" y="377"/>
      <point x="249" y="377" type="curve"/>
      <point x="276" y="366"/>
      <point x="290" y="352"/>
      <point x="290" y="267" type="curve" smooth="yes"/>
      <point x="290" y="244"/>
      <point x="287" y="234"/>
    </contour>
  </outline>
</glyph>
<glyph name="ccedilla" format="1">
  <advance width="423"/>
  <unicode hex="00E7"/>
  <outline>
    <component base="c"/>
    <component base="cedilla" xOffset="174"/>
    <contour>
      <point x="249" y="0" type="move" name="bottom"/>
    </contour>
    <contour>
      <point x="246" y="430" type="move" name="top"/>
    </contour>
  </outline>
</glyph>
<glyph name="edieresis" format="1">
  <advance width="446"/>
  <unicode hex="00EB"/>
  <outline>
    <component base="e"/>
    <component base="dieresis" xOffset="101"/>
    <contour>
      <point x="206" y="0" type="move" name="bottom"/>
    </contour>
    <contour>
      <point x="343" y="9" type="move" name="ogonek"/>
    </contour>
    <contour>
      <point x="234" y="430" type="move" name="top"/>
    </contour>
  </outline>
</glyph>
<glyph name="icircumflex" format="1">
  <advance width="276"/>
  <unicode hex="00EE"/>
  <outline>
    <component base="idotless"/>
    <component base="circumflex" xOffset="-23"/>
    <contour>
      <point x="136" y="660" type="move" name="top"/>
    </contour>
  </outline>
</glyph>
<glyph name="oacute" format="1">
  <advance width="489"/>
  <unicode hex="00F3"/>
  <outline>
    <component base="o"/>
    <component base="acute" xOffset="193" yOffset="-1"/>
    <contour>
      <point x="241" y="430" type="move" name="top"/>
    </contour>
  </outline>
</glyph>
<glyph name="odieresis" format="1">
  <advance width="489"/>
  <unicode hex="00F6"/>
  <outline>
    <component base="o"/>
    <component base="dieresis" xOffset="111"/>
    <contour>
      <point x="241" y="430" type="move" name="top"/>
    </contour>
  </outline>
</glyph>
<glyph name="divide" format="2">
  <advance width="551"/>
  <unicode hex="00F7"/>
  <outline>
    <contour>
      <point x="526" y="362" type="line"/>
      <point x="376" y="358"/>
      <point x="175" y="358"/>
      <point x="25" y="362" type="curve"/>
      <point x="25" y="299" type="line"/>
      <point x="175" y="303"/>
      <point x="376" y="303"/>
      <point x="526" y="299" type="curve"/>
    </contour>
    <contour>
      <point x="276" y="441" type="curve" smooth="yes"/>
      <point x="302" y="441"/>
      <point x="323" y="462"/>
      <point x="323" y="489" type="curve" smooth="yes"/>
      <point x="323" y="515"/>
      <point x="302" y="536"/>
      <point x="276" y="536" type="curve" smooth="yes"/>
      <point x="249" y="536"/>
      <point x="228" y="515"/>
      <point x="228" y="489" type="curve" smooth="yes"/>
      <point x="228" y="462"/>
      <point x="249" y="441"/>
    </contour>
    <contour>
      <point x="276" y="125" type="curve" smooth="yes"/>
      <point x="302" y="125"/>
      <point x="323" y="146"/>
      <point x="323" y="173" type="curve" smooth="yes"/>
      <point x="323" y="199"/>
      <point x="302" y="220"/>
      <point x="276" y="220" type="curve" smooth="yes"/>
      <point x="249" y="220"/>
      <point x="228" y="199"/>
      <point x="228" y="173" type="curve" smooth="yes"/>
      <point x="228" y="146"/>
      <point x="249" y="125"/>
    </contour>
  </outline>
</glyph>
<glyph name="oslash" format="1">
  <advance width="478"/>
  <unicode hex="00F8"/>
  <outline>
    <contour>
      <point x="435" y="414" type="line"/>
      <point x="396" y="443" type="line"/>
      <point x="50" y="14" type="line"/>
      <point x="90" y="-15" type="line"/>
    </contour>
    <component base="o"/>
    <contour>
      <point x="229" y="430" type="move" name="top"/>
    </contour>
  </outline>
</glyph>
<glyph name="uacute" format="1">
  <advance width="548"/>
  <unicode hex="00FA"/>
  <outline>
    <component base="u"/>
    <component base="acute" xOffset="209" yOffset="-1"/>
    <contour>
      <point x="417" y="9" type="move" name="ogonek"/>
    </contour>
    <contour>
      <point x="266" y="430" type="move" name="top"/>
    </contour>
  </outline>
</glyph>
<glyph name="thorn" format="2">
  <advance width="523"/>
  <unicode hex="00FE"/>
  <outline>
    <contour>
      <point x="178" y="768" type="curve"/>
      <point x="117" y="756"/>
      <point x="52" y="751"/>
      <point x="6" y="749" type="curve"/>
      <point x="17" y="719" type="line"/>
      <point x="89" y="706" type="line"/>
      <point x="95" y="566"/>
      <point x="98" y="283"/>
      <point x="98" y="192" type="curve" smooth="yes"/>
      <point x="98" y="61"/>
      <point x="98" y="-164"/>
      <point x="93" y="-234" type="curve"/>
      <point x="13" y="-255" type="line"/>
      <point x="24" y="-283" type="line"/>
      <point x="64" y="-281"/>
      <point x="93" y="-279"/>
      <point x="138" y="-279" type="curve" smooth="yes"/>
      <point x="185" y="-279"/>
      <point x="214" y="-280"/>
      <point x="249" y="-283" type="curve"/>
      <point x="260" y="-255" type="line"/>
      <point x="181" y="-234" type="line"/>
      <point x="177" y="-28"/>
      <point x="175" y="78"/>
      <point x="175" y="200" type="curve" smooth="yes"/>
      <point x="175" y="331"/>
      <point x="176" y="680"/>
    </contour>
    <contour>
      <point x="320" y="436" type="curve" smooth="yes"/>
      <point x="252" y="436"/>
      <point x="181" y="397"/>
      <point x="127" y="310" type="curve"/>
      <point x="143" y="269" type="line"/>
      <point x="167" y="315"/>
      <point x="223" y="364"/>
      <point x="279" y="378" type="curve"/>
      <point x="358" y="374"/>
      <point x="401" y="307"/>
      <point x="401" y="205" type="curve" smooth="yes"/>
      <point x="401" y="108"/>
      <point x="352" y="52"/>
      <point x="295" y="52" type="curve" smooth="yes"/>
      <point x="236" y="52"/>
      <point x="182" y="81"/>
      <point x="137" y="144" type="curve"/>
      <point x="125" y="119" type="line"/>
      <point x="152" y="57"/>
      <point x="223" y="-6"/>
      <point x="297" y="-6" type="curve" smooth="yes"/>
      <point x="394" y="-6"/>
      <point x="493" y="73"/>
      <point x="493" y="227" type="curve" smooth="yes"/>
      <point x="493" y="362"/>
      <point x="412" y="436"/>
    </contour>
  </outline>
</glyph>
<glyph name="emacron" format="2">
  <advance width="448"/>
  <unicode hex="0113"/>
  <anchor x="206" y="0" name="bottom"/>
  <anchor x="343" y="9" name="ogonek"/>
  <anchor x="234" y="430" name="top"/>
  <outline>
    <contour>
      <point x="232" y="436" type="curve" smooth="yes"/>
      <point x="105" y="436"/>
      <point x="31" y="325"/>
      <point x="31" y="214" type="curve" smooth="yes"/>
      <point x="31" y="103"/>
      <point x="99" y="-9"/>
      <point x="242" y="-9" type="curve" smooth="yes"/>
      <point x="319" y="-9"/>
      <point x="374" y="23"/>
      <point x="413" y="60" type="curve"/>
      <point x="397" y="92" type="line"/>
      <point x="362" y="63"/>
      <point x="316" y="50"/>
      <point x="280" y="50" type="curve" smooth="yes"/>
      <point x="180" y="50"/>
      <point x="124" y="144"/>
      <point x="124" y="235" type="curve" smooth="yes"/>
      <point x="124" y="301"/>
      <point x="147" y="365"/>
      <point x="197" y="393" type="curve"/>
      <point x="291" y="393"/>
      <point x="321" y="333"/>
      <point x="321" y="293" type="curve"/>
      <point x="242" y="284"/>
      <point x="110" y="284"/>
      <point x="97" y="285" type="curve"/>
      <point x="97" y="244" type="line"/>
      <point x="95" y="244"/>
      <point x="338" y="239"/>
      <point x="418" y="250" type="curve"/>
      <point x="418" y="358"/>
      <point x="362" y="436"/>
    </contour>
    <contour>
      <point x="104" y="578" type="curve"/>
      <point x="104" y="517" type="line"/>
      <point x="192" y="519"/>
      <point x="279" y="519"/>
      <point x="367" y="517" type="curve"/>
      <point x="367" y="578" type="line"/>
      <point x="279" y="574"/>
      <point x="192" y="574"/>
    </contour>
  </outline>
</glyph>
<glyph name="Imacron" format="2">
  <advance width="326"/>
  <unicode hex="012A"/>
  <anchor x="247" y="9" name="ogonek"/>
  <anchor x="162" y="660" name="top"/>
  <outline>
    <contour>
      <point x="291" y="660" type="line"/>
      <point x="255" y="658"/>
      <point x="218" y="657"/>
      <point x="164" y="656" type="curve" smooth="yes"/>
      <point x="124" y="654"/>
      <point x="77" y="659"/>
      <point x="37" y="660" type="curve"/>
      <point x="26" y="629" type="line"/>
      <point x="115" y="608" type="line"/>
      <point x="123" y="380"/>
      <point x="119" y="267"/>
      <point x="115" y="51" type="curve"/>
      <point x="26" y="30" type="line"/>
      <point x="37" y="0" type="line"/>
      <point x="77" y="1"/>
      <point x="124" y="4"/>
      <point x="164" y="3" type="curve" smooth="yes"/>
      <point x="218" y="2"/>
      <point x="255" y="2"/>
      <point x="291" y="0" type="curve"/>
      <point x="301" y="30" type="line"/>
      <point x="213" y="51" type="line"/>
      <point x="209" y="271"/>
      <point x="212" y="380"/>
      <point x="213" y="608" type="curve"/>
      <point x="301" y="629" type="line"/>
    </contour>
    <contour>
      <point x="32" y="808" type="curve"/>
      <point x="32" y="747" type="line"/>
      <point x="120" y="749"/>
      <point x="207" y="749"/>
      <point x="295" y="747" type="curve"/>
      <point x="295" y="808" type="line"/>
      <point x="207" y="804"/>
      <point x="120" y="804"/>
    </contour>
  </outline>
</glyph>
<glyph name="iDotless" format="2">
  <advance width="276"/>
  <unicode hex="0131"/>
  <anchor x="136" y="430" name="top"/>
  <outline>
    <contour>
      <point x="186" y="433" type="curve"/>
      <point x="125" y="420"/>
      <point x="57" y="415"/>
      <point x="11" y="413" type="curve"/>
      <point x="21" y="384" type="line"/>
      <point x="94" y="371" type="line"/>
      <point x="99" y="299"/>
      <point x="99" y="272"/>
      <point x="100" y="226" type="curve" smooth="yes"/>
      <point x="100" y="167"/>
      <point x="100" y="113"/>
      <point x="98" y="48" type="curve"/>
      <point x="18" y="27" type="line"/>
      <point x="28" y="0" type="line"/>
      <point x="68" y="1"/>
      <point x="95" y="3"/>
      <point x="142" y="3" type="curve" smooth="yes"/>
      <point x="191" y="3"/>
      <point x="219" y="1"/>
      <point x="254" y="0" type="curve"/>
      <point x="265" y="27" type="line"/>
      <point x="186" y="48" type="line"/>
      <point x="185" y="97"/>
      <point x="182" y="179"/>
      <point x="182" y="228" type="curve" smooth="yes"/>
      <point x="182" y="296"/>
      <point x="183" y="357"/>
    </contour>
  </outline>
</glyph>
<glyph name="omacron" format="2">
  <advance width="476"/>
  <unicode hex="014D"/>
  <anchor x="241" y="430" name="top"/>
  <outline>
    <contour>
      <point x="244" y="435" type="curve" smooth="yes"/>
      <point x="102" y="435"/>
      <point x="31" y="331"/>
      <point x="31" y="206" type="curve" smooth="yes"/>
      <point x="31" y="96"/>
      <point x="98" y="-8"/>
      <point x="231" y="-8" type="curve" smooth="yes"/>
      <point x="376" y="-8"/>
      <point x="446" y="101"/>
      <point x="446" y="215" type="curve" smooth="yes"/>
      <point x="446" y="326"/>
      <point x="378" y="435"/>
    </contour>
    <contour>
      <point x="222" y="392" type="curve" smooth="yes"/>
      <point x="284" y="392"/>
      <point x="353" y="318"/>
      <point x="353" y="194" type="curve" smooth="yes"/>
      <point x="353" y="83"/>
      <point x="306" y="34"/>
      <point x="254" y="34" type="curve" smooth="yes"/>
      <point x="192" y="34"/>
      <point x="125" y="104"/>
      <point x="125" y="231" type="curve" smooth="yes"/>
      <point x="125" y="344"/>
      <point x="171" y="392"/>
    </contour>
    <contour>
      <point x="111" y="578" type="curve"/>
      <point x="111" y="517" type="line"/>
      <point x="199" y="519"/>
      <point x="286" y="519"/>
      <point x="374" y="517" type="curve"/>
      <point x="374" y="578" type="line"/>
      <point x="286" y="574"/>
      <point x="199" y="574"/>
    </contour>
  </outline>
</glyph>
<glyph name="OE" format="2">
  <advance width="907"/>
  <unicode hex="0152"/>
  <outline>
    <contour>
      <point x="331" y="-9" type="curve" smooth="yes"/>
      <point x="399" y="-9"/>
      <point x="430" y="0"/>
      <point x="496" y="4" type="curve"/>
      <point x="623" y="4"/>
      <point x="810" y="1"/>
      <point x="877" y="0" type="curve"/>
      <point x="872" y="65"/>
      <point x="868" y="127"/>
      <point x="868" y="185" type="curve"/>
      <point x="821" y="185" type="line"/>
      <point x="802" y="70" type="line"/>
      <point x="769" y="55"/>
      <point x="696" y="50"/>
      <point x="635" y="50" type="curve" smooth="yes"/>
      <point x="600" y="50"/>
      <point x="569" y="52"/>
      <point x="552" y="55" type="curve"/>
      <point x="550" y="121"/>
      <point x="550" y="186"/>
      <point x="550" y="253" type="curve" smooth="yes"/>
      <point x="550" y="273"/>
      <point x="550" y="293"/>
      <point x="550" y="314" type="curve"/>
      <point x="609" y="314" type="line" smooth="yes"/>
      <point x="634" y="314"/>
      <point x="659" y="314"/>
      <point x="687" y="313" type="curve"/>
      <point x="706" y="219" type="line"/>
      <point x="753" y="219" type="line"/>
      <point x="752" y="251"/>
      <point x="751" y="292"/>
      <point x="751" y="335" type="curve" smooth="yes"/>
      <point x="751" y="377"/>
      <point x="752" y="422"/>
      <point x="753" y="460" type="curve"/>
      <point x="706" y="460" type="line"/>
      <point x="687" y="368" type="line"/>
      <point x="659" y="368"/>
      <point x="634" y="367"/>
      <point x="609" y="367" type="curve" smooth="yes"/>
      <point x="590" y="367"/>
      <point x="571" y="367"/>
      <point x="550" y="368" type="curve"/>
      <point x="551" y="442"/>
      <point x="551" y="519"/>
      <point x="552" y="601" type="curve"/>
      <point x="580" y="605"/>
      <point x="608" y="606"/>
      <point x="637" y="606" type="curve" smooth="yes"/>
      <point x="689" y="606"/>
      <point x="741" y="600"/>
      <point x="790" y="586" type="curve"/>
      <point x="810" y="474" type="line"/>
      <point x="857" y="474" type="line"/>
      <point x="858" y="523"/>
      <point x="861" y="598"/>
      <point x="865" y="659" type="curve"/>
      <point x="788" y="656"/>
      <point x="700" y="655"/>
      <point x="601" y="655" type="curve" smooth="yes"/>
      <point x="506" y="655" type="line" smooth="yes"/>
      <point x="440" y="655"/>
      <point x="416" y="669"/>
      <point x="350" y="669" type="curve" smooth="yes"/>
      <point x="133" y="669"/>
      <point x="30" y="502"/>
      <point x="30" y="333" type="curve" smooth="yes"/>
      <point x="30" y="163"/>
      <point x="135" y="-9"/>
    </contour>
    <contour>
      <point x="497" y="92" type="line"/>
      <point x="501" y="96" type="line"/>
    </contour>
    <contour>
      <point x="357" y="44" type="curve" smooth="yes"/>
      <point x="210" y="44"/>
      <point x="130" y="205"/>
      <point x="130" y="357" type="curve" smooth="yes"/>
      <point x="130" y="490"/>
      <point x="192" y="617"/>
      <point x="325" y="617" type="curve" smooth="yes"/>
      <point x="374" y="617"/>
      <point x="416" y="613"/>
      <point x="455" y="588" type="curve"/>
      <point x="457" y="525"/>
      <point x="458" y="450"/>
      <point x="458" y="372" type="curve" smooth="yes"/>
      <point x="458" y="271"/>
      <point x="456" y="163"/>
      <point x="454" y="65" type="curve"/>
      <point x="424" y="52"/>
      <point x="388" y="44"/>
    </contour>
  </outline>
</glyph>
<glyph name="oe" format="1">
  <advance width="778"/>
  <unicode hex="0153"/>
  <outline>
    <component base="o"/>
    <component base="e" xOffset="332"/>
    <contour>
      <point x="401" y="430" type="move" name="top"/>
    </contour>
  </outline>
</glyph>
<glyph name="scaron" format="1">
  <advance width="387"/>
  <unicode hex="0161"/>
  <outline>
    <component base="s"/>
    <component base="caron" xOffset="41"/>
    <contour>
      <point x="180" y="0" type="move" name="bottom"/>
    </contour>
    <contour>
      <point x="184" y="660" type="move" name="top"/>
    </contour>
  </outline>
</glyph>
<glyph name="tbar" format="2">
  <advance width="316"/>
  <unicode hex="0167"/>
  <anchor x="173" y="0" name="bottom"/>
  <anchor x="233" y="465" name="topright"/>
  <outline>
    <contour>
      <point x="25" y="291" type="curve" smooth="yes"/>
      <point x="25" y="230" type="line" smooth="yes"/>
      <point x="113" y="232"/>
      <point x="200" y="232"/>
      <point x="288" y="230" type="curve" smooth="yes"/>
      <point x="288" y="291" type="line" smooth="yes"/>
      <point x="200" y="287"/>
      <point x="113" y="287"/>
    </contour>
    <component base="t"/>
  </outline>
</glyph>
<glyph name="caron" format="2">
  <advance width="300"/>
  <unicode hex="02C7"/>
  <anchor x="150" y="430" name="_top"/>
  <outline>
    <contour>
      <point x="131" y="477" type="curve"/>
      <point x="170" y="477" type="line"/>
      <point x="219" y="534"/>
      <point x="261" y="584"/>
      <point x="312" y="642" type="curve"/>
      <point x="285" y="667" type="line"/>
      <point x="244" y="623"/>
      <point x="207" y="581"/>
      <point x="174" y="553" type="curve"/>
      <point x="127" y="586"/>
      <point x="79" y="623"/>
      <point x="21" y="667" type="curve"/>
      <point x="-7" y="639" type="line"/>
      <point x="43" y="580"/>
      <point x="87" y="529"/>
    </contour>
  </outline>
</glyph>
<glyph name="colontriangularmod" format="2">
  <advance width="237"/>
  <unicode hex="02D0"/>
  <outline>
    <contour>
      <point x="129" y="116" type="line"/>
      <point x="108" y="116" type="line"/>
      <point x="55" y="15" type="line"/>
      <point x="63" y="1" type="line"/>
      <point x="96" y="-3"/>
      <point x="141" y="-3"/>
      <point x="174" y="1" type="curve"/>
      <point x="182" y="15" type="line"/>
    </contour>
    <contour>
      <point x="129" y="291" type="line"/>
      <point x="182" y="392" type="line"/>
      <point x="174" y="406" type="line"/>
      <point x="141" y="410"/>
      <point x="96" y="410"/>
      <point x="63" y="406" type="curve"/>
      <point x="55" y="392" type="line"/>
      <point x="108" y="291" type="line"/>
    </contour>
  </outline>
</glyph>
<glyph name="breve" format="2">
  <advance width="311"/>
  <unicode hex="02D8"/>
  <anchor x="167" y="430" name="_top"/>
  <outline>
    <contour>
      <point x="267" y="656" type="line"/>
      <point x="267" y="609"/>
      <point x="240" y="531"/>
      <point x="177" y="530" type="curve"/>
      <point x="131" y="536"/>
      <point x="88" y="578"/>
      <point x="81" y="660" type="curve"/>
      <point x="10" y="645" type="line"/>
      <point x="10" y="538"/>
      <point x="86" y="482"/>
      <point x="160" y="482" type="curve" smooth="yes"/>
      <point x="231" y="482"/>
      <point x="301" y="534"/>
      <point x="301" y="645" type="curve"/>
    </contour>
  </outline>
</glyph>
<glyph name="question-ar" format="2">
  <advance width="473"/>
  <unicode hex="061F"/>
  <outline>
    <contour>
      <point x="253" y="721" type="curve" smooth="yes"/>
      <point x="-56" y="721"/>
      <point x="-48" y="278"/>
      <point x="258" y="278" type="curve"/>
      <point x="260" y="242"/>
      <point x="263" y="175"/>
      <point x="263" y="151" type="curve"/>
      <point x="315" y="151" type="line"/>
      <point x="319" y="208"/>
      <point x="327" y="299"/>
      <point x="330" y="358" type="curve"/>
      <point x="315" y="356"/>
      <point x="301" y="356"/>
      <point x="288" y="356" type="curve" smooth="yes"/>
      <point x="176" y="356"/>
      <point x="109" y="425"/>
      <point x="109" y="533" type="curve" smooth="yes"/>
      <point x="109" y="604"/>
      <point x="139" y="649"/>
      <point x="184" y="670" type="curve"/>
      <point x="242" y="670"/>
      <point x="273" y="667"/>
      <point x="321" y="646" type="curve"/>
      <point x="337" y="564" type="line"/>
      <point x="379" y="564" type="line"/>
      <point x="388" y="622"/>
      <point x="397" y="647"/>
      <point x="408" y="694" type="curve"/>
      <point x="368" y="709"/>
      <point x="319" y="721"/>
    </contour>
    <contour>
      <point x="289" y="92" type="curve" smooth="yes"/>
      <point x="274" y="92"/>
      <point x="260" y="88"/>
      <point x="244" y="84" type="curve"/>
      <point x="241" y="69"/>
      <point x="238" y="55"/>
      <point x="238" y="40" type="curve" smooth="yes"/>
      <point x="238" y="24"/>
      <point x="241" y="10"/>
      <point x="244" y="-6" type="curve"/>
      <point x="260" y="-10"/>
      <point x="274" y="-14"/>
      <point x="289" y="-14" type="curve" smooth="yes"/>
      <point x="305" y="-14"/>
      <point x="320" y="-10"/>
      <point x="335" y="-6" type="curve"/>
      <point x="338" y="10"/>
      <point x="340" y="24"/>
      <point x="340" y="40" type="curve" smooth="yes"/>
      <point x="340" y="55"/>
      <point x="338" y="69"/>
      <point x="335" y="84" type="curve"/>
      <point x="320" y="88"/>
      <point x="305" y="92"/>
    </contour>
  </outline>
</glyph>
<glyph name="wawHamzaabove-ar" format="1">
  <advance width="505"/>
  <unicode hex="0624"/>
  <outline>
    <contour>
      <point x="419" y="201" type="curve"/>
      <point x="417" y="212"/>
      <point x="419" y="217"/>
      <point x="423" y="217" type="curve"/>
      <point x="524" y="217" type="line"/>
      <point x="524" y="227"/>
      <point x="523" y="251"/>
      <point x="518" y="251" type="curve" smooth="yes"/>
      <point x="417" y="251" type="line"/>
      <point x="409" y="251"/>
      <point x="411" y="274"/>
      <point x="417" y="274" type="curve"/>
      <point x="524" y="274" type="line"/>
      <point x="524" y="285"/>
      <point x="523" y="309"/>
      <point x="518" y="309" type="curve" smooth="yes"/>
      <point x="406" y="309" type="line"/>
      <point x="400" y="309"/>
      <point x="404" y="333"/>
      <point x="410" y="333" type="curve"/>
      <point x="524" y="333" type="line"/>
      <point x="524" y="342"/>
      <point x="523" y="367"/>
      <point x="518" y="367" type="curve" smooth="yes"/>
      <point x="396" y="367" type="line" smooth="yes"/>
      <point x="391" y="367"/>
      <point x="391" y="367"/>
      <point x="387" y="381" type="curve"/>
      <point x="378" y="382"/>
      <point x="379" y="367"/>
      <point x="369" y="367" type="curve"/>
      <point x="362" y="217" type="line"/>
      <point x="371" y="217"/>
      <point x="408" y="208"/>
    </contour>
    <component base="waw-ar"/>
    <contour>
      <point x="336" y="-211" type="move" name="bottom"/>
    </contour>
    <contour>
      <point x="171" y="370" type="move" name="top"/>
    </contour>
  </outline>
</glyph>
<glyph name="alef-ar" format="2">
  <advance width="205"/>
  <unicode hex="0627"/>
  <image fileName="../../../Reading/glyphs fonts/Etincelle/Etincelle arabic regular scans/alef-ar.jpeg" xScale="1.4" yScale="1.4" xOffset="-56" yOffset="-75"/>
  <anchor x="99" y="-56" name="bottom"/>
  <anchor x="94" y="600" name="top"/>
  <outline>
    <contour>
      <point x="137" y="567" type="curve"/>
      <point x="132" y="574"/>
      <point x="128" y="578"/>
      <point x="125" y="578" type="curve" smooth="yes"/>
      <point x="109" y="578"/>
      <point x="84" y="572"/>
      <point x="55" y="554" type="curve"/>
      <point x="70" y="424"/>
      <point x="78" y="226"/>
      <point x="77" y="-21" type="curve"/>
      <point x="94" y="-23"/>
      <point x="125" y="-18"/>
      <point x="134" y="-6" type="curve"/>
      <point x="134" y="7"/>
      <point x="135" y="87"/>
      <point x="135" y="161" type="curve" smooth="yes"/>
      <point x="134" y="253"/>
      <point x="138" y="463"/>
    </contour>
  </outline>
</glyph>
<glyph name="beh-ar" format="1">
  <advance width="542"/>
  <unicode hex="0628"/>
  <outline>
    <component base="behDotless-ar"/>
    <component base="dotbelow-ar" xOffset="175" yOffset="-30"/>
    <contour>
      <point x="284" y="-247" type="move" name="bottom"/>
    </contour>
    <contour>
      <point x="292" y="297" type="move" name="top"/>
    </contour>
  </outline>
</glyph>
<glyph name="dal-ar" format="2">
  <advance width="431"/>
  <unicode hex="062F"/>
  <anchor x="306" y="-60" name="bottom"/>
  <anchor x="269" y="300" name="top"/>
  <outline>
    <contour>
      <point x="307" y="128" type="curve" smooth="yes"/>
      <point x="310" y="116"/>
      <point x="311" y="108"/>
      <point x="311" y="103" type="curve" smooth="yes"/>
      <point x="311" y="95"/>
      <point x="309" y="93"/>
      <point x="305" y="93" type="curve" smooth="yes"/>
      <point x="141" y="93"/>
      <point x="95" y="86"/>
      <point x="95" y="-38" type="curve" smooth="yes"/>
      <point x="95" y="-85"/>
      <point x="101" y="-148"/>
      <point x="111" y="-235" type="curve"/>
      <point x="124" y="-235"/>
      <point x="148" y="-233"/>
      <point x="148" y="-214" type="curve" smooth="yes"/>
      <point x="151" y="-38"/>
      <point x="153" y="0"/>
      <point x="181" y="0" type="curve" smooth="yes"/>
      <point x="331" y="0"/>
      <point x="239" y="0"/>
      <point x="320" y="0" type="curve" smooth="yes"/>
      <point x="361" y="0"/>
      <point x="371" y="29"/>
      <point x="371" y="105" type="curve" smooth="yes"/>
      <point x="371" y="152"/>
      <point x="371" y="199"/>
      <point x="363" y="239" type="curve"/>
      <point x="295" y="235"/>
      <point x="246" y="230"/>
      <point x="211" y="230" type="curve" smooth="yes"/>
      <point x="148" y="230"/>
      <point x="132" y="239"/>
      <point x="132" y="322" type="curve" smooth="yes"/>
      <point x="132" y="356"/>
      <point x="135" y="401"/>
      <point x="138" y="460" type="curve"/>
      <point x="101" y="460"/>
      <point x="90" y="456"/>
      <point x="73" y="448" type="curve" smooth="yes"/>
      <point x="66" y="444"/>
      <point x="60" y="439"/>
      <point x="60" y="430" type="curve"/>
      <point x="82" y="185"/>
      <point x="65" y="136"/>
      <point x="299" y="134" type="curve" smooth="yes"/>
      <point x="305" y="134"/>
      <point x="306" y="132"/>
    </contour>
  </outline>
</glyph>
<glyph name="reh-ar" format="1">
  <advance width="333"/>
  <unicode hex="0631"/>
  <outline>
    <contour>
      <point x="212" y="-82" type="curve" smooth="yes"/>
      <point x="247" y="-54"/>
      <point x="258" y="25"/>
      <point x="258" y="97" type="curve" smooth="yes"/>
      <point x="258" y="161"/>
      <point x="248" y="227"/>
      <point x="236" y="271" type="curve" smooth="yes"/>
      <point x="234" y="279"/>
      <point x="231" y="285"/>
      <point x="219" y="285" type="curve"/>
      <point x="210" y="280"/>
      <point x="181" y="266"/>
      <point x="151" y="247" type="curve"/>
      <point x="171" y="201"/>
      <point x="199" y="142"/>
      <point x="199" y="69" type="curve" smooth="yes"/>
      <point x="199" y="-8"/>
      <point x="-111" y="-247"/>
      <point x="-320" y="-413" type="curve"/>
      <point x="-320" y="-423"/>
      <point x="-318" y="-427"/>
      <point x="-311" y="-433" type="curve"/>
      <point x="-65" y="-293"/>
      <point x="82" y="-188"/>
    </contour>
    <contour>
      <point x="196" y="-181" type="move" name="bottom"/>
    </contour>
    <contour>
      <point x="145" y="320" type="move" name="top"/>
    </contour>
  </outline>
</glyph>
<glyph name="seen-ar" format="2">
  <advance width="1093"/>
  <unicode hex="0633"/>
  <anchor x="858" y="-30" name="bottom"/>
  <anchor x="823" y="309" name="top"/>
  <outline>
    <contour>
      <point x="617" y="247" type="curve"/>
      <point x="667" y="170"/>
      <point x="686" y="111"/>
      <point x="686" y="73" type="curve" smooth="yes"/>
      <point x="686" y="35"/>
      <point x="502" y="-140"/>
      <point x="265" y="-140" type="curve" smooth="yes"/>
      <point x="148" y="-140"/>
      <point x="57" y="-89"/>
      <point x="57" y="22" type="curve" smooth="yes"/>
      <point x="57" y="56"/>
      <point x="66" y="95"/>
      <point x="84" y="139" type="curve"/>
      <point x="82" y="147"/>
      <point x="73" y="150"/>
      <point x="65" y="150" type="curve" smooth="yes"/>
      <point x="64" y="150"/>
      <point x="64" y="150"/>
      <point x="63" y="150" type="curve"/>
      <point x="22" y="84"/>
      <point x="0" y="35"/>
      <point x="0" y="-39" type="curve" smooth="yes"/>
      <point x="0" y="-175"/>
      <point x="104" y="-232"/>
      <point x="237" y="-232" type="curve" smooth="yes"/>
      <point x="401" y="-232"/>
      <point x="564" y="-166"/>
      <point x="733" y="-9" type="curve" smooth="yes"/>
      <point x="740" y="-2"/>
      <point x="741" y="0"/>
      <point x="750" y="0" type="curve" smooth="yes"/>
      <point x="964" y="0" type="line"/>
      <point x="1018" y="0"/>
      <point x="1036" y="64"/>
      <point x="1036" y="138" type="curve" smooth="yes"/>
      <point x="1036" y="182"/>
      <point x="1033" y="230"/>
      <point x="1020" y="271" type="curve"/>
      <point x="1018" y="279"/>
      <point x="1015" y="285"/>
      <point x="1003" y="285" type="curve"/>
      <point x="994" y="280"/>
      <point x="965" y="266"/>
      <point x="935" y="247" type="curve"/>
      <point x="950" y="213"/>
      <point x="978" y="156"/>
      <point x="978" y="111" type="curve" smooth="yes"/>
      <point x="978" y="93"/>
      <point x="972" y="90"/>
      <point x="959" y="90" type="curve" smooth="yes"/>
      <point x="925" y="90" type="line" smooth="yes"/>
      <point x="892" y="90"/>
      <point x="891" y="101"/>
      <point x="888" y="138" type="curve" smooth="yes"/>
      <point x="884" y="182"/>
      <point x="878" y="230"/>
      <point x="865" y="271" type="curve"/>
      <point x="863" y="279"/>
      <point x="860" y="285"/>
      <point x="848" y="285" type="curve"/>
      <point x="839" y="280"/>
      <point x="810" y="266"/>
      <point x="780" y="247" type="curve"/>
      <point x="795" y="213"/>
      <point x="831" y="156"/>
      <point x="831" y="111" type="curve" smooth="yes"/>
      <point x="831" y="93"/>
      <point x="825" y="90"/>
      <point x="812" y="90" type="curve" smooth="yes"/>
      <point x="756" y="90" type="line" smooth="yes"/>
      <point x="733" y="90"/>
      <point x="738" y="159"/>
      <point x="705" y="259" type="curve" smooth="yes"/>
      <point x="698" y="280"/>
      <point x="695" y="285"/>
      <point x="683" y="285" type="curve"/>
      <point x="672" y="280"/>
      <point x="637" y="260"/>
    </contour>
  </outline>
</glyph>
<glyph name="sheen-ar" format="1">
  <advance width="1093"/>
  <unicode hex="0634"/>
  <outline>
    <component base="seen-ar"/>
    <component base="threedotsupabove-ar" xOffset="658" yOffset="14"/>
    <contour>
      <point x="858" y="-30" type="move" name="bottom"/>
    </contour>
    <contour>
      <point x="823" y="660" type="move" name="top"/>
    </contour>
  </outline>
</glyph>
<glyph name="tah-ar" format="2">
  <advance width="769"/>
  <unicode hex="0637"/>
  <anchor x="441" y="-30" name="bottom"/>
  <anchor x="421" y="405" name="top"/>
  <outline>
    <contour>
      <point x="243" y="264" type="curve" smooth="yes"/>
      <point x="221" y="251"/>
      <point x="219" y="257"/>
      <point x="217" y="286" type="curve" smooth="yes"/>
      <point x="213" y="344"/>
      <point x="209" y="428"/>
      <point x="199" y="582" type="curve"/>
      <point x="194" y="589"/>
      <point x="190" y="593"/>
      <point x="187" y="593" type="curve" smooth="yes"/>
      <point x="171" y="593"/>
      <point x="131" y="574"/>
      <point x="102" y="556" type="curve"/>
      <point x="135" y="389"/>
      <point x="158" y="262"/>
      <point x="161" y="132" type="curve" smooth="yes"/>
      <point x="162" y="92"/>
      <point x="150" y="90"/>
      <point x="136" y="90" type="curve" smooth="yes"/>
      <point x="60" y="90" type="line"/>
      <point x="60" y="70"/>
      <point x="65" y="30"/>
      <point x="85" y="0" type="curve"/>
      <point x="652" y="0" type="line" smooth="yes"/>
      <point x="695" y="0"/>
      <point x="709" y="84"/>
      <point x="709" y="182" type="curve" smooth="yes"/>
      <point x="709" y="329"/>
      <point x="663" y="376"/>
      <point x="572" y="376" type="curve" smooth="yes"/>
      <point x="486" y="376"/>
      <point x="357" y="329"/>
    </contour>
    <contour>
      <point x="254" y="90" type="line" smooth="yes"/>
      <point x="228" y="90"/>
      <point x="223" y="91"/>
      <point x="223" y="168" type="curve" smooth="yes"/>
      <point x="223" y="197"/>
      <point x="425" y="280"/>
      <point x="542" y="280" type="curve" smooth="yes"/>
      <point x="622" y="280"/>
      <point x="648" y="229"/>
      <point x="648" y="154" type="curve" smooth="yes"/>
      <point x="648" y="109"/>
      <point x="643" y="90"/>
      <point x="609" y="90" type="curve" smooth="yes"/>
    </contour>
  </outline>
</glyph>
<glyph name="zah-ar" format="1">
  <advance width="769"/>
  <unicode hex="0638"/>
  <outline>
    <component base="tah-ar"/>
    <component base="dotabove-ar" xOffset="312" yOffset="86"/>
    <contour>
      <point x="438" y="-30" type="move" name="bottom"/>
    </contour>
    <contour>
      <point x="418" y="585" type="move" name="top"/>
    </contour>
  </outline>
</glyph>
<glyph name="ghain-ar" format="1">
  <advance width="590"/>
  <unicode hex="063A"/>
  <outline>
    <component base="ain-ar"/>
    <component base="dotabove-ar" xOffset="308" yOffset="78"/>
    <contour>
      <point x="344" y="-111" type="move" name="bottom"/>
    </contour>
    <contour>
      <point x="421" y="591" type="move" name="top"/>
    </contour>
  </outline>
</glyph>
<glyph name="kashida-ar" format="2">
  <advance width="79"/>
  <unicode hex="0640"/>
  <anchor x="40" y="-30" name="bottom"/>
  <anchor x="40" y="180" name="top"/>
  <outline>
    <contour>
      <point x="-20" y="0" type="line"/>
      <point x="99" y="0" type="line"/>
      <point x="99" y="90" type="line"/>
      <point x="-20" y="90" type="line"/>
    </contour>
  </outline>
</glyph>
<glyph name="qaf-ar" format="1">
  <advance width="491"/>
  <unicode hex="0642"/>
  <outline>
    <component base="qafDotless-ar"/>
    <component base="twodotshorizontalabove-ar" xOffset="-11" yOffset="205"/>
    <contour>
      <point x="248" y="-30" type="move" name="bottom"/>
    </contour>
    <contour>
      <point x="144" y="678" type="move" name="top"/>
    </contour>
  </outline>
</glyph>
<glyph name="kaf-ar" format="1">
  <advance width="757"/>
  <unicode hex="0643"/>
  <outline>
    <component base="keheh-ar"/>
    <contour>
      <point x="375" y="-40" type="move" name="bottom"/>
    </contour>
    <contour>
      <point x="205" y="467" type="move" name="top"/>
    </contour>
  </outline>
</glyph>
<glyph name="noon-ar" format="1">
  <advance width="812"/>
  <unicode hex="0646"/>
  <outline>
    <component base="noonghunna-ar"/>
    <component base="dotabove-ar" xOffset="268" yOffset="-122"/>
    <contour>
      <point x="376" y="-260" type="move" name="bottom"/>
    </contour>
    <contour>
      <point x="382" y="407" type="move" name="top"/>
    </contour>
  </outline>
</glyph>
<glyph name="heh-ar" format="2">
  <advance width="474"/>
  <unicode hex="0647"/>
  <anchor x="263" y="-30" name="bottom"/>
  <anchor x="261" y="428" name="top"/>
  <outline>
    <contour>
      <point x="361" y="164" type="curve" smooth="yes"/>
      <point x="361" y="99"/>
      <point x="355" y="92"/>
      <point x="302" y="90" type="curve" smooth="yes"/>
      <point x="255" y="89"/>
      <point x="156" y="87"/>
      <point x="158" y="100" type="curve" smooth="yes"/>
      <point x="166" y="158"/>
      <point x="308" y="286"/>
      <point x="347" y="286" type="curve" smooth="yes"/>
      <point x="352" y="286"/>
      <point x="352" y="279"/>
      <point x="354" y="270" type="curve" smooth="yes"/>
      <point x="359" y="243"/>
      <point x="361" y="190"/>
    </contour>
    <contour>
      <point x="368" y="0" type="curve"/>
      <point x="417" y="0"/>
      <point x="419" y="79"/>
      <point x="419" y="152" type="curve" smooth="yes"/>
      <point x="419" y="188"/>
      <point x="411" y="306"/>
      <point x="411" y="356" type="curve"/>
      <point x="394" y="375"/>
      <point x="367" y="395"/>
      <point x="357" y="395" type="curve" smooth="yes"/>
      <point x="301" y="395"/>
      <point x="54" y="147"/>
      <point x="54" y="93" type="curve" smooth="yes"/>
      <point x="54" y="61"/>
      <point x="55" y="43"/>
      <point x="68" y="0" type="curve"/>
      <point x="159" y="0"/>
      <point x="268" y="0"/>
    </contour>
  </outline>
</glyph>
<glyph name="waw-ar" format="1">
  <advance width="515"/>
  <unicode hex="0648"/>
  <outline>
    <contour>
      <point x="361" y="114" type="curve" smooth="yes"/>
      <point x="361" y="99"/>
      <point x="353" y="96"/>
      <point x="332" y="93" type="curve" smooth="yes"/>
      <point x="324" y="92"/>
      <point x="303" y="91"/>
      <point x="280" y="91" type="curve" smooth="yes"/>
      <point x="231" y="91"/>
      <point x="182" y="95"/>
      <point x="189" y="106" type="curve" smooth="yes"/>
      <point x="224" y="160"/>
      <point x="306" y="270"/>
      <point x="322" y="270" type="curve" smooth="yes"/>
      <point x="336" y="270"/>
      <point x="361" y="146"/>
    </contour>
    <contour>
      <point x="329" y="6" type="curve" smooth="yes"/>
      <point x="337" y="7"/>
      <point x="341" y="6"/>
      <point x="341" y="4" type="curve" smooth="yes"/>
      <point x="341" y="3"/>
      <point x="339" y="0"/>
      <point x="336" y="-3" type="curve" smooth="yes"/>
      <point x="239" y="-105"/>
      <point x="34" y="-275"/>
      <point x="-152" y="-413" type="curve"/>
      <point x="-152" y="-423"/>
      <point x="-150" y="-427"/>
      <point x="-143" y="-433" type="curve"/>
      <point x="89" y="-306"/>
      <point x="252" y="-197"/>
      <point x="395" y="-89" type="curve" smooth="yes"/>
      <point x="418" y="-72"/>
      <point x="425" y="25"/>
      <point x="425" y="97" type="curve" smooth="yes"/>
      <point x="425" y="165"/>
      <point x="414" y="276"/>
      <point x="388" y="380" type="curve" smooth="yes"/>
      <point x="387" y="384"/>
      <point x="383" y="385"/>
      <point x="376" y="385" type="curve" smooth="yes"/>
      <point x="360" y="385"/>
      <point x="330" y="375"/>
      <point x="309" y="366" type="curve"/>
      <point x="257" y="326"/>
      <point x="109" y="148"/>
      <point x="64" y="84" type="curve"/>
      <point x="64" y="52"/>
      <point x="66" y="23"/>
      <point x="78" y="0" type="curve"/>
      <point x="102" y="0"/>
      <point x="125" y="0"/>
      <point x="149" y="0" type="curve" smooth="yes"/>
      <point x="211" y="0"/>
      <point x="262" y="1"/>
    </contour>
    <contour>
      <point x="336" y="-211" type="move" name="bottom"/>
    </contour>
    <contour>
      <point x="171" y="370" type="move" name="top"/>
    </contour>
  </outline>
</glyph>
<glyph name="alefMaksura-ar" format="1">
  <advance width="766"/>
  <unicode hex="0649"/>
  <outline>
    <contour>
      <point x="675" y="182" type="curve"/>
      <point x="702" y="198"/>
      <point x="726" y="240"/>
      <point x="726" y="261" type="curve"/>
      <point x="711" y="274"/>
      <point x="696" y="280"/>
      <point x="670" y="280" type="curve" smooth="yes"/>
      <point x="594" y="280"/>
      <point x="498" y="230"/>
      <point x="390" y="168" type="curve"/>
      <point x="390" y="134"/>
      <point x="393" y="97"/>
      <point x="406" y="76" type="curve"/>
      <point x="468" y="56"/>
      <point x="501" y="43"/>
      <point x="547" y="14" type="curve" smooth="yes"/>
      <point x="553" y="10"/>
      <point x="551" y="4"/>
      <point x="548" y="-2" type="curve" smooth="yes"/>
      <point x="471" y="-145"/>
      <point x="292" y="-238"/>
      <point x="160" y="-238" type="curve" smooth="yes"/>
      <point x="71" y="-238"/>
      <point x="4" y="-196"/>
      <point x="4" y="-98" type="curve" smooth="yes"/>
      <point x="4" y="-86"/>
      <point x="5" y="-73"/>
      <point x="8" y="-59" type="curve"/>
      <point x="3" y="-55"/>
      <point x="1" y="-53"/>
      <point x="-5" y="-53" type="curve" smooth="yes"/>
      <point x="-9" y="-53"/>
      <point x="-12" y="-54"/>
      <point x="-15" y="-55" type="curve"/>
      <point x="-32" y="-96"/>
      <point x="-40" y="-133"/>
      <point x="-40" y="-164" type="curve" smooth="yes"/>
      <point x="-40" y="-279"/>
      <point x="37" y="-328"/>
      <point x="139" y="-328" type="curve" smooth="yes"/>
      <point x="305" y="-328"/>
      <point x="530" y="-199"/>
      <point x="625" y="-13" type="curve" smooth="yes"/>
      <point x="635" y="7"/>
      <point x="640" y="26"/>
      <point x="640" y="40" type="curve" smooth="yes"/>
      <point x="640" y="48"/>
      <point x="638" y="55"/>
      <point x="634" y="58" type="curve" smooth="yes"/>
      <point x="573" y="106"/>
      <point x="475" y="130"/>
      <point x="475" y="148" type="curve" smooth="yes"/>
      <point x="475" y="155"/>
      <point x="571" y="193"/>
      <point x="629" y="193" type="curve" smooth="yes"/>
      <point x="656" y="193"/>
      <point x="670" y="184"/>
    </contour>
    <contour>
      <point x="596" y="-164" type="move" name="bottom"/>
    </contour>
    <contour>
      <point x="475" y="261" type="move" name="top"/>
    </contour>
  </outline>
</glyph>
<glyph name="kasratan-ar" format="1">
  <advance width="299"/>
  <unicode hex="064D"/>
  <outline>
    <component base="kasra-ar" xOffset="40"/>
    <component base="kasra-ar" xOffset="2" yOffset="-76"/>
    <contour>
      <point x="169" y="-59" type="move" name="_bottom"/>
    </contour>
    <contour>
      <point x="171" y="-214" type="move" name="bottom"/>
    </contour>
  </outline>
</glyph>
<glyph name="fatha-ar" format="2">
  <unicode hex="064E"/>
  <anchor x="126" y="533" name="_top"/>
  <anchor x="125" y="604" name="top"/>
  <anchor x="-20" y="550" name="top_alef"/>
  <outline>
    <contour>
      <point x="32" y="596" type="line"/>
      <point x="32" y="584"/>
      <point x="34" y="561"/>
      <point x="43" y="561" type="curve" smooth="yes"/>
      <point x="218" y="561" type="line"/>
      <point x="218" y="573"/>
      <point x="215" y="596"/>
      <point x="206" y="596" type="curve" smooth="yes"/>
    </contour>
  </outline>
</glyph>
<glyph name="kasra-ar" format="1">
  <advance width="257"/>
  <unicode hex="0650"/>
  <outline>
    <component base="fatha-ar" yOffset="-669"/>
    <contour>
      <point x="129" y="-50" type="move" name="_bottom"/>
    </contour>
    <contour>
      <point x="131" y="-126" type="move" name="bottom"/>
    </contour>
  </outline>
</glyph>
<glyph name="shadda-ar" format="2">
  <unicode hex="0651"/>
  <anchor x="128" y="546" name="_top"/>
  <anchor x="119" y="729" name="top"/>
  <outline>
    <contour>
      <point x="42" y="587" type="curve" smooth="yes"/>
      <point x="43" y="579"/>
      <point x="46" y="576"/>
      <point x="64" y="576" type="curve" smooth="yes"/>
      <point x="205" y="576" type="line"/>
      <point x="208" y="596"/>
      <point x="210" y="616"/>
      <point x="210" y="636" type="curve" smooth="yes"/>
      <point x="210" y="659"/>
      <point x="208" y="682"/>
      <point x="204" y="705" type="curve"/>
      <point x="188" y="705"/>
      <point x="169" y="702"/>
      <point x="169" y="695" type="curve"/>
      <point x="178" y="671"/>
      <point x="181" y="644"/>
      <point x="181" y="626" type="curve" smooth="yes"/>
      <point x="181" y="611"/>
      <point x="178" y="611"/>
      <point x="156" y="611" type="curve" smooth="yes"/>
      <point x="145" y="611"/>
      <point x="141" y="613"/>
      <point x="141" y="619" type="curve" smooth="yes"/>
      <point x="141" y="654"/>
      <point x="139" y="675"/>
      <point x="134" y="705" type="curve"/>
      <point x="120" y="705"/>
      <point x="99" y="702"/>
      <point x="99" y="695" type="curve"/>
      <point x="109" y="672"/>
      <point x="111" y="650"/>
      <point x="111" y="626" type="curve" smooth="yes"/>
      <point x="111" y="612"/>
      <point x="109" y="611"/>
      <point x="86" y="611" type="curve" smooth="yes"/>
      <point x="74" y="611"/>
      <point x="71" y="613"/>
      <point x="69" y="634" type="curve" smooth="yes"/>
      <point x="67" y="654"/>
      <point x="66" y="669"/>
      <point x="60" y="705" type="curve"/>
      <point x="48" y="705"/>
      <point x="24" y="702"/>
      <point x="24" y="695" type="curve"/>
      <point x="36" y="656"/>
      <point x="39" y="633"/>
    </contour>
  </outline>
</glyph>
<glyph name="sukun-ar" format="2">
  <unicode hex="0652"/>
  <anchor x="118" y="538" name="_top"/>
  <anchor x="116" y="738" name="top"/>
  <outline>
    <contour>
      <point x="116" y="570" type="curve" smooth="yes"/>
      <point x="154" y="570"/>
      <point x="186" y="601"/>
      <point x="186" y="640" type="curve" smooth="yes"/>
      <point x="186" y="679"/>
      <point x="154" y="710"/>
      <point x="116" y="710" type="curve" smooth="yes"/>
      <point x="77" y="710"/>
      <point x="45" y="679"/>
      <point x="45" y="640" type="curve" smooth="yes"/>
      <point x="45" y="599"/>
      <point x="78" y="570"/>
    </contour>
    <contour>
      <point x="116" y="601" type="curve" smooth="yes"/>
      <point x="94" y="601"/>
      <point x="77" y="618"/>
      <point x="77" y="640" type="curve" smooth="yes"/>
      <point x="77" y="662"/>
      <point x="94" y="679"/>
      <point x="116" y="679" type="curve" smooth="yes"/>
      <point x="137" y="679"/>
      <point x="155" y="662"/>
      <point x="155" y="640" type="curve" smooth="yes"/>
      <point x="155" y="618"/>
      <point x="137" y="601"/>
    </contour>
  </outline>
</glyph>
<glyph name="hamzabelow-ar" format="1">
  <advance width="160"/>
  <unicode hex="0655"/>
  <outline>
    <component base="hamzaabove-ar" yOffset="-700"/>
    <contour>
      <point x="73" y="-25" type="move" name="_bottom"/>
    </contour>
    <contour>
      <point x="85" y="-179" type="move" name="bottom"/>
    </contour>
  </outline>
</glyph>
<glyph name="vabove-ar" format="2">
  <unicode hex="065A"/>
  <anchor x="115" y="484" name="_top"/>
  <anchor x="115" y="660" name="top"/>
  <outline>
    <contour>
      <point x="15" y="623" type="curve"/>
      <point x="53" y="583"/>
      <point x="83" y="542"/>
      <point x="105" y="509" type="curve"/>
      <point x="114" y="508"/>
      <point x="118" y="508"/>
      <point x="128" y="509" type="curve"/>
      <point x="216" y="623" type="line"/>
      <point x="216" y="629"/>
      <point x="199" y="640"/>
      <point x="187" y="646" type="curve"/>
      <point x="117" y="551" type="line"/>
      <point x="46" y="646" type="line"/>
      <point x="38" y="646"/>
      <point x="15" y="632"/>
    </contour>
  </outline>
</glyph>
<glyph name="vinvertedabove-ar" format="2">
  <unicode hex="065B"/>
  <anchor x="118" y="499" name="_top"/>
  <anchor x="119" y="671" name="top"/>
  <outline>
    <contour>
      <point x="15" y="536" type="curve"/>
      <point x="15" y="526"/>
      <point x="37" y="511"/>
      <point x="45" y="511" type="curve"/>
      <point x="121" y="599" type="line"/>
      <point x="198" y="509" type="line"/>
      <point x="211" y="515"/>
      <point x="226" y="530"/>
      <point x="223" y="534" type="curve"/>
      <point x="151" y="624" type="line" smooth="yes"/>
      <point x="139" y="638"/>
      <point x="121" y="651"/>
      <point x="111" y="651" type="curve" smooth="yes"/>
      <point x="111" y="651"/>
      <point x="75" y="596"/>
    </contour>
  </outline>
</glyph>
<glyph name="zero-ar" format="2">
  <advance width="322"/>
  <unicode hex="0660"/>
  <outline>
    <contour>
      <point x="159" y="255" type="curve"/>
      <point x="186" y="271"/>
      <point x="227" y="309"/>
      <point x="227" y="334" type="curve"/>
      <point x="212" y="364"/>
      <point x="190" y="387"/>
      <point x="163" y="406" type="curve"/>
      <point x="130" y="394"/>
      <point x="95" y="346"/>
      <point x="95" y="322" type="curve"/>
      <point x="118" y="302"/>
      <point x="135" y="282"/>
    </contour>
  </outline>
</glyph>
<glyph name="two-ar" format="1">
  <advance width="460"/>
  <unicode hex="0662"/>
  <outline>
    <contour>
      <point x="113" y="518" type="line"/>
      <point x="151" y="397"/>
      <point x="213" y="341"/>
      <point x="273" y="341" type="curve" smooth="yes"/>
      <point x="356" y="341"/>
      <point x="435" y="450"/>
      <point x="435" y="642" type="curve"/>
      <point x="423" y="652"/>
      <point x="413" y="654"/>
      <point x="402" y="653" type="curve"/>
      <point x="388" y="520"/>
      <point x="336" y="455"/>
      <point x="277" y="455" type="curve" smooth="yes"/>
      <point x="218" y="455"/>
      <point x="152" y="519"/>
      <point x="111" y="644" type="curve"/>
    </contour>
    <contour>
      <point x="105" y="-15" type="curve"/>
      <point x="120" y="-11"/>
      <point x="129" y="-6"/>
      <point x="139" y="11" type="curve"/>
      <point x="146" y="107"/>
      <point x="151" y="204"/>
      <point x="151" y="297" type="curve" smooth="yes"/>
      <point x="151" y="427"/>
      <point x="141" y="548"/>
      <point x="111" y="644" type="curve"/>
      <point x="94" y="644"/>
      <point x="44" y="614"/>
      <point x="25" y="586" type="curve"/>
      <point x="81" y="434"/>
      <point x="101" y="210"/>
    </contour>
  </outline>
</glyph>
<glyph name="three-ar" format="1">
  <advance width="555"/>
  <unicode hex="0663"/>
  <outline>
    <contour>
      <point x="87" y="566" type="line"/>
      <point x="114" y="432"/>
      <point x="171" y="368"/>
      <point x="224" y="368" type="curve" smooth="yes"/>
      <point x="286" y="368"/>
      <point x="343" y="455"/>
      <point x="343" y="622" type="curve" smooth="yes"/>
      <point x="343" y="636"/>
      <point x="343" y="650"/>
      <point x="342" y="665" type="curve"/>
      <point x="325" y="671"/>
      <point x="315" y="671"/>
      <point x="302" y="671" type="curve"/>
      <point x="304" y="655"/>
      <point x="304" y="640"/>
      <point x="304" y="626" type="curve" smooth="yes"/>
      <point x="304" y="532"/>
      <point x="269" y="486"/>
      <point x="225" y="486" type="curve" smooth="yes"/>
      <point x="177" y="486"/>
      <point x="120" y="540"/>
      <point x="91" y="644" type="curve"/>
    </contour>
    <contour>
      <point x="312" y="536" type="line"/>
      <point x="344" y="442"/>
      <point x="393" y="397"/>
      <point x="438" y="397" type="curve" smooth="yes"/>
      <point x="497" y="397"/>
      <point x="550" y="473"/>
      <point x="550" y="615" type="curve" smooth="yes"/>
      <point x="550" y="628"/>
      <point x="550" y="642"/>
      <point x="549" y="656" type="curve"/>
      <point x="538" y="666"/>
      <point x="526" y="669"/>
      <point x="511" y="669" type="curve"/>
      <point x="512" y="660"/>
      <point x="512" y="651"/>
      <point x="512" y="642" type="curve" smooth="yes"/>
      <point x="512" y="557"/>
      <point x="477" y="512"/>
      <point x="438" y="512" type="curve" smooth="yes"/>
      <point x="398" y="512"/>
      <point x="354" y="561"/>
      <point x="342" y="665" type="curve"/>
    </contour>
    <contour>
      <point x="85" y="-15" type="curve"/>
      <point x="100" y="-11"/>
      <point x="109" y="-6"/>
      <point x="119" y="11" type="curve"/>
      <point x="126" y="107"/>
      <point x="131" y="204"/>
      <point x="131" y="297" type="curve" smooth="yes"/>
      <point x="131" y="427"/>
      <point x="121" y="558"/>
      <point x="91" y="644" type="curve"/>
      <point x="74" y="644"/>
      <point x="24" y="614"/>
      <point x="5" y="586" type="curve"/>
      <point x="61" y="434"/>
      <point x="81" y="210"/>
    </contour>
  </outline>
</glyph>
<glyph name="four-ar" format="1">
  <advance width="411"/>
  <unicode hex="0664"/>
  <outline>
    <contour>
      <point x="323" y="642" type="curve"/>
      <point x="320" y="662" type="line"/>
      <point x="277" y="666"/>
      <point x="248" y="664"/>
      <point x="236" y="656" type="curve"/>
      <point x="115" y="599"/>
      <point x="32" y="518"/>
      <point x="32" y="440" type="curve" smooth="yes"/>
      <point x="32" y="410"/>
      <point x="118" y="331"/>
      <point x="225" y="331" type="curve"/>
      <point x="275" y="380" type="line"/>
      <point x="105" y="279"/>
      <point x="25" y="188"/>
      <point x="25" y="115" type="curve" smooth="yes"/>
      <point x="25" y="81"/>
      <point x="109" y="-11"/>
      <point x="322" y="-10" type="curve"/>
      <point x="354" y="10"/>
      <point x="380" y="56"/>
      <point x="386" y="105" type="curve"/>
      <point x="195" y="105"/>
      <point x="98" y="169"/>
      <point x="98" y="183" type="curve" smooth="yes"/>
      <point x="98" y="200"/>
      <point x="152" y="261"/>
      <point x="288" y="321" type="curve"/>
      <point x="313" y="342"/>
      <point x="327" y="378"/>
      <point x="333" y="410" type="curve"/>
      <point x="237" y="417"/>
      <point x="101" y="476"/>
      <point x="101" y="506" type="curve" smooth="yes"/>
      <point x="101" y="523"/>
      <point x="171" y="589"/>
    </contour>
  </outline>
</glyph>
<glyph name="five-ar" format="2">
  <advance width="426"/>
  <unicode hex="0665"/>
  <outline>
    <contour>
      <point x="158" y="515"/>
      <point x="40" y="354"/>
      <point x="40" y="204" type="curve" smooth="yes"/>
      <point x="40" y="124"/>
      <point x="92" y="73"/>
      <point x="214" y="73" type="curve" smooth="yes"/>
      <point x="332" y="73"/>
      <point x="386" y="133"/>
      <point x="386" y="219" type="curve" smooth="yes"/>
      <point x="386" y="385"/>
      <point x="297" y="515"/>
      <point x="214" y="515" type="curve" smooth="yes"/>
    </contour>
    <contour>
      <point x="234" y="404"/>
      <point x="345" y="341"/>
      <point x="345" y="240" type="curve" smooth="yes"/>
      <point x="345" y="207"/>
      <point x="302" y="191"/>
      <point x="211" y="191" type="curve" smooth="yes"/>
      <point x="128" y="191"/>
      <point x="89" y="206"/>
      <point x="89" y="238" type="curve" smooth="yes"/>
      <point x="89" y="340"/>
      <point x="134" y="404"/>
      <point x="174" y="404" type="curve" smooth="yes"/>
    </contour>
  </outline>
</glyph>
<glyph name="six-ar" format="2">
  <advance width="482"/>
  <unicode hex="0666"/>
  <outline>
    <contour>
      <point x="395" y="610" type="line"/>
      <point x="311" y="531" type="line"/>
      <point x="287" y="423"/>
      <point x="275" y="281"/>
      <point x="275" y="143" type="curve" smooth="yes"/>
      <point x="275" y="89"/>
      <point x="277" y="36"/>
      <point x="281" y="-15" type="curve"/>
      <point x="295" y="-11"/>
      <point x="303" y="-6"/>
      <point x="313" y="11" type="curve"/>
      <point x="314" y="21"/>
      <point x="314" y="32"/>
      <point x="315" y="42" type="curve" smooth="yes"/>
      <point x="331" y="246"/>
      <point x="360" y="438"/>
      <point x="447" y="612" type="curve"/>
    </contour>
    <contour>
      <point x="81" y="664" type="curve"/>
      <point x="70" y="664" type="line"/>
      <point x="47" y="618"/>
      <point x="35" y="562"/>
      <point x="35" y="537" type="curve"/>
      <point x="81" y="499"/>
      <point x="134" y="482"/>
      <point x="188" y="482" type="curve" smooth="yes"/>
      <point x="280" y="482"/>
      <point x="375" y="532"/>
      <point x="447" y="612" type="curve"/>
      <point x="437" y="631"/>
      <point x="422" y="647"/>
      <point x="416" y="647" type="curve"/>
      <point x="376" y="598"/>
      <point x="315" y="576"/>
      <point x="254" y="576" type="curve" smooth="yes"/>
      <point x="185" y="576"/>
      <point x="125" y="606"/>
    </contour>
  </outline>
</glyph>
<glyph name="seven-ar" format="1">
  <advance width="460"/>
  <unicode hex="0667"/>
  <outline>
    <contour>
      <point x="437" y="646" type="curve"/>
      <point x="339" y="454"/>
      <point x="282" y="323"/>
      <point x="226" y="179" type="curve"/>
      <point x="200" y="347"/>
      <point x="149" y="530"/>
      <point x="88" y="660" type="curve"/>
      <point x="60" y="660"/>
      <point x="14" y="602"/>
      <point x="0" y="568" type="curve"/>
      <point x="109" y="424"/>
      <point x="170" y="233"/>
      <point x="222" y="-7" type="curve"/>
      <point x="232" y="-7"/>
      <point x="243" y="-4"/>
      <point x="254" y="3" type="curve"/>
      <point x="321" y="257"/>
      <point x="368" y="403"/>
      <point x="460" y="622" type="curve"/>
      <point x="455" y="635"/>
      <point x="448" y="646"/>
    </contour>
  </outline>
</glyph>
<glyph name="eight-ar" format="1">
  <advance width="460"/>
  <unicode hex="0668"/>
  <outline>
    <contour>
      <point x="372" y="-7" type="curve"/>
      <point x="400" y="-7"/>
      <point x="446" y="51"/>
      <point x="460" y="85" type="curve"/>
      <point x="351" y="229"/>
      <point x="290" y="420"/>
      <point x="238" y="660" type="curve"/>
      <point x="228" y="660"/>
      <point x="217" y="657"/>
      <point x="206" y="650" type="curve"/>
      <point x="139" y="396"/>
      <point x="92" y="250"/>
      <point x="0" y="31" type="curve"/>
      <point x="5" y="18"/>
      <point x="12" y="7"/>
      <point x="23" y="7" type="curve"/>
      <point x="121" y="199"/>
      <point x="178" y="330"/>
      <point x="234" y="474" type="curve"/>
      <point x="260" y="306"/>
      <point x="311" y="123"/>
    </contour>
  </outline>
</glyph>
<glyph name="behDotless-ar" format="2">
  <advance width="542"/>
  <unicode hex="066E"/>
  <anchor x="284" y="-30" name="bottom"/>
  <anchor x="273" y="300" name="top"/>
  <outline>
    <contour>
      <point x="80" y="90" type="curve"/>
      <point x="69" y="90"/>
      <point x="65" y="86"/>
      <point x="65" y="73" type="curve" smooth="yes"/>
      <point x="65" y="49"/>
      <point x="70" y="31"/>
      <point x="81" y="0" type="curve"/>
      <point x="131" y="0"/>
      <point x="267" y="-3"/>
      <point x="370" y="0" type="curve" smooth="yes"/>
      <point x="454" y="2"/>
      <point x="477" y="75"/>
      <point x="477" y="149" type="curve" smooth="yes"/>
      <point x="477" y="193"/>
      <point x="469" y="240"/>
      <point x="456" y="281" type="curve" smooth="yes"/>
      <point x="454" y="289"/>
      <point x="451" y="295"/>
      <point x="439" y="295" type="curve"/>
      <point x="430" y="290"/>
      <point x="391" y="272"/>
      <point x="363" y="251" type="curve"/>
      <point x="386" y="223"/>
      <point x="419" y="167"/>
      <point x="419" y="132" type="curve" smooth="yes"/>
      <point x="419" y="122"/>
      <point x="420" y="97"/>
      <point x="395" y="95" type="curve" smooth="yes"/>
      <point x="319" y="88"/>
      <point x="186" y="90"/>
    </contour>
  </outline>
</glyph>
<glyph name="alefabove-ar" format="2">
  <unicode hex="0670"/>
  <anchor x="47" y="529" name="_top"/>
  <anchor x="49" y="771" name="top"/>
  <outline>
    <contour>
      <point x="61" y="547" type="curve" smooth="yes"/>
      <point x="64" y="609"/>
      <point x="69" y="686"/>
      <point x="74" y="761" type="curve"/>
      <point x="56" y="761"/>
      <point x="37" y="758"/>
      <point x="27" y="754" type="curve" smooth="yes"/>
      <point x="22" y="753"/>
      <point x="21" y="752"/>
      <point x="21" y="749" type="curve" smooth="yes"/>
      <point x="21" y="748"/>
      <point x="21" y="748"/>
      <point x="21" y="748" type="curve" smooth="yes"/>
      <point x="29" y="680"/>
      <point x="32" y="627"/>
      <point x="35" y="537" type="curve"/>
      <point x="45" y="537"/>
      <point x="60" y="539"/>
    </contour>
  </outline>
</glyph>
<glyph name="nyeh-ar" format="1">
  <advance width="586"/>
  <unicode hex="0683"/>
  <outline>
    <component base="hah-ar"/>
    <component base="twodotshorizontalbelow-ar" xOffset="135" yOffset="-88"/>
    <contour>
      <point x="326" y="-231" type="move" name="bottom"/>
    </contour>
    <contour>
      <point x="273" y="347" type="move" name="top"/>
    </contour>
  </outline>
</glyph>
<glyph name="ainThreedots-ar" format="1">
  <advance width="590"/>
  <unicode hex="06A0"/>
  <outline>
    <component base="ain-ar"/>
    <component base="threedotsupabove-ar" xOffset="252" yOffset="102"/>
    <contour>
      <point x="344" y="-111" type="move" name="bottom"/>
    </contour>
    <contour>
      <point x="421" y="738" type="move" name="top"/>
    </contour>
  </outline>
</glyph>
<glyph name="ng-ar" format="1">
  <advance width="757"/>
  <unicode hex="06AD"/>
  <outline>
    <component base="kaf-ar"/>
    <component base="threedotsupabove-ar" xOffset="40" yOffset="172"/>
    <contour>
      <point x="375" y="-40" type="move" name="bottom"/>
    </contour>
    <contour>
      <point x="199" y="809" type="move" name="top"/>
    </contour>
  </outline>
</glyph>
<glyph name="kirghizyu-ar" format="1">
  <advance width="515"/>
  <unicode hex="06C9"/>
  <outline>
    <component base="waw-ar"/>
    <component base="vinvertedabove-ar" xOffset="53" yOffset="-129"/>
    <contour>
      <point x="336" y="-211" type="move" name="bottom"/>
    </contour>
    <contour>
      <point x="171" y="540" type="move" name="top"/>
    </contour>
  </outline>
</glyph>
